<svg width="167" height="172" viewBox="0 0 167 172" fill="none" xmlns="http://www.w3.org/2000/svg">
<g opacity="0.75">
<path d="M190.609 25.5965C193.097 27.8963 195.342 30.4031 197.327 33.0992L197.329 33.1025L197.341 33.1186C207.235 46.5745 210.644 64.7412 205.439 85.4129C193.572 132.545 141.42 174.852 88.9542 179.908C59.4995 182.747 36.2079 173.241 23.5427 156.018C21.5654 153.329 19.8471 150.451 18.4048 147.404C31.8016 159.786 52.2529 166.166 77.0843 163.773C129.55 158.716 181.702 116.409 193.569 69.2771C197.734 52.7363 196.384 37.7994 190.609 25.5965Z" fill="#1A1A1A"/>
<path d="M185.697 16.2395C172.807 -0.942037 149.4 -10.3341 119.993 -7.50021C93.6063 -4.95721 67.3319 6.94702 46.1717 24.1126C25.0119 41.2779 8.9208 63.7412 2.95084 87.4516C-2.28743 108.256 1.13104 126.6 11.1442 140.218C11.148 140.223 11.1527 140.228 11.1567 140.234L23.0142 156.354C35.8384 173.794 59.3824 183.356 89.0201 180.5C115.407 177.957 141.682 166.053 162.842 148.888C184.002 131.723 200.092 109.259 206.062 85.5488C211.301 64.7443 207.882 46.4 197.869 32.7827L197.855 32.7632L185.999 16.6468L185.697 16.2395ZM192.484 28.3042C193.892 29.7756 195.207 31.3216 196.427 32.938L196.798 33.4356L196.799 33.437L196.801 33.4388L196.812 33.4546C206.588 46.7492 209.988 64.7382 204.816 85.2772C198.919 108.699 183 130.955 162 147.99C141.001 165.025 114.967 176.803 88.8881 179.316C59.8451 182.115 36.9373 172.836 24.3658 156.079L24.0708 155.682C22.7361 153.867 21.5211 151.964 20.4301 149.981C33.9675 161.083 53.6419 166.63 77.1501 164.364C103.537 161.821 129.812 149.918 150.972 132.752C172.132 115.587 188.223 93.1233 194.193 69.413C198.056 54.07 197.212 40.0648 192.484 28.3042ZM131.995 9.82003C156.621 7.44675 176.835 13.7594 190.072 25.9401C195.742 37.9883 197.073 52.7531 192.946 69.1414C187.049 92.5631 171.13 114.819 150.13 131.855C129.131 148.89 103.097 160.667 77.0181 163.18C52.3922 165.554 32.1792 159.24 18.9425 147.06C13.273 135.012 11.9411 120.247 16.0674 103.859C21.9647 80.4373 37.8833 58.1807 58.8828 41.1454C79.8819 24.1105 105.917 12.3333 131.995 9.82003ZM120.125 -6.31583C149.397 -9.13674 172.436 0.311198 184.942 17.3188C186.277 19.134 187.493 21.036 188.584 23.0198C175.047 11.917 155.371 6.37008 131.863 8.63565C105.476 11.1787 79.2014 23.0829 58.0413 40.2484C36.8815 57.4138 20.7908 79.8771 14.8209 103.587C10.9577 118.93 11.8026 132.935 16.5309 144.696C14.978 143.073 13.5364 141.36 12.2127 139.562L12.2012 139.546L11.7477 138.919C2.32132 125.688 -0.893223 107.941 4.1974 87.7232C10.0947 64.3015 26.0138 42.0449 47.0133 25.0096C68.0124 7.97468 94.0471 -3.80259 120.125 -6.31583Z" fill="#141414"/>
<path d="M75.2778 180.34C75.7967 180.359 76.3181 180.374 76.8419 180.385L65.4244 164.257C64.9023 164.248 64.3826 164.236 63.8653 164.22L75.2778 180.34Z" fill="#141414"/>
<path d="M79.3885 163.526C78.9152 163.581 78.4418 163.632 77.9684 163.682L89.3749 179.865C89.8495 179.818 90.324 179.767 90.7985 179.714L79.3885 163.526Z" fill="#141414"/>
<path d="M59.4666 178.326C60.0643 178.462 60.6667 178.592 61.2737 178.714L49.9232 162.681C49.32 162.563 48.7212 162.44 48.1271 162.309L59.4666 178.326Z" fill="#141414"/>
<path d="M92.5296 161.226C92.0895 161.328 91.6491 161.428 91.2085 161.525L102.692 177.746C103.134 177.65 103.575 177.551 104.016 177.45L92.5296 161.226Z" fill="#141414"/>
<path d="M104.431 157.853C104.017 157.991 103.602 158.128 103.187 158.262L114.735 174.503C115.151 174.369 115.566 174.234 115.981 174.096L104.431 157.853Z" fill="#141414"/>
<path d="M39.5027 170.447C40.3422 170.953 41.1989 171.442 42.0728 171.912L30.9168 156.154C30.0628 155.709 29.2247 155.247 28.4027 154.768L39.5027 170.447Z" fill="#141414"/>
<path d="M115.736 153.508C115.345 153.678 114.953 153.847 114.561 154.013L126.125 170.277C126.518 170.112 126.91 169.944 127.302 169.774L115.736 153.508Z" fill="#141414"/>
<path d="M126.444 148.324C126.073 148.522 125.701 148.719 125.329 148.914L136.911 165.202C137.283 165.007 137.656 164.811 138.027 164.614L126.444 148.324Z" fill="#141414"/>
<path d="M136.354 142.528C136.002 142.752 135.649 142.975 135.295 143.196L146.855 159.526C147.21 159.305 147.564 159.084 147.917 158.86L136.354 142.528Z" fill="#141414"/>
<path d="M146.093 135.782C145.76 136.033 145.425 136.282 145.09 136.53L156.633 152.907C156.97 152.66 157.304 152.412 157.638 152.162L146.093 135.782Z" fill="#141414"/>
<path d="M155.437 128.165C155.123 128.442 154.808 128.719 154.491 128.994L166.084 145.369C166.401 145.095 166.717 144.819 167.032 144.543L155.437 128.165Z" fill="#141414"/>
<path d="M164.007 119.95C163.713 120.255 163.418 120.559 163.121 120.863L174.731 137.264C175.029 136.961 175.325 136.657 175.619 136.353L164.007 119.95Z" fill="#141414"/>
<path d="M171.988 110.903C171.716 111.24 171.443 111.575 171.168 111.91L182.797 128.336C183.073 128.003 183.347 127.669 183.62 127.333L171.988 110.903Z" fill="#141414"/>
<path d="M179.199 101.054C178.954 101.426 178.706 101.797 178.456 102.167L190.132 118.588C190.383 118.219 190.632 117.849 190.878 117.478L179.199 101.054Z" fill="#141414"/>
<path d="M185.697 89.948C185.484 90.3645 185.268 90.7799 185.049 91.1947L196.749 107.65C196.969 107.237 197.186 106.822 197.4 106.407L185.697 89.948Z" fill="#141414"/>
<path d="M191.142 77.3141C190.974 77.7938 190.801 78.2728 190.624 78.751L202.323 95.3491C202.502 94.8733 202.676 94.3965 202.846 93.9192L191.142 77.3141Z" fill="#141414"/>
<path d="M195.037 62.1804C194.943 62.7583 194.843 63.3385 194.736 63.9209L206.514 80.5567C206.624 79.9785 206.726 79.4024 206.823 78.8287L195.037 62.1804Z" fill="#141414"/>
<path d="M195.482 42.4891C195.589 43.3311 195.68 44.1809 195.754 45.0382L207.681 61.8856C207.619 61.0453 207.539 60.2123 207.444 59.3866L195.482 42.4891Z" fill="#141414"/>
<path d="M3.5742 87.5874C-8.29303 134.72 24.6186 168.829 77.0843 163.773C129.55 158.716 181.702 116.409 193.569 69.2771C205.437 22.1449 172.525 -11.9643 120.059 -6.90804C67.5936 -1.8518 15.4414 40.4552 3.5742 87.5874Z" fill="#1E1E1E"/>
<path d="M4.84764 87.4649C16.5501 40.9873 67.9891 -0.758962 119.768 -5.74897C171.546 -10.7389 203.999 22.9225 192.296 69.4C180.594 115.877 129.155 157.623 77.3763 162.613L77.0843 163.773C129.345 158.736 181.295 116.739 193.428 69.8294L193.569 69.2771C205.437 22.1449 172.525 -11.9643 120.059 -6.90804C67.5936 -1.8518 15.4414 40.4552 3.5742 87.5874L3.43694 88.1394C-8.0357 134.986 24.8236 168.809 77.0843 163.773L77.3763 162.613C25.5978 167.603 -6.85462 133.942 4.84764 87.4649Z" fill="#141414"/>
<path d="M16.5525 86.3366C15.141 91.9429 14.4632 97.3357 14.4623 102.456V109.463C14.4632 104.342 15.141 98.9497 16.5525 93.3434V86.3366Z" fill="#1A1A1A"/>
<path d="M117.124 4.75089C156.181 0.986847 182.687 22.3622 182.681 54.4084V61.3942C182.676 29.3597 156.173 7.99448 117.124 11.7577C71.8258 16.1232 26.7985 52.6504 16.5525 93.3434V86.3366C26.7985 45.6436 71.8258 9.11637 117.124 4.75089Z" fill="#1A1A1A"/>
<path d="M15.1025 109.463L15.1045 108.987C15.146 104.057 15.8182 98.8703 17.1756 93.4793C22.2622 73.2771 35.9946 54.0753 54.1142 39.3763C72.2335 24.6775 94.6949 14.5178 117.189 12.3499C136.576 10.4816 152.783 14.8551 164.135 23.6101C175.482 32.3616 182.038 45.5369 182.041 61.3945V61.4154H183.321V54.4082C183.324 38.2256 176.628 24.6957 164.96 15.6928C153.296 6.69344 136.725 2.26343 117.058 4.15872C94.2546 6.35633 71.553 16.6431 53.2727 31.4725C34.9928 46.3016 21.0889 65.7101 15.9295 86.2009C14.5076 91.8484 13.8234 97.2867 13.8225 102.456V109.463C13.8226 109.792 14.1087 110.058 14.462 110.058C14.7933 110.058 15.0661 109.824 15.099 109.524L15.1025 109.463ZM15.9126 93.2756C15.8244 93.6272 15.7395 93.978 15.657 94.3279C15.7343 93.7502 15.8188 93.1694 15.9126 92.586V93.2756ZM117.189 5.3431C136.58 3.47439 152.791 7.85011 164.143 16.6089C173.942 24.1701 180.167 35.032 181.68 48.072C179.028 37.7743 173.246 29.0904 164.952 22.6936C153.289 13.6982 136.72 9.27063 117.058 11.1655C94.2546 13.3631 71.553 23.6498 53.2727 38.4793C36.3216 52.2304 23.1344 69.9198 17.1926 88.758V86.4065C22.2925 66.2285 36.0143 47.0526 54.1142 32.3695C72.2335 17.6707 94.6949 7.51101 117.189 5.3431Z" fill="#141414"/>
<path d="M3.5742 87.5874C-8.29303 134.72 24.6186 168.829 77.0843 163.773C129.55 158.716 181.702 116.409 193.569 69.2771C205.437 22.1449 172.525 -11.9643 120.059 -6.90804C67.5936 -1.8518 15.4414 40.4552 3.5742 87.5874ZM180.591 70.5279C170.345 111.221 125.318 147.748 80.0199 152.114C34.7219 156.479 6.30657 127.03 16.5525 86.3366C26.7985 45.6436 71.8258 9.11637 117.124 4.75089C162.422 0.385423 190.837 29.8348 180.591 70.5279Z" fill="#1E1E1E"/>
<path d="M4.21104 87.5262C15.9959 40.7214 67.7914 -1.30538 119.914 -6.32851C172.036 -11.3516 204.718 22.5339 192.933 69.3387C181.148 116.143 129.352 158.17 77.2303 163.193C25.1083 168.216 -7.57363 134.331 4.21104 87.5262ZM17.1891 86.2755C27.3527 45.9097 72.0235 9.66296 116.978 5.3306C161.932 0.998308 190.118 30.2237 179.955 70.5894C169.791 110.955 125.12 147.201 80.1659 151.534C35.2116 155.866 7.02571 126.641 17.1891 86.2755ZM15.9159 86.3982C5.58765 127.418 34.2326 157.092 79.8741 152.693C125.516 148.294 170.899 111.487 181.228 70.4667C191.556 29.4464 162.911 -0.226996 117.27 4.17153C71.6282 8.57011 26.2442 45.3778 15.9159 86.3982ZM2.9378 87.6489C-9.01169 135.108 24.1293 169.441 76.9385 164.352C129.748 159.263 182.256 116.675 194.206 69.216C206.156 21.7566 173.015 -12.5769 120.205 -7.48759C67.396 -2.39823 14.8874 40.1895 2.9378 87.6489Z" fill="#141414"/>
<path fill-rule="evenodd" clip-rule="evenodd" d="M42.8175 105.008L45.511 110.144C46.6772 112.368 49.7879 113.18 53.0611 112.028C52.6106 113.508 52.7057 114.928 53.2955 116.053L55.989 121.188C56.822 122.776 58.6417 123.774 61.3047 123.513L92.7239 120.442C96.7551 120.048 100.764 116.744 101.678 113.062L103.46 105.882C103.801 104.508 103.663 103.276 103.147 102.291L100.453 97.1551C100.169 96.6131 99.7698 96.1462 99.2728 95.772C103.152 95.1922 106.908 91.9945 107.789 88.4459L111.863 72.0352C112.204 70.6611 112.066 69.4286 111.549 68.4438L108.856 63.3081C108.574 62.771 108.179 62.3075 107.689 61.9351L112.829 61.4326C113.563 61.3608 114.312 61.1891 115.049 60.9279C115.004 61.0695 114.964 61.2113 114.929 61.3531L109.587 82.8711C109.246 84.2452 109.384 85.4778 109.901 86.4625L112.594 91.5983C112.912 92.2029 113.372 92.7141 113.951 93.1074C113.528 93.0482 113.064 93.0395 112.562 93.0886C109.442 93.3935 106.34 95.9502 105.633 98.7992C105.359 99.9045 105.469 100.843 105.856 101.58L105.928 101.71L105.938 101.728L108.549 106.716C109.771 109.045 113.747 109.373 117.062 106.64C119.64 104.516 120.298 101.795 119.368 100.023L116.675 94.8874C116.471 94.4984 116.19 94.1552 115.836 93.8742C116.472 94.0007 117.172 94.0338 117.925 93.9603L125.785 93.1919C129.816 92.7979 133.825 89.4936 134.739 85.8116L141.864 57.114C142.218 55.6856 142.075 54.4725 141.575 53.5194L138.882 48.3842C137.716 46.1601 134.605 45.3482 131.332 46.5005C131.783 45.0207 131.688 43.6002 131.098 42.4757L128.404 37.34C127.571 35.7522 125.752 34.7549 123.089 35.0152L91.6694 38.0863C87.6382 38.4803 83.6293 41.7845 82.7153 45.4665L80.9329 52.6462C80.5918 54.0203 80.7299 55.2529 81.2466 56.2376L83.9401 61.3734C84.2245 61.9153 84.6235 62.3823 85.1205 62.7565C81.2408 63.3363 77.4853 66.534 76.6043 70.0826L72.5304 86.4932C72.1892 87.8673 72.3274 89.0999 72.8441 90.0846L75.5356 95.2168C75.8175 95.7539 76.2138 96.2209 76.7046 96.5934L71.5643 97.0958C70.8298 97.1676 70.0817 97.3394 69.3442 97.6006C69.389 97.4589 69.429 97.3171 69.4642 97.1753L74.8061 75.6573C75.1472 74.2832 75.0091 73.0507 74.4924 72.066L71.7989 66.9302C71.4816 66.3256 71.0217 65.8144 70.4423 65.4211C70.8656 65.4802 71.3293 65.489 71.8318 65.4399C74.951 65.135 78.053 62.5782 78.7602 59.7292C79.0346 58.6239 78.924 57.6853 78.5373 56.9478L75.844 51.8125C74.6228 49.4834 70.6459 49.1558 67.3309 51.8882C64.7536 54.0124 64.0958 56.7338 65.0251 58.5053L67.7168 63.6376C67.9209 64.0266 68.2033 64.3732 68.5569 64.6542C67.9217 64.5277 67.2214 64.4946 66.4686 64.5682L58.608 65.3365C54.5768 65.7306 50.5679 69.0348 49.6539 72.7168L42.5297 101.414C42.175 102.843 42.3177 104.055 42.8175 105.008Z" fill="#1A1A1A"/>
<path d="M128.979 37.0791C128.01 35.2311 125.908 34.1414 123.022 34.4235L91.6024 37.4944C89.4299 37.7068 87.2994 38.6966 85.5991 40.098C83.8987 41.4995 82.5838 43.3493 82.0914 45.3326L80.3094 52.5124C79.9639 53.9039 80.0648 55.1996 80.5659 56.2845L80.6714 56.4984L83.365 61.6345C83.5097 61.9103 83.6824 62.1684 83.878 62.4092C82.2057 62.8633 80.6181 63.7415 79.3038 64.8686C77.6937 66.2494 76.4553 68.0371 75.9807 69.9488L75.3546 72.4711C75.2755 72.2407 75.1796 72.0182 75.0676 71.8047L72.374 66.6691C72.255 66.4424 72.1184 66.2268 71.965 66.0237C73.6583 65.8425 75.3087 65.0693 76.6252 63.9842C77.9589 62.8848 78.9948 61.43 79.3838 59.8632C79.6848 58.6509 79.5748 57.5687 79.1123 56.6867L76.4192 51.5516C75.6816 50.1451 74.1331 49.3925 72.3865 49.3573C70.6406 49.3221 68.6656 49.9927 66.9063 51.4428C64.1914 53.6806 63.3542 56.678 64.4497 58.7663L67.1413 63.8986C67.1479 63.9112 67.156 63.9233 67.1628 63.9358C66.914 63.9383 66.6601 63.951 66.4017 63.9762L58.5409 64.7444C56.3685 64.9568 54.2379 65.9467 52.5376 67.348C50.8373 68.7495 49.5228 70.5998 49.0305 72.5831L41.9062 101.281C41.5251 102.816 41.6668 104.172 42.2422 105.269L44.9358 110.405C46.1587 112.737 49.1236 113.615 52.2126 112.897C52.028 114.128 52.1944 115.311 52.7202 116.314L55.4138 121.449C56.3833 123.297 58.4858 124.387 61.3715 124.105L92.7909 121.034C94.9634 120.822 97.0939 119.832 98.7942 118.43C100.495 117.029 101.809 115.179 102.302 113.196L104.084 106.016C104.452 104.532 104.313 103.157 103.722 102.03L101.029 96.8948L101.028 96.8934C100.883 96.6177 100.711 96.3592 100.516 96.1187C102.188 95.6645 103.775 94.7866 105.089 93.6597C106.699 92.2789 107.938 90.4916 108.413 88.5799L109.039 86.0568C109.092 86.2112 109.152 86.3622 109.22 86.5092L109.326 86.7236L112.019 91.8592C112.138 92.0861 112.276 92.3014 112.429 92.5046C110.736 92.6856 109.085 93.4593 107.768 94.5446C106.434 95.644 105.398 97.0988 105.009 98.6655C104.709 99.8755 104.818 100.955 105.278 101.836V101.837L105.28 101.841C105.283 101.845 105.285 101.849 105.287 101.853L105.359 101.983C105.361 101.987 105.364 101.991 105.366 101.995L105.367 101.996L105.372 102.004L107.974 106.977C108.711 108.383 110.26 109.136 112.007 109.171C113.753 109.206 115.728 108.536 117.487 107.086C120.202 104.848 121.039 101.85 119.943 99.762L117.25 94.6265L117.249 94.6255C117.244 94.6143 117.237 94.6033 117.231 94.5921C117.48 94.5896 117.733 94.5773 117.992 94.5521L125.852 93.7839C128.024 93.5715 130.155 92.5817 131.856 91.1803C133.556 89.7788 134.87 87.9289 135.363 85.9457L142.487 57.248C142.868 55.7126 142.726 54.3562 142.151 53.2587L139.457 48.1231C138.235 45.7912 135.27 44.9131 132.181 45.6311C132.366 44.4001 132.199 43.217 131.673 42.2147L128.979 37.0791ZM123.155 35.6074C125.595 35.3689 127.132 36.2734 127.829 37.6009L130.523 42.7364C131.031 43.7053 131.132 44.9716 130.716 46.3384C130.65 46.5547 130.721 46.7872 130.9 46.9392C131.078 47.0911 131.333 47.1368 131.559 47.0573C134.651 45.9687 137.339 46.799 138.307 48.6453L141 53.7804C141.424 54.5891 141.568 55.6588 141.24 56.9802L134.116 85.6778C133.694 87.3765 132.547 89.0197 131.007 90.2893C129.466 91.559 127.577 92.4183 125.718 92.6L117.858 93.3681C117.166 93.4358 116.534 93.4045 115.97 93.2924C115.684 93.2353 115.392 93.3662 115.262 93.6104C115.133 93.8546 115.198 94.1495 115.42 94.3265C115.704 94.5522 115.932 94.8294 116.099 95.1482L118.793 100.284C119.556 101.739 119.077 104.184 116.638 106.195C115.082 107.477 113.411 108.009 112.035 107.981C110.659 107.953 109.608 107.377 109.125 106.455L106.573 101.58L106.584 101.573C106.583 101.572 106.582 101.569 106.58 101.567C106.551 101.525 106.524 101.483 106.498 101.439L106.489 101.424L106.428 101.312C106.119 100.72 106.01 99.9272 106.257 98.9329C106.575 97.6508 107.443 96.4026 108.617 95.4351C109.791 94.4676 111.226 93.8178 112.628 93.6806C113.082 93.6363 113.491 93.6451 113.856 93.696C114.147 93.7367 114.431 93.5871 114.543 93.3337C114.655 93.0802 114.566 92.788 114.328 92.6265C113.834 92.2908 113.442 91.8553 113.17 91.3375L110.476 86.2014C110.034 85.3587 109.897 84.2688 110.211 83.0049L115.552 61.4871C115.585 61.3569 115.622 61.2262 115.663 61.0955C115.731 60.8786 115.662 60.6445 115.483 60.491C115.305 60.3375 115.049 60.2911 114.821 60.3715C114.131 60.6161 113.437 60.7748 112.762 60.8407L107.622 61.3429C107.365 61.3681 107.149 61.5349 107.076 61.7651C107.002 61.9954 107.084 62.2442 107.284 62.3961C107.702 62.7134 108.039 63.1078 108.281 63.568L108.281 63.5698L110.974 68.7049C111.416 69.5477 111.553 70.6376 111.239 71.9014L107.165 88.3121C106.759 89.9488 105.679 91.5345 104.221 92.7846C102.764 94.0345 100.967 94.9161 99.1712 95.1845C98.9219 95.2218 98.7192 95.3919 98.6542 95.6188C98.5892 95.8457 98.674 96.0867 98.8702 96.2345C99.2408 96.5136 99.5479 96.8531 99.7822 97.2449L99.8777 97.4161L102.571 102.552C103.013 103.394 103.151 104.485 102.837 105.749L101.054 112.928C100.633 114.627 99.4855 116.27 97.9451 117.539C96.4047 118.809 94.5155 119.669 92.6569 119.85L61.238 122.921C58.7978 123.16 57.2608 122.255 56.5643 120.927L53.8707 115.792C53.3624 114.823 53.2605 113.557 53.6767 112.19C53.7425 111.974 53.6718 111.742 53.4937 111.59C53.3155 111.438 53.0608 111.392 52.8347 111.471C49.7425 112.56 47.0545 111.73 46.0864 109.883L43.3927 104.747C42.9688 103.939 42.8252 102.87 43.1532 101.548L50.2775 72.8505C50.6993 71.1519 51.8463 69.5086 53.3867 68.239C54.9271 66.9694 56.8163 66.11 58.6749 65.9284L66.5353 65.1602C67.2273 65.0925 67.8595 65.1243 68.4228 65.2364C68.7093 65.2935 69.0011 65.1621 69.1309 64.9179C69.2606 64.6737 69.1954 64.3787 68.9729 64.2018C68.6894 63.9765 68.4595 63.696 68.2918 63.3764L65.6002 58.2445C64.8373 56.7899 65.316 54.3444 67.7553 52.3338C69.3109 51.0516 70.9819 50.5195 72.3585 50.5472C73.7344 50.575 74.7849 51.1509 75.2686 52.0734L77.9618 57.2085C78.2727 57.8016 78.3846 58.5971 78.1368 59.5954C77.8185 60.8776 76.9499 62.1257 75.7762 63.0932C74.6023 64.0607 73.1676 64.711 71.765 64.8481C71.311 64.8925 70.9019 64.8832 70.5374 64.8323C70.246 64.7916 69.9624 64.9415 69.8504 65.195C69.7384 65.4485 69.8269 65.7403 70.0649 65.9019C70.5595 66.2376 70.9517 66.6733 71.2235 67.1913L73.9171 72.3269C74.3593 73.1696 74.4963 74.2595 74.1826 75.5234L68.8404 97.0413C68.808 97.1714 68.7716 97.3022 68.7303 97.4328C68.6618 97.6497 68.7314 97.8843 68.9099 98.0378C69.0883 98.1911 69.3448 98.2372 69.5719 98.1568C70.2625 97.9122 70.9567 97.7535 71.631 97.6876L76.7717 97.1854C77.0286 97.1602 77.2438 96.9938 77.3177 96.7637C77.3916 96.5334 77.3094 96.2841 77.1092 96.1322C76.6914 95.8151 76.3526 95.4167 76.1107 94.9557L73.4191 89.8238C72.977 88.9811 72.8403 87.8907 73.154 86.6269L77.2277 70.2162C77.6341 68.5795 78.7142 66.9938 80.1719 65.7437C81.6294 64.4938 83.4266 63.6126 85.2221 63.3443C85.4713 63.307 85.6735 63.1368 85.7386 62.91C85.8037 62.6831 85.7194 62.4416 85.5231 62.2938C85.0995 61.9749 84.7593 61.5769 84.5156 61.1123L81.8219 55.9767L81.7424 55.8158C81.3642 54.997 81.2623 53.9651 81.5564 52.7802L83.339 45.6004C83.7607 43.9018 84.9078 42.2586 86.4481 40.9889C87.9886 39.7193 89.8778 38.86 91.7364 38.6783L123.155 35.6074ZM71.9825 89.6788C72.0356 89.8334 72.0955 89.9845 72.1635 90.1317L72.269 90.3456L74.9601 95.4779L74.9611 95.4793C75.0801 95.7059 75.2177 95.9213 75.3716 96.1252L71.4975 96.5037C71.0776 96.5447 70.6557 96.6165 70.2354 96.7153L71.9825 89.6788ZM112.411 68.8496C112.332 68.619 112.236 68.3963 112.124 68.1827L109.431 63.0472L109.304 62.8207C109.218 62.6762 109.124 62.5368 109.023 62.4027L112.896 62.0246C113.316 61.9835 113.738 61.9115 114.158 61.8126L112.411 68.8496Z" fill="#141414"/>
<path fill-rule="evenodd" clip-rule="evenodd" d="M65.9182 99.553C67.5975 98.1689 69.6284 97.2851 71.5643 97.0958L95.1228 94.7931C99.154 94.3991 101.681 97.0645 100.767 100.747L98.9845 107.926C98.0704 111.608 94.0615 114.912 90.0304 115.306L58.6112 118.378C52.1085 119.013 50.6346 112.15 56.2753 107.501L65.9182 99.553ZM105.633 98.7992C106.34 95.9502 109.442 93.3935 112.562 93.0886C117.593 92.5968 118.734 97.907 114.369 101.505C110.004 105.102 104.492 103.395 105.633 98.7992ZM49.6539 72.7168C50.5679 69.0348 54.5768 65.7306 58.608 65.3365L66.4686 64.5682C70.4997 64.1742 73.0266 66.8396 72.1126 70.5216L66.7707 92.0396C66.3318 93.8077 65.1418 95.5786 63.4626 96.9627L53.8197 104.911C48.1789 109.56 41.0552 107.354 42.5297 101.414L49.6539 72.7168ZM114.929 61.3531C115.368 59.585 116.558 57.8141 118.237 56.43L127.88 48.482C133.521 43.8327 140.645 46.0388 139.17 51.9783L132.046 80.6759C131.132 84.3579 127.123 87.6622 123.092 88.0562L115.231 88.8245C111.2 89.2185 108.673 86.5531 109.587 82.8711L114.929 61.3531ZM76.6043 70.0826C77.5184 66.4006 81.5273 63.0963 85.5584 62.7023L103.525 60.9461C107.557 60.5521 110.083 63.2175 109.169 66.8995L105.095 83.3102C104.181 86.9922 100.172 90.2964 96.1413 90.6905L78.1744 92.4466C74.1432 92.8407 71.6163 90.1752 72.5304 86.4932L76.6043 70.0826ZM82.7153 45.4665C83.6293 41.7845 87.6382 38.4803 91.6694 38.0863L123.089 35.0152C129.591 34.3796 131.065 41.2424 125.424 45.8917L115.781 53.8397C114.102 55.2238 112.071 56.1077 110.135 56.2969L86.5769 58.5996C82.5457 58.9936 80.0189 56.3282 80.9329 52.6462L82.7153 45.4665ZM69.1383 60.3042C64.1066 60.796 62.9662 55.4857 67.3309 51.8882C71.6955 48.2907 77.2077 49.9977 76.0667 54.5935C75.3595 57.4425 72.2575 59.9993 69.1383 60.3042Z" fill="#1E1E1E"/>
<path d="M71.7082 96.5158C69.603 96.7216 67.3948 97.6829 65.5693 99.1875L55.9264 107.136C49.7975 112.187 51.3945 119.649 58.4672 118.957L89.8866 115.886C94.2707 115.458 98.628 111.865 99.6212 107.864L101.404 100.684C102.397 96.6833 99.651 93.7846 95.267 94.213L71.7082 96.5158ZM106.269 98.7372C106.897 96.2072 109.652 93.9388 112.418 93.6684C116.879 93.2325 117.896 97.9438 114.02 101.139C110.15 104.329 105.256 102.819 106.269 98.7372ZM50.2903 72.6546C51.1252 69.2916 54.7858 66.2761 58.464 65.9165L66.3245 65.1482C70.0027 64.7887 72.3109 67.2208 71.476 70.5838L66.1342 92.1016C65.7334 93.7164 64.6467 95.3337 63.1137 96.5972L53.4708 104.545C48.3245 108.787 41.8193 106.778 43.1661 101.352L50.2903 72.6546ZM132.682 80.6135L139.807 51.9161C141.409 45.4625 133.666 43.0598 127.531 48.1167L117.888 56.0647C116.063 57.5693 114.769 59.494 114.292 61.4154L108.951 82.9332C107.957 86.9341 110.703 89.8328 115.087 89.4043L122.948 88.636C127.332 88.2074 131.689 84.6145 132.682 80.6135ZM77.241 70.0203C78.0759 66.6574 81.7361 63.6419 85.4142 63.2823L103.382 61.5261C107.06 61.1666 109.368 63.5987 108.533 66.9617L104.459 83.3722C103.624 86.7352 99.9636 89.7507 96.2855 90.1103L78.3181 91.8665C74.6401 92.2259 72.3322 89.7938 73.1671 86.4309L77.241 70.0203ZM83.352 45.4043C84.1869 42.0413 87.8471 39.0259 91.5252 38.6663L122.944 35.5952C128.877 35.0153 130.228 41.2794 125.075 45.5264L115.433 53.474C113.9 54.7375 112.046 55.5442 110.279 55.7169L86.7207 58.0196C83.0426 58.379 80.7348 55.9469 81.5696 52.584L83.352 45.4043ZM76.7032 54.5314C77.9717 49.4216 71.8413 47.5177 66.9821 51.5226C62.1293 55.5224 63.3928 61.4316 68.9945 60.884C72.4666 60.5446 75.9167 57.6993 76.7032 54.5314ZM98.3482 107.988C97.5133 111.351 93.8526 114.367 90.1745 114.726L58.7552 117.797C52.8225 118.377 51.4717 112.114 56.6241 107.867L66.267 99.9186C67.7999 98.6551 69.6537 97.8484 71.4202 97.6757L94.979 95.373C98.657 95.0135 100.965 97.4456 100.131 100.809L98.3482 107.988ZM104.996 98.8617C103.728 103.971 109.859 105.875 114.718 101.87C119.571 97.8702 118.307 91.9612 112.706 92.5085C109.233 92.8479 105.783 95.6937 104.996 98.8617ZM71.8941 86.5553C70.9009 90.5562 73.6461 93.4548 78.0302 93.0264L95.9975 91.2702C100.382 90.8416 104.739 87.2487 105.732 83.2478L109.806 66.8373C110.799 62.8364 108.054 59.9377 103.669 60.3662L85.7021 62.1224C81.318 62.551 76.9612 66.1439 75.968 70.1448L71.8941 86.5553ZM41.8931 101.477C40.291 107.93 48.0333 110.333 54.1685 105.276L63.8114 97.3283C65.6369 95.8237 66.9303 93.8987 67.4073 91.9772L72.7491 70.4594C73.7423 66.4584 70.9966 63.5598 66.6125 63.9883L58.7519 64.7566C54.3677 65.1852 50.0105 68.7781 49.0173 72.779L41.8931 101.477ZM131.409 80.738C130.574 84.101 126.914 87.1165 123.236 87.4761L115.375 88.2444C111.697 88.6039 109.389 86.1718 110.224 82.8088L115.565 61.291C115.966 59.6762 117.053 58.0589 118.586 56.7954L128.229 48.8478C133.375 44.6061 139.88 46.615 138.534 52.0405L131.409 80.738ZM75.4302 54.6558C74.802 57.1858 72.0485 59.4537 69.2825 59.7241C64.8208 60.1602 63.8033 55.4489 67.6798 52.2537C71.55 49.0638 76.4435 50.574 75.4302 54.6558ZM80.2966 52.7084C79.3034 56.7093 82.0487 59.608 86.4327 59.1795L109.991 56.8768C112.097 56.671 114.305 55.7097 116.13 54.2051L125.773 46.2571C131.902 41.2054 130.305 33.7439 123.232 34.4353L91.8131 37.5063C87.429 37.935 83.0722 41.5279 82.079 45.5287L80.2966 52.7084Z" fill="#141414"/>
</g>
</svg>
