<svg width="79" height="30" viewBox="0 0 79 30" fill="none" xmlns="http://www.w3.org/2000/svg">
<path fill-rule="evenodd" clip-rule="evenodd" d="M21.794 22.9495C21.3202 22.4746 20.6776 22.2078 20.0076 22.2078H11.8539C10.4587 22.2078 9.32766 23.3416 9.32766 24.7403V27.4675C9.32766 28.8662 10.4587 30 11.8539 30H22.7282C24.9788 30 26.106 27.2722 24.5145 25.6768L21.794 22.9495ZM7.77305 24.1673C7.77305 23.0851 6.89788 22.2078 5.81831 22.2078C4.07683 22.2078 3.20469 24.3185 4.4361 25.553C5.66752 26.7874 7.77305 25.9131 7.77305 24.1673ZM29.9262 11.8831C29.9262 10.4845 28.7952 9.35065 27.4 9.35065H24.6794C23.2842 9.35065 22.1532 10.4845 22.1532 11.8831V20.0569C22.1532 20.7286 22.4193 21.3727 22.8931 21.8477L25.6137 24.5749C27.2051 26.1703 29.9262 25.0404 29.9262 22.7842V11.8831ZM7.77305 9.94306C7.77305 9.2714 7.50689 8.62726 7.03313 8.15233L4.31256 5.42506C2.72112 3.82969 0 4.9596 0 7.21579V18.1169C0 19.5155 1.13104 20.6494 2.52624 20.6494H5.24681C6.64201 20.6494 7.77305 19.5155 7.77305 18.1169V9.94306ZM20.5986 11.8831C20.5986 10.4845 19.4675 9.35065 18.0723 9.35065H11.8539C10.4587 9.35065 9.32766 10.4845 9.32766 11.8831V18.1169C9.32766 19.5155 10.4587 20.6494 11.8539 20.6494H18.0723C19.4675 20.6494 20.5986 19.5155 20.5986 18.1169V11.8831ZM20.5986 2.53247C20.5986 1.13382 19.4675 0 18.0723 0H7.19804C4.9474 0 3.82027 2.72782 5.41172 4.32319L8.13229 7.05047C8.60605 7.5254 9.24861 7.79221 9.91861 7.79221H18.0723C19.4675 7.79221 20.5986 6.65838 20.5986 5.25974V2.53247ZM24.1079 7.79221C25.8494 7.79221 26.7216 5.68149 25.4901 4.44704C24.2587 3.21259 22.1532 4.08687 22.1532 5.83265C22.1532 6.91488 23.0284 7.79221 24.1079 7.79221Z" fill="white"/>
<path d="M38.0654 20.1316V10.5395H39.8728V18.5684H44.8815V20.1316H38.0654Z" fill="white"/>
<path d="M46.0261 20.1316V13.0263H47.7862V20.1316H46.0261ZM46.9002 12.2447C46.6246 12.2447 46.3883 12.15 46.1914 11.9605C46.0024 11.7632 45.9079 11.5263 45.9079 11.25C45.9079 10.9737 46.0024 10.7408 46.1914 10.5513C46.3883 10.3539 46.6246 10.2553 46.9002 10.2553C47.1759 10.2553 47.4082 10.3539 47.5972 10.5513C47.7941 10.7408 47.8925 10.9737 47.8925 11.25C47.8925 11.5263 47.7941 11.7632 47.5972 11.9605C47.4082 12.15 47.1759 12.2447 46.9002 12.2447Z" fill="white"/>
<path d="M54.6455 22.9737V19.1013H54.5982C54.3935 19.4724 54.0981 19.7605 53.7123 19.9658C53.3264 20.1711 52.8657 20.2737 52.3301 20.2737C51.6529 20.2737 51.0701 20.1237 50.5818 19.8237C50.1014 19.5158 49.7313 19.0855 49.4714 18.5329C49.2194 17.9803 49.0934 17.3289 49.0934 16.5789C49.0934 15.8289 49.2233 15.1776 49.4832 14.625C49.751 14.0724 50.1369 13.6461 50.6409 13.3461C51.1449 13.0382 51.7592 12.8842 52.4837 12.8842C53.0665 12.8842 53.5666 12.9947 53.984 13.2158C54.4014 13.4368 54.7361 13.7526 54.9881 14.1632H55.4842V13.0263H57.2798V14.7908H56.4056V22.9737H54.6455ZM52.7908 18.7461C53.3579 18.7461 53.8068 18.5882 54.1375 18.2724C54.4762 17.9487 54.6455 17.5105 54.6455 16.9579V16.2C54.6455 15.6474 54.4762 15.2132 54.1375 14.8974C53.8068 14.5737 53.3579 14.4118 52.7908 14.4118C52.1608 14.4118 51.6804 14.6053 51.3497 14.9921C51.0189 15.3711 50.8535 15.9 50.8535 16.5789C50.8535 17.2579 51.0189 17.7908 51.3497 18.1776C51.6804 18.5566 52.1608 18.7461 52.7908 18.7461Z" fill="white"/>
<path d="M61.4859 20.2618C60.5173 20.2618 59.7691 20.0053 59.2415 19.4921C58.7217 18.9711 58.4618 18.2684 58.4618 17.3842V13.0263H60.222V17.0289C60.222 17.5816 60.3637 18 60.6472 18.2842C60.9307 18.5605 61.3521 18.6987 61.9112 18.6987C62.5019 18.6987 62.9547 18.5487 63.2697 18.2487C63.5847 17.9487 63.7422 17.5263 63.7422 16.9816V13.0263H65.5024V18.3671H66.3883V20.1316H64.581V18.9947H64.0848C63.8092 19.4053 63.4627 19.7211 63.0453 19.9421C62.6357 20.1553 62.116 20.2618 61.4859 20.2618Z" fill="white"/>
<path d="M67.7463 20.1316V13.0263H69.5064V20.1316H67.7463ZM68.6204 12.2447C68.3448 12.2447 68.1085 12.15 67.9117 11.9605C67.7226 11.7632 67.6282 11.5263 67.6282 11.25C67.6282 10.9737 67.7226 10.7408 67.9117 10.5513C68.1085 10.3539 68.3448 10.2553 68.6204 10.2553C68.8961 10.2553 69.1284 10.3539 69.3174 10.5513C69.5143 10.7408 69.6127 10.9737 69.6127 11.25C69.6127 11.5263 69.5143 11.7632 69.3174 11.9605C69.1284 12.15 68.8961 12.2447 68.6204 12.2447Z" fill="white"/>
<path d="M74.2039 20.2737C73.4794 20.2737 72.8651 20.1237 72.3611 19.8237C71.8571 19.5158 71.4712 19.0855 71.2034 18.5329C70.9435 17.9724 70.8136 17.3211 70.8136 16.5789C70.8136 15.8289 70.9396 15.1776 71.1916 14.625C71.4515 14.0724 71.8216 13.6461 72.302 13.3461C72.7903 13.0382 73.3731 12.8842 74.0504 12.8842C74.5859 12.8842 75.0466 12.9868 75.4325 13.1921C75.8184 13.3895 76.1137 13.6776 76.3185 14.0566H76.3657V10.1842H78.1258V18.3671H79V20.1316H77.2044V18.9947H76.7083C76.4563 19.4053 76.1216 19.7211 75.7042 19.9421C75.2868 20.1632 74.7867 20.2737 74.2039 20.2737ZM74.5111 18.7461C75.0781 18.7461 75.527 18.5882 75.8577 18.2724C76.1964 17.9487 76.3657 17.5105 76.3657 16.9579V16.2C76.3657 15.6474 76.1964 15.2132 75.8577 14.8974C75.527 14.5737 75.0781 14.4118 74.5111 14.4118C73.881 14.4118 73.4006 14.6053 73.0699 14.9921C72.7391 15.3711 72.5737 15.9 72.5737 16.5789C72.5737 17.2579 72.7391 17.7908 73.0699 18.1776C73.4006 18.5566 73.881 18.7461 74.5111 18.7461Z" fill="white"/>
</svg>
