<svg width="348" height="468" viewBox="0 0 348 468" fill="none" xmlns="http://www.w3.org/2000/svg">
<g clip-path="url(#clip0_3_235)">
<rect width="348" height="468" fill="#1E1E1E"/>
<path d="M34.482 75V36.822H48.252C51.096 36.822 53.544 37.272 55.596 38.172C57.684 39.072 59.286 40.476 60.402 42.384C61.518 44.256 62.076 46.686 62.076 49.674C62.076 52.554 61.428 54.966 60.132 56.91C58.872 58.854 57.144 60.33 54.948 61.338C52.752 62.31 50.25 62.796 47.442 62.796H40.206V75H34.482ZM40.206 57.612H47.226C49.962 57.612 52.158 56.982 53.814 55.722C55.47 54.426 56.298 52.356 56.298 49.512C56.298 47.028 55.614 45.174 54.246 43.95C52.878 42.69 50.808 42.06 48.036 42.06H40.206V57.612ZM75.8549 75.324C74.5589 75.324 73.2989 75.162 72.0749 74.838C70.8869 74.478 69.8249 73.956 68.8889 73.272C67.9529 72.552 67.1969 71.67 66.6209 70.626C66.0809 69.546 65.8109 68.286 65.8109 66.846C65.8109 65.118 66.1349 63.696 66.7829 62.58C67.4669 61.428 68.3669 60.546 69.4829 59.934C70.5989 59.286 71.8769 58.836 73.3169 58.584C74.7929 58.296 76.3229 58.152 77.9069 58.152H84.8729C84.8729 56.748 84.6569 55.524 84.2249 54.48C83.7929 53.4 83.1089 52.572 82.1729 51.996C81.2729 51.384 80.0669 51.078 78.5549 51.078C77.6549 51.078 76.7909 51.186 75.9629 51.402C75.1709 51.582 74.4869 51.888 73.9109 52.32C73.3349 52.752 72.9389 53.328 72.7229 54.048H66.8909C67.1069 52.68 67.5929 51.51 68.3489 50.538C69.1049 49.53 70.0409 48.702 71.1569 48.054C72.2729 47.406 73.4609 46.938 74.7209 46.65C76.0169 46.326 77.3309 46.164 78.6629 46.164C82.7669 46.164 85.7189 47.37 87.5189 49.782C89.3549 52.158 90.2729 55.434 90.2729 59.61V75H85.4669L85.2509 71.382C84.4229 72.498 83.4329 73.344 82.2809 73.92C81.1649 74.496 80.0489 74.874 78.9329 75.054C77.8169 75.234 76.7909 75.324 75.8549 75.324ZM76.7189 70.626C78.3389 70.626 79.7609 70.356 80.9849 69.816C82.2089 69.24 83.1629 68.43 83.8469 67.386C84.5309 66.306 84.8729 65.046 84.8729 63.606V62.418H79.7969C78.7529 62.418 77.7269 62.454 76.7189 62.526C75.7469 62.562 74.8469 62.706 74.0189 62.958C73.2269 63.174 72.5789 63.552 72.0749 64.092C71.6069 64.632 71.3729 65.406 71.3729 66.414C71.3729 67.386 71.6249 68.178 72.1289 68.79C72.6329 69.402 73.2989 69.87 74.1269 70.194C74.9549 70.482 75.8189 70.626 76.7189 70.626ZM109.475 87.852C107.279 87.852 105.155 87.546 103.103 86.934C101.051 86.358 99.1789 85.332 97.4869 83.856L99.7009 79.428C100.997 80.472 102.419 81.3 103.967 81.912C105.551 82.524 107.225 82.83 108.989 82.83C111.905 82.83 114.011 82.038 115.307 80.454C116.603 78.87 117.251 76.8 117.251 74.244V71.49C116.603 72.39 115.793 73.146 114.821 73.758C113.885 74.334 112.841 74.748 111.689 75C110.537 75.288 109.367 75.432 108.179 75.432C105.407 75.432 103.193 74.874 101.537 73.758C99.9169 72.606 98.7469 71.04 98.0269 69.06C97.3429 67.08 97.0009 64.794 97.0009 62.202V46.542H102.617V60.852C102.617 62.004 102.689 63.156 102.833 64.308C102.977 65.46 103.283 66.504 103.751 67.44C104.219 68.34 104.903 69.078 105.803 69.654C106.703 70.194 107.927 70.464 109.475 70.464C111.419 70.464 112.949 69.996 114.065 69.06C115.181 68.088 115.973 66.828 116.441 65.28C116.909 63.696 117.143 61.986 117.143 60.15V46.542H122.705V73.65C122.705 75.882 122.435 77.88 121.895 79.644C121.391 81.408 120.581 82.902 119.465 84.126C118.385 85.35 117.017 86.268 115.361 86.88C113.741 87.528 111.779 87.852 109.475 87.852ZM156.83 87.852C154.634 87.852 152.51 87.546 150.458 86.934C148.406 86.358 146.534 85.332 144.842 83.856L147.056 79.428C148.352 80.472 149.774 81.3 151.322 81.912C152.906 82.524 154.58 82.83 156.344 82.83C159.26 82.83 161.366 82.038 162.662 80.454C163.958 78.87 164.606 76.8 164.606 74.244V71.49C163.958 72.39 163.148 73.146 162.176 73.758C161.24 74.334 160.196 74.748 159.044 75C157.892 75.288 156.722 75.432 155.534 75.432C152.762 75.432 150.548 74.874 148.892 73.758C147.272 72.606 146.102 71.04 145.382 69.06C144.698 67.08 144.356 64.794 144.356 62.202V46.542H149.972V60.852C149.972 62.004 150.044 63.156 150.188 64.308C150.332 65.46 150.638 66.504 151.106 67.44C151.574 68.34 152.258 69.078 153.158 69.654C154.058 70.194 155.282 70.464 156.83 70.464C158.774 70.464 160.304 69.996 161.42 69.06C162.536 68.088 163.328 66.828 163.796 65.28C164.264 63.696 164.498 61.986 164.498 60.15V46.542H170.06V73.65C170.06 75.882 169.79 77.88 169.25 79.644C168.746 81.408 167.936 82.902 166.82 84.126C165.74 85.35 164.372 86.268 162.716 86.88C161.096 87.528 159.134 87.852 156.83 87.852ZM189.53 75.324C186.578 75.324 184.076 74.73 182.024 73.542C179.972 72.318 178.406 70.608 177.326 68.412C176.282 66.216 175.76 63.678 175.76 60.798C175.76 57.882 176.3 55.344 177.38 53.184C178.46 50.988 180.026 49.278 182.078 48.054C184.13 46.794 186.632 46.164 189.584 46.164C192.536 46.164 195.038 46.794 197.09 48.054C199.142 49.278 200.69 50.988 201.734 53.184C202.778 55.38 203.3 57.936 203.3 60.852C203.3 63.696 202.76 66.216 201.68 68.412C200.636 70.608 199.088 72.318 197.036 73.542C195.02 74.73 192.518 75.324 189.53 75.324ZM189.53 70.356C191.474 70.356 193.04 69.924 194.228 69.06C195.452 68.196 196.352 67.044 196.928 65.604C197.504 64.128 197.792 62.526 197.792 60.798C197.792 59.07 197.504 57.486 196.928 56.046C196.352 54.606 195.452 53.454 194.228 52.59C193.04 51.69 191.474 51.24 189.53 51.24C187.622 51.24 186.056 51.69 184.832 52.59C183.608 53.454 182.708 54.606 182.132 56.046C181.592 57.486 181.322 59.07 181.322 60.798C181.322 62.562 181.592 64.164 182.132 65.604C182.708 67.044 183.608 68.196 184.832 69.06C186.056 69.924 187.622 70.356 189.53 70.356ZM221.211 75.324C217.215 75.324 214.155 74.28 212.031 72.192C209.943 70.068 208.899 66.846 208.899 62.526V46.542H214.461V62.202C214.461 63.894 214.695 65.352 215.163 66.576C215.667 67.8 216.423 68.736 217.431 69.384C218.439 70.032 219.717 70.356 221.265 70.356C222.885 70.356 224.181 70.032 225.153 69.384C226.161 68.7 226.881 67.746 227.313 66.522C227.781 65.298 228.015 63.858 228.015 62.202V46.542H233.577V62.526C233.577 66.918 232.497 70.158 230.337 72.246C228.213 74.298 225.171 75.324 221.211 75.324ZM240.279 75V46.542H245.517L245.787 50.646C246.507 49.53 247.335 48.648 248.271 48C249.207 47.352 250.233 46.884 251.349 46.596C252.465 46.308 253.635 46.164 254.859 46.164C255.183 46.164 255.489 46.164 255.777 46.164C256.065 46.164 256.335 46.164 256.587 46.164V51.51H254.859C252.807 51.51 251.097 51.924 249.729 52.752C248.397 53.58 247.407 54.732 246.759 56.208C246.147 57.684 245.841 59.376 245.841 61.284V75H240.279ZM36.048 129V105.51H31.512V100.542H36.048V97.68C36.048 95.52 36.354 93.774 36.966 92.442C37.614 91.074 38.604 90.066 39.936 89.418C41.304 88.77 43.086 88.446 45.282 88.446H49.008V93.36H45.93C44.814 93.36 43.932 93.558 43.284 93.954C42.672 94.314 42.24 94.872 41.988 95.628C41.736 96.348 41.61 97.23 41.61 98.274V100.542H49.008V105.51H41.61V129H36.048ZM65.6978 129.324C61.7018 129.324 58.6418 128.28 56.5178 126.192C54.4298 124.068 53.3858 120.846 53.3858 116.526V100.542H58.9478V116.202C58.9478 117.894 59.1818 119.352 59.6498 120.576C60.1538 121.8 60.9098 122.736 61.9178 123.384C62.9258 124.032 64.2038 124.356 65.7518 124.356C67.3718 124.356 68.6678 124.032 69.6398 123.384C70.6478 122.7 71.3678 121.746 71.7998 120.522C72.2678 119.298 72.5018 117.858 72.5018 116.202V100.542H78.0638V116.526C78.0638 120.918 76.9838 124.158 74.8238 126.246C72.6998 128.298 69.6578 129.324 65.6978 129.324ZM95.7813 129.324C92.7213 129.324 90.5253 128.496 89.1933 126.84C87.8973 125.148 87.2493 122.79 87.2493 119.766V105.51H82.7133V100.542H87.2493V92.28H92.8113V100.542H101.505V105.51H92.8113V118.848C92.8113 119.856 92.9013 120.774 93.0813 121.602C93.2973 122.43 93.6933 123.078 94.2693 123.546C94.8453 124.014 95.6733 124.266 96.7533 124.302C97.5813 124.302 98.3013 124.158 98.9133 123.87C99.5613 123.582 100.083 123.258 100.479 122.898L102.639 127.056C101.955 127.596 101.235 128.046 100.479 128.406C99.7593 128.73 99.0033 128.964 98.2113 129.108C97.4193 129.252 96.6093 129.324 95.7813 129.324ZM118.854 129.324C114.858 129.324 111.798 128.28 109.674 126.192C107.586 124.068 106.542 120.846 106.542 116.526V100.542H112.104V116.202C112.104 117.894 112.338 119.352 112.806 120.576C113.31 121.8 114.066 122.736 115.074 123.384C116.082 124.032 117.36 124.356 118.908 124.356C120.528 124.356 121.824 124.032 122.796 123.384C123.804 122.7 124.524 121.746 124.956 120.522C125.424 119.298 125.658 117.858 125.658 116.202V100.542H131.22V116.526C131.22 120.918 130.14 124.158 127.98 126.246C125.856 128.298 122.814 129.324 118.854 129.324ZM137.922 129V100.542H143.16L143.43 104.646C144.15 103.53 144.978 102.648 145.914 102C146.85 101.352 147.876 100.884 148.992 100.596C150.108 100.308 151.278 100.164 152.502 100.164C152.826 100.164 153.132 100.164 153.42 100.164C153.708 100.164 153.978 100.164 154.23 100.164V105.51H152.502C150.45 105.51 148.74 105.924 147.372 106.752C146.04 107.58 145.05 108.732 144.402 110.208C143.79 111.684 143.484 113.376 143.484 115.284V129H137.922ZM170.436 129.324C167.448 129.324 164.946 128.712 162.93 127.488C160.914 126.264 159.384 124.572 158.34 122.412C157.332 120.216 156.828 117.696 156.828 114.852C156.828 111.972 157.35 109.434 158.394 107.238C159.474 105.042 161.022 103.314 163.038 102.054C165.09 100.794 167.556 100.164 170.436 100.164C172.632 100.164 174.54 100.578 176.16 101.406C177.78 102.198 179.112 103.278 180.156 104.646C181.236 106.014 182.028 107.544 182.532 109.236C183.036 110.892 183.252 112.62 183.18 114.42C183.18 114.816 183.162 115.194 183.126 115.554C183.09 115.914 183.054 116.292 183.018 116.688H162.444C162.552 118.128 162.912 119.442 163.524 120.63C164.172 121.818 165.072 122.772 166.224 123.492C167.376 124.176 168.798 124.518 170.49 124.518C171.426 124.518 172.326 124.41 173.19 124.194C174.09 123.942 174.882 123.564 175.566 123.06C176.286 122.52 176.79 121.836 177.078 121.008H182.694C182.226 122.916 181.38 124.5 180.156 125.76C178.968 126.984 177.51 127.884 175.782 128.46C174.09 129.036 172.308 129.324 170.436 129.324ZM162.552 112.26H177.672C177.636 110.856 177.312 109.614 176.7 108.534C176.088 107.418 175.242 106.554 174.162 105.942C173.082 105.294 171.786 104.97 170.274 104.97C168.618 104.97 167.232 105.312 166.116 105.996C165.036 106.68 164.19 107.58 163.578 108.696C163.002 109.776 162.66 110.964 162.552 112.26ZM214.372 129.324C213.04 129.324 211.708 129.198 210.376 128.946C209.044 128.694 207.802 128.244 206.65 127.596C205.498 126.948 204.526 126.084 203.734 125.004C202.942 123.888 202.438 122.52 202.222 120.9H207.892C208.18 121.764 208.684 122.466 209.404 123.006C210.16 123.546 210.988 123.942 211.888 124.194C212.824 124.446 213.742 124.572 214.642 124.572C215.182 124.572 215.776 124.536 216.424 124.464C217.108 124.392 217.756 124.23 218.368 123.978C218.98 123.726 219.484 123.366 219.88 122.898C220.276 122.394 220.474 121.728 220.474 120.9C220.474 120.252 220.294 119.712 219.934 119.28C219.61 118.848 219.142 118.506 218.53 118.254C217.954 117.966 217.252 117.75 216.424 117.606C214.804 117.246 213.058 116.904 211.186 116.58C209.35 116.22 207.73 115.608 206.326 114.744C205.822 114.42 205.372 114.06 204.976 113.664C204.58 113.232 204.238 112.746 203.95 112.206C203.662 111.666 203.446 111.09 203.302 110.478C203.158 109.866 203.086 109.2 203.086 108.48C203.086 107.004 203.374 105.744 203.95 104.7C204.562 103.656 205.39 102.81 206.434 102.162C207.478 101.478 208.666 100.974 209.998 100.65C211.33 100.326 212.734 100.164 214.21 100.164C216.118 100.164 217.846 100.47 219.394 101.082C220.942 101.694 222.22 102.594 223.228 103.782C224.236 104.97 224.83 106.464 225.01 108.264H219.772C219.556 107.292 218.926 106.518 217.882 105.942C216.874 105.33 215.596 105.024 214.048 105.024C213.508 105.024 212.914 105.06 212.266 105.132C211.654 105.204 211.06 105.366 210.484 105.618C209.908 105.87 209.44 106.23 209.08 106.698C208.72 107.13 208.54 107.706 208.54 108.426C208.54 109.11 208.702 109.686 209.026 110.154C209.386 110.622 209.89 111 210.538 111.288C211.222 111.576 211.996 111.81 212.86 111.99C214.084 112.278 215.398 112.548 216.802 112.8C218.242 113.052 219.412 113.322 220.312 113.61C221.5 113.934 222.508 114.402 223.336 115.014C224.2 115.626 224.848 116.4 225.28 117.336C225.748 118.272 225.982 119.406 225.982 120.738C225.982 122.466 225.64 123.888 224.956 125.004C224.272 126.084 223.354 126.948 222.202 127.596C221.086 128.244 219.826 128.694 218.422 128.946C217.054 129.198 215.704 129.324 214.372 129.324ZM243.789 129.324C240.801 129.324 238.299 128.712 236.283 127.488C234.267 126.264 232.737 124.572 231.693 122.412C230.685 120.216 230.181 117.696 230.181 114.852C230.181 111.972 230.703 109.434 231.747 107.238C232.827 105.042 234.375 103.314 236.391 102.054C238.443 100.794 240.909 100.164 243.789 100.164C245.985 100.164 247.893 100.578 249.513 101.406C251.133 102.198 252.465 103.278 253.509 104.646C254.589 106.014 255.381 107.544 255.885 109.236C256.389 110.892 256.605 112.62 256.533 114.42C256.533 114.816 256.515 115.194 256.479 115.554C256.443 115.914 256.407 116.292 256.371 116.688H235.797C235.905 118.128 236.265 119.442 236.877 120.63C237.525 121.818 238.425 122.772 239.577 123.492C240.729 124.176 242.151 124.518 243.843 124.518C244.779 124.518 245.679 124.41 246.543 124.194C247.443 123.942 248.235 123.564 248.919 123.06C249.639 122.52 250.143 121.836 250.431 121.008H256.047C255.579 122.916 254.733 124.5 253.509 125.76C252.321 126.984 250.863 127.884 249.135 128.46C247.443 129.036 245.661 129.324 243.789 129.324ZM235.905 112.26H251.025C250.989 110.856 250.665 109.614 250.053 108.534C249.441 107.418 248.595 106.554 247.515 105.942C246.435 105.294 245.139 104.97 243.627 104.97C241.971 104.97 240.585 105.312 239.469 105.996C238.389 106.68 237.543 107.58 236.931 108.696C236.355 109.776 236.013 110.964 235.905 112.26ZM262.269 129V90.822H267.831V129H262.269ZM277.361 129V105.51H272.825V100.542H277.361V97.68C277.361 95.52 277.667 93.774 278.279 92.442C278.927 91.074 279.917 90.066 281.249 89.418C282.617 88.77 284.399 88.446 286.595 88.446H290.321V93.36H287.243C286.127 93.36 285.245 93.558 284.597 93.954C283.985 94.314 283.553 94.872 283.301 95.628C283.049 96.348 282.923 97.23 282.923 98.274V100.542H290.321V105.51H282.923V129H277.361Z" fill="#585858"/>
<path d="M-22.6153 189.926C-27.6758 194.781 -32.2413 200.073 -36.277 205.765C-36.2786 205.767 -36.2802 205.77 -36.2819 205.772L-36.306 205.806C-56.428 234.213 -63.3605 272.565 -52.7756 316.205C-28.6418 415.706 77.4177 505.021 184.115 515.695C244.015 521.688 291.383 501.621 317.139 465.259C321.16 459.583 324.655 453.509 327.588 447.075C300.343 473.214 258.753 486.683 208.254 481.631C101.557 470.957 -4.5025 381.642 -28.6363 282.141C-37.106 247.221 -34.3599 215.688 -22.6153 189.926Z" fill="#1A1A1A"/>
<path d="M-12.6263 170.172C13.5873 133.9 61.1897 114.072 120.992 120.055C174.654 125.424 228.087 150.555 271.12 186.793C314.151 223.031 346.875 270.454 359.016 320.509C369.669 364.429 362.717 403.156 342.353 431.904C342.346 431.915 342.336 431.926 342.328 431.938L342.329 431.938L318.214 465.969C292.134 502.787 244.254 522.975 183.981 516.945C130.318 511.576 76.8853 486.446 33.8528 450.208C-9.17879 413.97 -41.9016 366.547 -54.0425 316.492C-64.6953 272.571 -57.7434 233.844 -37.38 205.097L-37.3515 205.056L-37.3505 205.055L-13.2415 171.032L-12.6263 170.172ZM-26.4283 195.642C-29.2918 198.748 -31.9674 202.012 -34.4484 205.425L-35.2029 206.475C-35.2034 206.476 -35.2042 206.477 -35.2049 206.478C-35.2056 206.479 -35.207 206.481 -35.208 206.482L-35.2314 206.515C-55.112 234.582 -62.0254 272.558 -51.5084 315.919C-39.5154 365.364 -7.14145 412.35 35.5642 448.313C78.2693 484.276 131.215 509.14 184.249 514.445C243.313 520.354 289.899 500.765 315.465 465.389L316.065 464.55C318.779 460.718 321.25 456.702 323.469 452.515C295.939 475.953 255.928 487.663 208.12 482.88C154.458 477.512 101.025 452.381 57.9924 416.143C14.9607 379.905 -17.7631 332.483 -29.904 282.427C-37.7603 250.037 -36.0441 220.47 -26.4283 195.642ZM96.5847 156.62C46.5035 151.61 5.395 164.937 -21.5239 190.651C-33.0538 216.086 -35.7605 247.256 -27.3689 281.854C-15.3759 331.3 16.998 378.285 59.7038 414.248C102.409 450.211 155.354 475.075 208.389 480.381C258.469 485.391 299.575 472.063 326.494 446.349C338.024 420.914 340.733 389.744 332.341 355.147C320.348 305.701 287.975 258.715 245.27 222.751C202.565 186.789 149.619 161.926 96.5847 156.62ZM120.723 122.555C61.195 116.6 14.3414 136.546 -11.0919 172.451C-13.8063 176.283 -16.279 180.298 -18.4977 184.486C9.03264 161.047 49.045 149.337 96.8531 154.12C150.515 159.488 203.949 184.619 246.981 220.858C290.013 257.096 322.736 304.518 334.876 354.574C342.733 386.964 341.014 416.53 331.399 441.358C334.557 437.932 337.489 434.316 340.18 430.519L340.204 430.486L341.126 429.162C360.296 401.231 366.833 363.765 356.481 321.082C344.488 271.636 312.114 224.65 269.408 188.687C226.703 152.724 173.758 127.861 120.723 122.555Z" fill="#141414"/>
<path d="M211.928 516.607C210.873 516.647 209.812 516.678 208.747 516.701L231.966 482.653C233.028 482.636 234.085 482.61 235.137 482.575L211.928 516.607Z" fill="#141414"/>
<path d="M203.568 481.11C204.531 481.227 205.493 481.335 206.456 481.44L183.259 515.604C182.294 515.504 181.329 515.397 180.364 515.284L203.568 481.11Z" fill="#141414"/>
<path d="M244.082 512.356C242.867 512.642 241.642 512.915 240.407 513.175L263.49 479.327C264.717 479.078 265.935 478.817 267.143 478.542L244.082 512.356Z" fill="#141414"/>
<path d="M176.844 476.255C177.739 476.471 178.634 476.681 179.53 476.886L156.177 511.131C155.279 510.928 154.382 510.719 153.485 510.506L176.844 476.255Z" fill="#141414"/>
<path d="M152.641 469.133C153.483 469.426 154.326 469.714 155.17 469.998L131.685 504.283C130.84 504.001 129.996 503.715 129.152 503.424L152.641 469.133Z" fill="#141414"/>
<path d="M284.682 495.721C282.975 496.789 281.233 497.821 279.455 498.814L302.143 465.548C303.879 464.608 305.584 463.632 307.255 462.621L284.682 495.721Z" fill="#141414"/>
<path d="M129.65 459.962C130.445 460.321 131.242 460.676 132.04 461.027L108.522 495.363C107.723 495.013 106.925 494.659 106.128 494.302L129.65 459.962Z" fill="#141414"/>
<path d="M107.873 449.017C108.628 449.436 109.384 449.851 110.141 450.263L86.5882 484.648C85.8299 484.237 85.0728 483.824 84.3176 483.407L107.873 449.017Z" fill="#141414"/>
<path d="M87.719 436.781C88.4354 437.254 89.1536 437.725 89.8738 438.192L66.3637 472.666C65.6423 472.2 64.9225 471.732 64.2049 471.26L87.719 436.781Z" fill="#141414"/>
<path d="M67.9134 422.54C68.5915 423.069 69.2717 423.595 69.9543 424.119L46.4788 458.693C45.7951 458.171 45.114 457.647 44.4349 457.12L67.9134 422.54Z" fill="#141414"/>
<path d="M48.9121 406.459C49.5505 407.045 50.1914 407.629 50.835 408.21L27.2589 442.78C26.6139 442.2 25.9716 441.618 25.3319 441.034L48.9121 406.459Z" fill="#141414"/>
<path d="M31.484 389.116C32.0815 389.761 32.6821 390.403 33.2859 391.044L9.67412 425.668C9.06888 425.029 8.46712 424.388 7.86816 423.745L31.484 389.116Z" fill="#141414"/>
<path d="M15.2537 370.018C15.8059 370.728 16.3615 371.437 16.9214 372.143L-6.72903 406.821C-7.29015 406.118 -7.84821 405.412 -8.40179 404.704L15.2537 370.018Z" fill="#141414"/>
<path d="M0.587357 349.226C1.08677 350.011 1.58971 350.794 2.09843 351.575L-21.6465 386.24C-22.1567 385.462 -22.6618 384.681 -23.1627 383.899L0.587357 349.226Z" fill="#141414"/>
<path d="M-12.6269 325.779C-12.1937 326.658 -11.7531 327.535 -11.308 328.411L-35.1028 363.15C-35.55 362.277 -35.9914 361.402 -36.4268 360.526L-12.6269 325.779Z" fill="#141414"/>
<path d="M-23.7006 299.108C-23.3575 300.12 -23.0066 301.131 -22.6471 302.141L-46.4389 337.181C-46.8021 336.177 -47.1555 335.17 -47.5025 334.163L-23.7006 299.108Z" fill="#141414"/>
<path d="M-31.62 267.159C-31.4306 268.379 -31.2266 269.603 -31.0089 270.833L-54.9603 305.953C-55.184 304.732 -55.3928 303.516 -55.5887 302.305L-31.62 267.159Z" fill="#141414"/>
<path d="M-32.525 225.588C-32.744 227.366 -32.9284 229.16 -33.0782 230.97L-57.3347 266.536C-57.2073 264.762 -57.046 263.004 -56.8527 261.261L-32.525 225.588Z" fill="#141414"/>
<path d="M357.748 320.796C381.882 420.297 314.951 492.305 208.254 481.631C101.557 470.957 -4.5025 381.642 -28.6363 282.141C-52.7702 182.639 14.1606 110.631 120.858 121.305C227.555 131.98 333.614 221.294 357.748 320.796Z" fill="#1E1E1E"/>
<path d="M355.158 320.537C331.36 222.418 226.75 134.287 121.451 123.752C16.1515 113.218 -49.8456 184.281 -26.0469 282.4C-2.24808 380.519 102.361 468.649 207.66 479.184L208.254 481.631C101.974 470.998 -3.67354 382.339 -28.3496 283.307L-28.6363 282.141C-52.7702 182.639 14.1606 110.631 120.858 121.305C227.555 131.98 333.614 221.294 357.748 320.796L358.027 321.961C381.359 420.858 314.534 492.263 208.254 481.631L207.66 479.184C312.96 489.718 378.957 418.656 355.158 320.537Z" fill="#141414"/>
<path d="M331.355 318.155C334.225 329.99 335.604 341.375 335.606 352.185V366.977C335.604 356.167 334.225 344.783 331.355 332.947V318.155Z" fill="#1A1A1A"/>
<path d="M126.828 145.919C47.3985 137.972 -6.50561 183.098 -6.49382 250.751V265.499C-6.48203 197.87 47.4158 152.766 126.828 160.711C218.948 169.927 310.518 247.04 331.355 332.947V318.155C310.518 232.248 218.948 155.135 126.828 145.919Z" fill="#1A1A1A"/>
<path d="M334.304 366.978L334.299 365.972C334.215 355.565 332.848 344.615 330.088 333.234C319.743 290.585 291.816 250.048 254.967 219.017C218.119 187.986 172.44 166.538 126.694 161.961C87.269 158.017 54.3083 167.25 31.223 185.732C8.1468 204.208 -5.18639 232.022 -5.19223 265.499V265.544H-7.79542V250.751C-7.80119 216.587 5.81604 188.024 29.5451 169.018C53.2654 150.019 86.9661 140.667 126.961 144.668C173.336 149.308 219.503 171.024 256.679 202.331C293.854 233.637 322.129 274.61 332.622 317.869C335.513 329.791 336.905 341.272 336.907 352.185V366.978C336.906 367.671 336.325 368.234 335.606 368.234C334.932 368.234 334.378 367.74 334.311 367.106L334.304 366.978ZM332.656 332.804C332.836 333.546 333.008 334.287 333.176 335.026C333.019 333.806 332.847 332.58 332.656 331.348V332.804ZM126.694 147.169C87.2604 143.224 54.2938 152.461 31.2077 170.952C11.2781 186.915 -1.3795 209.845 -4.45805 237.374C0.934963 215.635 12.694 197.302 29.5614 183.798C53.2808 164.807 86.975 155.46 126.961 159.46C173.336 164.1 219.503 185.816 256.679 217.123C291.151 246.153 317.969 283.497 330.053 323.267V318.303C319.682 275.705 291.776 235.222 254.967 204.224C218.119 173.194 172.44 151.745 126.694 147.169Z" fill="#141414"/>
<path d="M357.748 320.796C381.882 420.297 314.951 492.305 208.254 481.631C101.557 470.957 -4.5025 381.642 -28.6363 282.141C-52.7702 182.639 14.1606 110.631 120.858 121.305C227.555 131.98 333.614 221.294 357.748 320.796ZM-2.24296 284.781C18.5938 370.689 110.164 447.802 202.284 457.018C294.405 466.234 352.191 404.063 331.355 318.155C310.518 232.248 218.948 155.135 126.828 145.919C34.7072 136.703 -23.0797 198.873 -2.24296 284.781Z" fill="#1E1E1E"/>
<path d="M356.453 320.666C332.487 221.856 227.153 133.133 121.154 122.529C15.156 111.924 -51.3078 183.46 -27.3416 282.271C-3.37515 381.081 101.959 469.803 207.957 480.407C313.955 491.012 380.419 419.476 356.453 320.666ZM330.06 318.026C309.391 232.809 218.546 156.288 127.124 147.142C35.7027 137.996 -21.6178 199.694 -0.948677 284.911C19.7207 370.127 110.566 446.647 201.987 455.794C293.409 464.94 350.729 403.242 330.06 318.026ZM332.649 318.285C353.653 404.883 295.4 467.526 202.581 458.241C109.762 448.955 17.4665 371.25 -3.538 284.652C-24.5423 198.053 33.7116 135.41 126.531 144.695C219.35 153.981 311.645 231.687 332.649 318.285ZM359.042 320.926C383.343 421.117 315.946 493.598 208.551 482.854C101.155 472.11 -5.6293 382.203 -29.9309 282.012C-54.2323 181.819 13.1649 109.338 120.561 120.082C227.957 130.826 334.741 220.733 359.042 320.926Z" fill="#141414"/>
<path fill-rule="evenodd" clip-rule="evenodd" d="M277.941 357.573L272.463 368.416C270.091 373.111 263.766 374.825 257.109 372.392C258.025 375.516 257.832 378.515 256.632 380.889L251.155 391.731C249.461 395.083 245.76 397.189 240.344 396.639L176.449 390.156C168.251 389.324 160.098 382.348 158.239 374.575L154.614 359.418C153.921 356.517 154.201 353.915 155.252 351.836L160.73 340.994C161.308 339.85 162.12 338.864 163.13 338.074C155.24 336.85 147.603 330.099 145.811 322.608L137.526 287.963C136.833 285.062 137.114 282.46 138.164 280.381L143.642 269.539C144.215 268.405 145.017 267.427 146.015 266.641L135.562 265.58C134.068 265.428 132.547 265.066 131.047 264.514C131.138 264.813 131.219 265.113 131.291 265.412L142.154 310.839C142.848 313.74 142.567 316.342 141.516 318.421L136.039 329.263C135.394 330.539 134.458 331.619 133.28 332.449C134.141 332.324 135.084 332.306 136.106 332.409C142.449 333.053 148.757 338.45 150.196 344.465C150.754 346.798 150.529 348.779 149.743 350.336L149.597 350.609L149.575 350.647L144.265 361.178C141.782 366.095 133.694 366.787 126.952 361.018C121.711 356.534 120.373 350.789 122.263 347.049L127.741 336.207C128.156 335.386 128.727 334.661 129.446 334.068C128.154 334.335 126.73 334.405 125.199 334.249L109.213 332.627C101.015 331.796 92.8624 324.82 91.0035 317.047L76.5153 256.463C75.7941 253.447 76.0849 250.886 77.1013 248.874L82.5783 238.033C84.95 233.338 91.276 231.624 97.9326 234.057C97.0163 230.933 97.2097 227.934 98.4093 225.56L103.887 214.718C105.581 211.366 109.282 209.26 114.697 209.81L178.593 216.293C186.791 217.125 194.944 224.101 196.803 231.874L200.427 247.031C201.121 249.932 200.84 252.534 199.789 254.613L194.312 265.455C193.733 266.599 192.922 267.585 191.911 268.375C199.801 269.599 207.439 276.35 209.23 283.841L217.515 318.486C218.209 321.387 217.928 323.989 216.877 326.068L211.403 336.902C210.83 338.036 210.024 339.022 209.026 339.808L219.48 340.869C220.974 341.021 222.495 341.383 223.995 341.935C223.904 341.635 223.822 341.336 223.751 341.037L212.887 295.61C212.193 292.709 212.474 290.107 213.525 288.028L219.003 277.186C219.648 275.91 220.583 274.83 221.762 274C220.901 274.125 219.958 274.143 218.936 274.04C212.592 273.396 206.284 267.999 204.846 261.984C204.288 259.651 204.513 257.669 205.299 256.112L210.776 245.271C213.26 240.354 221.348 239.662 228.089 245.431C233.33 249.915 234.668 255.66 232.778 259.4L227.304 270.235C226.889 271.056 226.315 271.788 225.596 272.381C226.888 272.114 228.312 272.044 229.843 272.2L245.828 273.822C254.026 274.653 262.179 281.629 264.038 289.402L278.526 349.986C279.247 353.002 278.957 355.561 277.941 357.573Z" fill="#1A1A1A"/>
<path d="M102.717 214.167C104.689 210.266 108.964 207.965 114.833 208.561L178.729 215.044C183.147 215.492 187.48 217.582 190.938 220.54C194.396 223.499 197.07 227.404 198.071 231.591L201.695 246.748C202.398 249.686 202.193 252.421 201.174 254.712L200.959 255.163L195.481 266.006C195.187 266.588 194.836 267.133 194.438 267.642C197.839 268.6 201.068 270.454 203.74 272.834C207.015 275.749 209.533 279.523 210.498 283.559L211.772 288.883C211.933 288.397 212.127 287.927 212.355 287.477L217.833 276.635C218.075 276.156 218.353 275.701 218.665 275.272C215.221 274.89 211.865 273.257 209.188 270.967C206.475 268.646 204.369 265.574 203.578 262.267C202.966 259.707 203.189 257.423 204.13 255.561L209.607 244.72C211.107 241.751 214.256 240.162 217.808 240.088C221.358 240.013 225.375 241.429 228.953 244.49C234.474 249.215 236.176 255.542 233.949 259.951L228.475 270.786C228.461 270.812 228.445 270.838 228.431 270.864C228.937 270.87 229.453 270.897 229.979 270.95L245.965 272.572C250.383 273.02 254.716 275.11 258.173 278.068C261.631 281.027 264.305 284.933 265.306 289.12L279.794 349.704C280.569 352.945 280.281 355.807 279.111 358.124L273.633 368.967C271.146 373.89 265.116 375.744 258.834 374.227C259.21 376.826 258.872 379.324 257.802 381.44L252.324 392.282C250.353 396.183 246.077 398.484 240.208 397.889L176.312 391.405C171.894 390.957 167.561 388.867 164.104 385.908C160.646 382.95 157.972 379.045 156.97 374.858L153.346 359.7C152.597 356.567 152.88 353.664 154.082 351.285L159.559 340.445L159.561 340.442C159.856 339.86 160.205 339.314 160.603 338.806C157.202 337.847 153.974 335.994 151.301 333.615C148.027 330.7 145.508 326.927 144.543 322.891L143.269 317.564C143.161 317.89 143.039 318.209 142.901 318.52L142.686 318.972L137.208 329.814C136.966 330.293 136.687 330.747 136.375 331.176C139.819 331.559 143.176 333.192 145.854 335.483C148.566 337.804 150.673 340.875 151.464 344.183C152.075 346.737 151.853 349.016 150.917 350.876V350.878L150.913 350.887C150.908 350.895 150.903 350.904 150.899 350.912L150.753 351.186L150.752 351.185C150.747 351.194 150.744 351.203 150.739 351.212C150.738 351.213 150.737 351.214 150.736 351.215L150.727 351.231L145.436 361.729C143.936 364.698 140.786 366.287 137.234 366.361C133.683 366.435 129.667 365.021 126.089 361.959C120.568 357.235 118.866 350.906 121.094 346.498L126.571 335.656L126.572 335.654C126.584 335.63 126.597 335.607 126.61 335.583C126.104 335.578 125.588 335.552 125.063 335.499L109.078 333.877C104.66 333.429 100.326 331.339 96.8681 328.381C93.4102 325.422 90.7371 321.517 89.7358 317.33L75.2474 256.746C74.4722 253.504 74.7615 250.641 75.9317 248.324L81.4086 237.482C83.8955 232.559 89.9247 230.706 96.2061 232.221C95.8308 229.623 96.17 227.125 97.2393 225.009L102.717 214.167ZM114.562 211.06C109.599 210.556 106.473 212.466 105.057 215.269L99.5791 226.11C98.5456 228.156 98.3393 230.829 99.1856 233.714C99.3194 234.171 99.1746 234.662 98.8124 234.983C98.4502 235.303 97.9318 235.4 97.4721 235.232C91.1836 232.934 85.7172 234.687 83.7484 238.585L78.2716 249.425C77.4093 251.133 77.1164 253.391 77.7835 256.18L92.2719 316.764C93.1295 320.35 95.4622 323.819 98.5948 326.5C101.727 329.18 105.569 330.994 109.349 331.378L125.334 332.999C126.742 333.142 128.028 333.076 129.173 332.839C129.756 332.719 130.349 332.995 130.613 333.511C130.877 334.026 130.744 334.649 130.292 335.023C129.714 335.499 129.251 336.084 128.911 336.757L123.433 347.6C121.881 350.671 122.855 355.834 127.816 360.078C130.979 362.785 134.377 363.907 137.177 363.849C139.975 363.79 142.111 362.575 143.095 360.627L148.284 350.335L148.262 350.321C148.264 350.318 148.267 350.313 148.27 350.309C148.328 350.22 148.384 350.13 148.437 350.038L148.455 350.006L148.58 349.77C149.207 348.519 149.43 346.846 148.928 344.747C148.28 342.041 146.514 339.405 144.127 337.363C141.74 335.32 138.822 333.949 135.97 333.659C135.047 333.565 134.215 333.584 133.473 333.692C132.881 333.777 132.304 333.462 132.076 332.927C131.849 332.392 132.028 331.775 132.513 331.434C133.518 330.725 134.316 329.806 134.869 328.712L140.346 317.87C141.246 316.09 141.525 313.79 140.886 311.122L130.023 265.695C129.957 265.42 129.882 265.144 129.798 264.868C129.659 264.41 129.801 263.916 130.164 263.592C130.526 263.268 131.048 263.17 131.51 263.34C132.914 263.856 134.326 264.191 135.697 264.33L146.152 265.391C146.674 265.444 147.112 265.796 147.262 266.282C147.412 266.768 147.245 267.293 146.838 267.614C145.988 268.284 145.303 269.117 144.812 270.088L144.813 270.089L144.811 270.092L139.335 280.933C138.436 282.712 138.157 285.013 138.795 287.681L147.08 322.326C147.907 325.781 150.102 329.128 153.067 331.767C156.031 334.406 159.685 336.267 163.337 336.834C163.844 336.913 164.256 337.272 164.388 337.751C164.521 338.23 164.348 338.739 163.949 339.051C163.195 339.64 162.571 340.357 162.094 341.184L161.9 341.545L156.422 352.387C155.523 354.166 155.244 356.468 155.882 359.136L159.507 374.292C160.365 377.878 162.698 381.347 165.83 384.028C168.963 386.708 172.805 388.523 176.585 388.907L240.48 395.39C245.442 395.893 248.568 393.983 249.985 391.18L255.462 380.338C256.496 378.293 256.703 375.62 255.857 372.734C255.723 372.278 255.867 371.788 256.229 371.467C256.591 371.146 257.11 371.05 257.569 371.218C263.858 373.516 269.324 371.763 271.293 367.865L276.771 357.022C277.633 355.315 277.925 353.058 277.258 350.268L262.77 289.684C261.912 286.098 259.579 282.629 256.447 279.949C253.314 277.269 249.472 275.454 245.692 275.071L229.707 273.449C228.3 273.306 227.014 273.373 225.868 273.61C225.286 273.731 224.693 273.453 224.429 272.938C224.165 272.422 224.297 271.8 224.75 271.426C225.326 270.95 225.794 270.358 226.135 269.683L231.609 258.85C233.16 255.779 232.187 250.616 227.226 246.371C224.062 243.665 220.664 242.541 217.865 242.6C215.067 242.658 212.93 243.874 211.946 245.822L206.47 256.662C205.837 257.914 205.61 259.594 206.114 261.701C206.761 264.408 208.527 267.043 210.914 269.086C213.302 271.128 216.219 272.501 219.072 272.791C219.995 272.884 220.827 272.865 221.568 272.757C222.161 272.671 222.738 272.988 222.965 273.523C223.193 274.058 223.013 274.674 222.529 275.015C221.523 275.724 220.726 276.644 220.173 277.737L214.695 288.579C213.796 290.358 213.517 292.659 214.155 295.327L225.019 340.754C225.085 341.029 225.159 341.305 225.243 341.58C225.382 342.038 225.241 342.533 224.878 342.858C224.515 343.181 223.993 343.279 223.532 343.109C222.127 342.593 220.715 342.257 219.344 342.118L208.89 341.058C208.367 341.005 207.93 340.654 207.779 340.168C207.629 339.682 207.796 339.155 208.203 338.835C209.053 338.165 209.742 337.324 210.234 336.351L215.708 325.517C216.607 323.738 216.885 321.436 216.247 318.768L207.962 284.123C207.136 280.668 204.939 277.32 201.975 274.681C199.011 272.042 195.356 270.182 191.705 269.616C191.198 269.537 190.787 269.178 190.654 268.699C190.522 268.22 190.693 267.71 191.092 267.398C191.954 266.725 192.646 265.884 193.141 264.904L198.619 254.062L198.781 253.722C199.55 251.994 199.757 249.815 199.159 247.314L195.534 232.156C194.677 228.57 192.344 225.101 189.211 222.421C186.079 219.741 182.237 217.927 178.457 217.543L114.562 211.06ZM218.629 325.211C218.521 325.537 218.399 325.856 218.261 326.167L218.047 326.618L212.574 337.453L212.573 337.452L212.572 337.456L212.571 337.455C212.329 337.934 212.05 338.389 211.737 338.82L219.616 339.619C220.47 339.706 221.328 339.857 222.182 340.066L218.629 325.211ZM136.411 281.238C136.572 280.751 136.767 280.281 136.995 279.83L142.472 268.988L142.73 268.51C142.906 268.205 143.097 267.911 143.303 267.628L135.426 266.83C134.572 266.743 133.713 266.591 132.858 266.382L136.411 281.238Z" fill="#141414"/>
<path fill-rule="evenodd" clip-rule="evenodd" d="M230.962 346.056C227.547 343.134 223.417 341.268 219.48 340.869L171.57 336.008C163.372 335.176 158.233 340.803 160.092 348.576L163.717 363.733C165.576 371.506 173.728 378.482 181.926 379.314L245.822 385.797C259.046 387.139 262.044 372.651 250.572 362.835L230.962 346.056ZM150.196 344.465C148.757 338.45 142.449 333.053 136.106 332.409C125.873 331.371 123.554 342.581 132.43 350.176C141.306 357.771 152.516 354.167 150.196 344.465ZM264.038 289.402C262.179 281.629 254.026 274.653 245.828 273.822L229.843 272.2C221.645 271.368 216.506 276.995 218.365 284.768L229.228 330.195C230.121 333.927 232.541 337.666 235.956 340.588L255.566 357.367C267.038 367.182 281.525 362.525 278.526 349.986L264.038 289.402ZM131.291 265.412C130.398 261.679 127.978 257.941 124.563 255.019L104.953 238.24C93.4816 228.425 78.9945 233.082 81.9931 245.621L96.4813 306.205C98.3401 313.978 106.493 320.953 114.691 321.785L130.676 323.407C138.874 324.239 144.013 318.612 142.154 310.839L131.291 265.412ZM209.23 283.841C207.371 276.068 199.219 269.092 191.021 268.26L154.482 264.553C146.284 263.721 141.145 269.348 143.004 277.121L151.289 311.766C153.148 319.539 161.301 326.515 169.499 327.347L206.037 331.054C214.235 331.886 219.374 326.259 217.515 318.486L209.23 283.841ZM196.803 231.874C194.944 224.101 186.791 217.125 178.593 216.293L114.697 209.81C101.473 208.468 98.4756 222.956 109.947 232.771L129.557 249.551C132.972 252.472 137.103 254.338 141.039 254.738L188.949 259.599C197.147 260.431 202.286 254.804 200.427 247.031L196.803 231.874ZM224.414 263.198C234.646 264.236 236.965 253.025 228.089 245.431C219.213 237.836 208.003 241.439 210.323 251.142C211.762 257.156 218.07 262.554 224.414 263.198Z" fill="#1E1E1E"/>
<path d="M219.187 339.644C223.468 340.079 227.959 342.108 231.672 345.285L251.282 362.064C263.746 372.728 260.498 388.48 246.115 387.021L182.219 380.538C173.303 379.633 164.442 372.048 162.422 363.601L158.797 348.444C156.777 339.998 162.361 333.879 171.277 334.783L219.187 339.644ZM148.902 344.334C147.624 338.993 142.024 334.204 136.398 333.633C127.325 332.713 125.257 342.659 133.14 349.404C141.01 356.139 150.962 352.951 148.902 344.334ZM262.744 289.271C261.046 282.171 253.601 275.805 246.121 275.046L230.136 273.424C222.656 272.665 217.961 277.799 219.659 284.899L230.523 330.326C231.338 333.735 233.548 337.149 236.665 339.816L256.276 356.596C266.741 365.55 279.971 361.308 277.232 349.854L262.744 289.271ZM95.1867 306.073L80.6986 245.489C77.4405 231.865 93.1858 226.793 105.663 237.469L125.273 254.248C128.985 257.424 131.616 261.487 132.586 265.544L143.449 310.97C145.469 319.417 139.885 325.536 130.969 324.631L114.984 323.009C106.068 322.105 97.2066 314.519 95.1867 306.073ZM207.935 283.71C206.237 276.61 198.794 270.244 191.314 269.485L154.775 265.777C147.295 265.018 142.6 270.153 144.298 277.252L152.583 311.897C154.281 318.997 161.726 325.363 169.206 326.122L205.745 329.829C213.225 330.588 217.918 325.454 216.22 318.354L207.935 283.71ZM195.508 231.742C193.81 224.643 186.366 218.277 178.886 217.518L114.99 211.034C102.925 209.81 100.178 223.034 110.657 232L130.267 248.778C133.384 251.446 137.154 253.149 140.747 253.513L188.657 258.375C196.137 259.133 200.83 253.999 199.132 246.899L195.508 231.742ZM209.029 251.011C206.449 240.223 218.917 236.204 228.798 244.659C238.667 253.103 236.098 265.578 224.706 264.422C217.645 263.705 210.628 257.698 209.029 251.011ZM165.011 363.864C166.709 370.964 174.153 377.33 181.633 378.089L245.529 384.572C257.594 385.796 260.341 372.573 249.863 363.607L230.253 346.828C227.135 344.161 223.365 342.458 219.773 342.093L171.862 337.232C164.383 336.473 159.688 341.607 161.386 348.707L165.011 363.864ZM151.491 344.597C154.07 355.384 141.602 359.403 131.72 350.948C121.852 342.504 124.421 330.029 135.812 331.185C142.874 331.901 149.891 337.909 151.491 344.597ZM218.809 318.617C220.829 327.063 215.246 333.182 206.33 332.278L169.791 328.57C160.875 327.666 152.014 320.081 149.994 311.634L141.709 276.99C139.689 268.543 145.273 262.424 154.189 263.329L190.728 267.036C199.644 267.941 208.504 275.526 210.524 283.972L218.809 318.617ZM279.821 350.117C283.079 363.741 267.334 368.814 254.857 358.139L235.246 341.36C231.534 338.183 228.904 334.119 227.934 330.063L217.07 284.636C215.05 276.19 220.634 270.071 229.55 270.975L245.536 272.597C254.452 273.502 263.313 281.087 265.333 289.534L279.821 350.117ZM97.7757 306.336C99.4735 313.435 106.918 319.802 114.398 320.561L130.384 322.183C137.864 322.942 142.558 317.807 140.86 310.707L129.997 265.281C129.181 261.872 126.972 258.458 123.854 255.79L104.244 239.012C93.7782 230.057 80.5484 234.298 83.2876 245.752L97.7757 306.336ZM211.618 251.273C212.895 256.614 218.495 261.402 224.12 261.973C233.194 262.894 235.263 252.948 227.379 246.202C219.509 239.468 209.557 242.656 211.618 251.273ZM201.721 247.162C203.741 255.608 198.158 261.728 189.243 260.823L141.332 255.962C137.051 255.528 132.56 253.498 128.848 250.322L109.237 233.543C96.7736 222.878 100.021 207.126 114.405 208.586L178.301 215.069C187.216 215.974 196.077 223.559 198.097 232.005L201.721 247.162Z" fill="#141414"/>
</g>
<defs>
<clipPath id="clip0_3_235">
<rect width="348" height="468" fill="white"/>
</clipPath>
</defs>
</svg>
