<svg width="415" height="456" viewBox="0 0 415 456" fill="none" xmlns="http://www.w3.org/2000/svg">
<path d="M88.1743 407.924C93.0041 412.784 98.2687 417.168 103.931 421.044C103.933 421.046 103.935 421.047 103.938 421.049L103.971 421.072C132.23 440.396 170.382 447.054 213.794 436.889C312.776 413.712 401.624 311.856 412.243 209.389C418.204 151.863 398.242 106.373 362.07 81.6375C356.423 77.7758 350.381 74.4199 343.981 71.6031C369.983 97.7676 383.382 137.71 378.356 186.206C367.738 288.674 278.889 390.529 179.907 413.706C145.17 421.84 113.802 419.203 88.1743 407.924Z" fill="#1A1A1A"/>
<path d="M70.0848 397.89C33.9131 373.154 13.9507 327.665 19.912 270.138C30.5305 167.671 119.379 65.8155 218.361 42.6383C261.773 32.473 299.925 39.1307 328.183 58.4551M70.0848 397.89L103.931 421.044M70.0848 397.89C75.7319 401.751 81.774 405.107 88.1743 407.924M103.938 421.049C103.949 421.057 103.96 421.064 103.971 421.072M103.938 421.049C103.935 421.047 103.933 421.046 103.931 421.044M103.938 421.049L103.971 421.072M103.938 421.049L103.931 421.044M103.971 421.072C132.23 440.396 170.382 447.054 213.794 436.889C312.776 413.712 401.624 311.856 412.243 209.389C418.204 151.863 398.242 106.373 362.07 81.6375M103.971 421.072L103.931 421.044M328.183 58.4551L362.07 81.6375M328.183 58.4551C328.195 58.4628 328.206 58.4706 328.217 58.4783M362.07 81.6375L328.217 58.4783M362.07 81.6375C356.423 77.7758 350.381 74.4199 343.981 71.6031M328.217 58.4783C333.882 62.3552 339.149 66.7413 343.981 71.6031M88.1743 407.924C93.0041 412.784 98.2687 417.168 103.931 421.044M88.1743 407.924C113.802 419.203 145.17 421.84 179.907 413.706C278.889 390.529 367.738 288.674 378.356 186.206C383.382 137.71 369.983 97.7676 343.981 71.6031M88.1743 407.924C62.1718 381.76 48.7731 341.817 53.7987 293.321C64.4173 190.853 153.266 88.9979 252.247 65.8207C286.985 57.6868 318.353 60.3241 343.981 71.6031" stroke="#282828" stroke-width="2.5" stroke-linejoin="round"/>
<mask id="mask0_13_153" style="mask-type:alpha" maskUnits="userSpaceOnUse" x="18" y="37" width="396" height="405">
<path d="M349.4 75.5654C353.563 77.6953 357.557 80.0648 361.365 82.6689C396.645 106.795 416.433 150.992 411.204 207.165L379.673 185.594C384.23 140.006 372.578 101.852 349.4 75.5654ZM182.93 414.26C231.713 402.105 277.823 371.079 313.21 330.512C348.774 289.741 373.581 239.25 379.371 188.416L410.918 209.998C405.479 260.683 380.814 311.237 345.212 352.051C309.566 392.916 263.034 423.927 214.041 435.544L182.93 414.26ZM221.435 43.2275C262.738 34.1981 298.986 40.5955 326.162 58.6016L327.478 59.4873L327.511 59.5098C331.288 62.0943 334.885 64.9106 338.294 67.9453C313.738 58.7636 284.516 57.0787 252.501 64.4805L221.435 43.2275ZM21.2358 269.53C26.675 218.845 51.3396 168.291 86.9418 127.477C122.588 86.6121 169.121 55.6013 218.113 43.9844L249.224 65.2686C200.441 77.4231 154.332 108.447 118.945 149.015C83.3804 189.785 58.5716 240.278 52.7827 291.112L21.2358 269.53ZM93.8578 411.582C118.414 420.764 147.638 422.45 179.653 415.048L210.719 436.301C169.416 445.33 133.168 438.932 105.993 420.926L104.677 420.04L104.644 420.018C100.867 417.433 97.2677 414.617 93.8578 411.582ZM70.7905 396.857C35.5106 372.732 15.7202 328.536 20.9496 272.363L52.4799 293.934C47.9232 339.522 59.5762 377.678 82.7543 403.964C78.5907 401.834 74.5987 399.462 70.7905 396.857Z" fill="#C4C1C1" stroke="#282828" stroke-width="2.5" stroke-linejoin="round"/>
</mask>
<g mask="url(#mask0_13_153)">
<path d="M35.1112 357.652L358.633 570.651M41.1786 333.551L364.7 546.55M47.2459 309.45L370.97 521.646M53.5156 284.545L376.835 498.348M59.5829 260.445L382.902 474.247M65.4481 237.147L388.97 450.146M71.5155 213.046L395.037 426.045M77.5829 188.945L401.105 401.945M83.6503 164.844L407.374 377.04M89.9199 139.94L413.442 352.939M95.9873 115.839L419.307 329.642M102.055 91.7383L425.374 305.541M108.122 67.6373L431.442 281.44M113.987 44.3398L437.509 257.339M120.055 20.2389L443.779 232.435M126.324 -4.66535L449.846 208.334M132.392 -28.7663L455.913 184.233M138.459 -52.8671L461.981 160.132" stroke="#282828" stroke-width="2.5"/>
</g>
<path d="M21.1291 269.854C31.6781 168.057 119.938 66.8982 218.232 43.882C316.526 20.8661 387.688 84.6952 377.139 186.492C366.59 288.288 278.331 389.447 180.037 412.463C81.7426 435.479 10.5802 371.65 21.1291 269.854Z" fill="#1E1E1E" stroke="#282828" stroke-width="2.5"/>
<path d="M215.734 67.9855C227.508 65.2287 238.833 63.905 249.586 63.9032H264.301C253.548 63.905 242.223 65.2287 230.449 67.9855H215.734Z" fill="#1A1A1A"/>
<path d="M44.3968 264.405C36.492 340.686 81.3821 392.453 148.682 392.442H163.353C96.0774 392.43 51.2086 340.669 59.1117 264.405C68.2796 175.936 144.99 87.9963 230.449 67.9855H215.734C130.275 87.9963 53.5647 175.936 44.3968 264.405Z" fill="#1A1A1A"/>
<path d="M163.353 392.442H148.682C81.3821 392.453 36.492 340.686 44.3968 264.405C53.5647 175.936 130.275 87.9963 215.734 67.9855M163.353 392.442H163.397M163.353 392.442C96.0774 392.43 51.2086 340.669 59.1117 264.405C68.2796 175.936 144.99 87.9963 230.449 67.9855M215.734 67.9855H230.449M215.734 67.9855C227.508 65.2287 238.833 63.905 249.586 63.9032H264.301C253.548 63.905 242.223 65.2287 230.449 67.9855" stroke="#282828" stroke-width="2.5" stroke-linejoin="round"/>
<path d="M218.361 42.6383C317.342 19.4612 388.975 83.7388 378.356 186.206C367.738 288.674 278.889 390.529 179.908 413.706C80.9259 436.884 9.29346 372.606 19.912 270.138C30.5306 167.671 119.379 65.8155 218.361 42.6383ZM182.534 388.359C267.993 368.348 344.704 280.408 353.871 191.94C363.039 103.471 301.193 47.9747 215.734 67.9855C130.275 87.9963 53.5647 175.936 44.3969 264.405C35.229 352.874 97.0752 408.37 182.534 388.359Z" fill="#1E1E1E" stroke="#282828" stroke-width="2.5"/>
<path fill-rule="evenodd" clip-rule="evenodd" d="M254.947 119.282L265.732 124.543C270.403 126.82 272.108 132.895 269.688 139.288C272.796 138.408 275.779 138.594 278.14 139.746L288.926 145.006C292.261 146.633 294.355 150.187 293.808 155.388L287.359 216.751C286.531 224.624 279.592 232.454 271.859 234.239L256.782 237.72C253.896 238.386 251.307 238.116 249.239 237.107L238.454 231.847C237.316 231.291 236.335 230.512 235.549 229.541C234.332 237.119 227.616 244.453 220.164 246.174L185.7 254.13C182.814 254.797 180.226 254.527 178.158 253.518L167.372 248.257C166.244 247.707 165.271 246.936 164.489 245.978L163.433 256.017C163.283 257.452 162.922 258.913 162.373 260.353C162.671 260.266 162.969 260.187 163.267 260.119L208.456 249.686C211.342 249.02 213.93 249.289 215.998 250.299L226.784 255.559C228.054 256.179 229.127 257.077 229.953 258.208C229.829 257.382 229.811 256.476 229.914 255.495C230.554 249.403 235.923 243.345 241.907 241.963C244.228 241.427 246.198 241.643 247.747 242.398L248.019 242.539L248.057 242.56L258.532 247.659C263.424 250.044 264.112 257.811 258.374 264.285C253.912 269.319 248.197 270.603 244.477 268.788L233.691 263.528C232.875 263.129 232.154 262.581 231.564 261.891C231.829 263.131 231.899 264.499 231.744 265.969L230.131 281.321C229.303 289.194 222.364 297.024 214.632 298.809L154.364 312.723C151.364 313.415 148.817 313.136 146.815 312.16L136.031 306.9C131.36 304.623 129.655 298.547 132.075 292.155C128.967 293.034 125.984 292.849 123.622 291.697L112.837 286.436C109.502 284.809 107.408 281.256 107.955 276.054L114.404 214.692C115.231 206.819 122.171 198.989 129.903 197.204L144.981 193.723C147.867 193.057 150.455 193.326 152.523 194.336L163.309 199.596C164.447 200.151 165.428 200.931 166.214 201.901C167.431 194.324 174.147 186.989 181.599 185.269L216.063 177.312C218.949 176.646 221.537 176.916 223.605 177.925L234.383 183.182C235.511 183.732 236.492 184.506 237.274 185.465L238.329 175.426C238.48 173.991 238.841 172.53 239.389 171.09C239.092 171.177 238.794 171.255 238.496 171.324L193.307 181.757C190.421 182.423 187.832 182.153 185.764 181.144L174.979 175.884C173.709 175.264 172.635 174.366 171.81 173.234C171.934 174.061 171.952 174.967 171.849 175.948C171.209 182.04 165.839 188.098 159.856 189.48C157.535 190.015 155.564 189.799 154.015 189.044L143.23 183.784C138.339 181.399 137.651 173.632 143.389 167.158C147.85 162.124 153.566 160.839 157.286 162.654L168.064 167.911C168.881 168.31 169.609 168.861 170.199 169.552C169.933 168.311 169.864 166.944 170.018 165.473L171.632 150.122C172.459 142.248 179.399 134.419 187.131 132.634L247.399 118.72C250.399 118.027 252.945 118.306 254.947 119.282Z" fill="#1A1A1A"/>
<path d="M254.947 119.282L265.732 124.543C270.403 126.82 272.108 132.895 269.688 139.288C272.796 138.408 275.779 138.594 278.14 139.746L288.926 145.006C292.261 146.633 294.355 150.187 293.808 155.388L287.359 216.751C286.531 224.624 279.592 232.454 271.859 234.239L256.782 237.72C253.896 238.386 251.307 238.116 249.239 237.107L238.454 231.847M254.947 119.282C252.945 118.306 250.399 118.027 247.399 118.72L187.131 132.634C179.399 134.419 172.459 142.248 171.632 150.122L170.018 165.473C169.864 166.944 169.933 168.311 170.199 169.552C169.609 168.861 168.881 168.31 168.064 167.911L157.286 162.654C153.566 160.839 147.85 162.124 143.389 167.158C137.651 173.632 138.339 181.399 143.23 183.784L154.015 189.044C155.564 189.799 157.535 190.015 159.856 189.48C165.839 188.098 171.209 182.04 171.849 175.948C171.952 174.967 171.934 174.061 171.81 173.234C172.635 174.366 173.709 175.264 174.979 175.884M254.947 119.282L254.948 119.283M238.454 231.847C237.316 231.291 236.335 230.512 235.549 229.541C234.332 237.119 227.616 244.453 220.164 246.174L185.7 254.13C182.814 254.797 180.226 254.527 178.158 253.518L167.372 248.257M238.454 231.847L238.457 231.848M167.372 248.257C166.244 247.707 165.271 246.936 164.489 245.978L163.433 256.017C163.283 257.452 162.922 258.913 162.373 260.353C162.671 260.266 162.969 260.187 163.267 260.119L208.456 249.686C211.342 249.02 213.93 249.289 215.998 250.299L226.784 255.559C228.054 256.179 229.127 257.077 229.953 258.208C229.829 257.382 229.811 256.476 229.914 255.495C230.554 249.403 235.923 243.345 241.907 241.963C244.228 241.427 246.198 241.643 247.747 242.398M167.372 248.257L167.375 248.259M247.747 242.398L248.019 242.539M247.747 242.398C247.839 242.443 247.93 242.49 248.019 242.539M247.747 242.398L247.748 242.399M248.019 242.539L248.057 242.56M248.019 242.539C248.031 242.546 248.044 242.553 248.057 242.56M248.057 242.56L258.532 247.659C263.424 250.044 264.112 257.811 258.374 264.285C253.912 269.319 248.197 270.603 244.477 268.788L233.691 263.528M248.057 242.56C248.171 242.623 248.282 242.689 248.391 242.758C248.396 242.762 248.401 242.765 248.406 242.768M233.691 263.528C232.875 263.129 232.154 262.581 231.564 261.891C231.829 263.131 231.899 264.499 231.744 265.969L230.131 281.321C229.303 289.194 222.364 297.024 214.632 298.809L154.364 312.723C151.364 313.415 148.817 313.136 146.815 312.16L136.031 306.9C131.36 304.623 129.655 298.547 132.075 292.155C128.967 293.034 125.984 292.849 123.622 291.697L112.837 286.436M233.691 263.528L233.693 263.529M112.837 286.436C109.502 284.809 107.408 281.256 107.955 276.054L114.404 214.692C115.231 206.819 122.171 198.989 129.903 197.204L144.981 193.723C147.867 193.057 150.455 193.326 152.523 194.336L163.309 199.596C164.447 200.151 165.428 200.931 166.214 201.901C167.431 194.324 174.147 186.989 181.599 185.269L216.063 177.312C218.949 176.646 221.537 176.916 223.605 177.925L234.383 183.182M112.837 286.436L112.839 286.437M234.383 183.182C235.511 183.732 236.492 184.506 237.274 185.465L238.329 175.426C238.48 173.991 238.841 172.53 239.389 171.09C239.092 171.177 238.794 171.255 238.496 171.324L193.307 181.757C190.421 182.423 187.832 182.153 185.764 181.144L174.979 175.884M234.383 183.182L234.388 183.184M174.979 175.884L174.982 175.885" stroke="#282828" stroke-width="2.5" stroke-linejoin="round"/>
<path fill-rule="evenodd" clip-rule="evenodd" d="M243.49 164.399C240.583 167.678 238.727 171.645 238.329 175.425L233.493 221.436C232.666 229.309 238.264 234.245 245.996 232.459L261.074 228.978C268.807 227.193 275.746 219.364 276.573 211.491L283.023 150.128C284.358 137.428 269.945 134.549 260.181 145.566L243.49 164.399ZM241.907 241.963C235.923 243.344 230.554 249.403 229.914 255.495C228.881 265.322 240.033 267.549 247.588 259.025C255.143 250.5 251.558 239.735 241.907 241.963ZM187.131 132.634C179.399 134.419 172.46 142.248 171.632 150.121L170.018 165.473C169.191 173.346 174.789 178.282 182.521 176.496L227.711 166.064C231.424 165.206 235.143 162.882 238.05 159.603L254.741 140.77C264.505 129.753 259.872 115.84 247.399 118.72L187.131 132.634ZM163.267 260.119C159.553 260.976 155.834 263.3 152.928 266.58L136.236 285.413C126.472 296.429 131.105 310.342 143.578 307.462L203.846 293.548C211.579 291.763 218.518 283.934 219.345 276.061L220.959 260.709C221.786 252.836 216.189 247.901 208.456 249.686L163.267 260.119ZM181.599 185.269C173.867 187.054 166.927 194.884 166.1 202.757L162.412 237.847C161.584 245.72 167.182 250.655 174.914 248.87L209.378 240.913C217.111 239.128 224.05 231.299 224.877 223.425L228.566 188.335C229.393 180.462 223.795 175.527 216.063 177.312L181.599 185.269ZM129.903 197.204C122.171 198.989 115.232 206.819 114.404 214.692L107.955 276.054C106.62 288.755 121.032 291.633 130.796 280.616L147.488 261.783C150.394 258.504 152.251 254.537 152.648 250.757L157.484 204.746C158.311 196.873 152.714 191.938 144.981 193.723L129.903 197.204ZM161.064 170.687C162.096 160.86 150.944 158.633 143.389 167.157C135.834 175.682 139.419 186.447 149.071 184.219C155.054 182.838 160.423 176.779 161.064 170.687Z" fill="#1E1E1E" stroke="#282828" stroke-width="2.5"/>
</svg>
