<svg width="36" height="36" viewBox="0 0 36 36" fill="none" xmlns="http://www.w3.org/2000/svg">
<path fill-rule="evenodd" clip-rule="evenodd" d="M26.1556 27.5394C25.587 26.9695 24.8158 26.6493 24.0117 26.6493H14.2262C12.5518 26.6493 11.1944 28.0099 11.1944 29.6883V32.961C11.1944 34.6394 12.5518 36 14.2262 36H27.2768C29.9778 36 31.3305 32.7266 29.4206 30.8122L26.1556 27.5394ZM9.32866 29.0008C9.32866 27.7021 8.27835 26.6493 6.98273 26.6493C4.89272 26.6493 3.84604 29.1822 5.3239 30.6636C6.80176 32.1449 9.32866 31.0957 9.32866 29.0008ZM35.9154 14.2597C35.9154 12.5814 34.558 11.2208 32.8835 11.2208H29.6185C27.9441 11.2208 26.5867 12.5814 26.5867 14.2597V24.0683C26.5867 24.8743 26.9061 25.6473 27.4747 26.2172L30.7397 29.4899C32.6497 31.4044 35.9154 30.0485 35.9154 27.3411V14.2597ZM9.32866 11.9317C9.32866 11.1257 9.00924 10.3527 8.44067 9.7828L5.17563 6.51007C3.2657 4.59563 0 5.95152 0 8.65894V21.7403C0 23.4186 1.35739 24.7792 3.03182 24.7792H6.29685C7.97127 24.7792 9.32866 23.4186 9.32866 21.7403V11.9317ZM24.721 14.2597C24.721 12.5814 23.3636 11.2208 21.6891 11.2208H14.2262C12.5518 11.2208 11.1944 12.5814 11.1944 14.2597V21.7403C11.1944 23.4186 12.5518 24.7792 14.2262 24.7792H21.6891C23.3636 24.7792 24.721 23.4186 24.721 21.7403V14.2597ZM24.721 3.03896C24.721 1.36059 23.3636 0 21.6891 0H8.63858C5.93752 0 4.58482 3.27339 6.49476 5.18783L9.7598 8.46056C10.3284 9.03047 11.0995 9.35065 11.9036 9.35065H21.6891C23.3636 9.35065 24.721 7.99006 24.721 6.31169V3.03896ZM28.9326 9.35065C31.0226 9.35065 32.0693 6.81779 30.5915 5.33644C29.1136 3.8551 26.5867 4.90425 26.5867 6.99918C26.5867 8.29786 27.637 9.35065 28.9326 9.35065Z" fill="white"/>
</svg>
