<svg width="25" height="25" viewBox="0 0 25 25" fill="none" xmlns="http://www.w3.org/2000/svg">
<g clip-path="url(#clip0_11_69)">
<path fill-rule="evenodd" clip-rule="evenodd" d="M5.65615 0.963974C5.51028 1.01841 5.35893 1.117 5.27561 1.21189C5.08747 1.42619 5.0154 1.75055 5.09505 2.02456C5.15409 2.22765 6.81297 5.52981 6.91613 5.64959C7.02237 5.77297 7.23569 5.88705 7.43155 5.92523C7.7945 5.99601 8.17373 5.78735 8.34465 5.42279C8.39865 5.30764 8.4079 5.25556 8.4079 5.0667V4.84549L7.51538 3.06025C6.66641 1.36211 6.6168 1.26957 6.49872 1.16341C6.32016 1.00285 6.19262 0.951206 5.94789 0.94031C5.81361 0.934334 5.71392 0.942422 5.65615 0.963974ZM12.2045 0.979238C12.0025 1.05817 11.8446 1.1998 11.7434 1.39271C11.7059 1.4643 11.5257 2.13921 11.2501 3.24071C10.7657 5.17626 10.7704 5.14703 10.8983 5.42637C11.143 5.96085 11.7831 6.09971 12.2495 5.71948C12.4404 5.56379 12.4631 5.49443 12.9199 3.66777C13.1525 2.73796 13.3486 1.91212 13.3559 1.83256C13.3807 1.56049 13.22 1.23198 12.9862 1.07716C12.7643 0.930134 12.4356 0.88895 12.2045 0.979238ZM1.67088 5.8803C1.39005 5.91647 1.16777 6.08044 1.03476 6.34955C0.95215 6.51671 0.943942 6.55098 0.944302 6.72666C0.944662 6.89238 0.955342 6.94245 1.01925 7.07809C1.15692 7.37025 1.12387 7.35018 3.08621 8.332L4.86852 9.22374L5.07821 9.22384C5.26303 9.22391 5.3064 9.2151 5.4439 9.1497C5.62908 9.06162 5.77433 8.91909 5.86711 8.73441C5.92721 8.61479 5.93462 8.57466 5.93417 8.37191C5.93371 8.17149 5.92553 8.12737 5.86651 8.00709C5.73439 7.73778 5.72885 7.73447 3.80858 6.77425C1.93274 5.83626 1.95156 5.84413 1.67088 5.8803ZM14.2682 7.08748C13.7354 7.23635 13.4855 7.89213 13.7833 8.35991C13.9273 8.58604 14.1175 8.71295 14.375 8.75473C14.4726 8.77057 15.3636 8.77962 16.8393 8.77972C18.3708 8.77984 19.209 8.78865 19.3233 8.80583C20.0306 8.91203 20.6477 9.19545 21.1639 9.65111C22.3627 10.7093 22.6852 12.4438 21.9462 13.8589C21.4769 14.7575 20.6773 15.3873 19.6797 15.6441C19.3359 15.7326 19.1876 15.7391 17.4799 15.7396C16.5351 15.7399 15.739 15.7502 15.6606 15.763C15.1959 15.8391 14.8857 16.2632 14.9497 16.7348C14.9869 17.0091 15.1825 17.2678 15.4462 17.3914L15.5839 17.4559L17.2879 17.4634C19.1097 17.4714 19.4063 17.4596 19.8975 17.3597C20.441 17.2493 21.0715 17.0044 21.5378 16.7227C22.2534 16.2905 22.9214 15.6172 23.3395 14.9068C24.5219 12.8977 24.2312 10.3514 22.6279 8.6746C21.8242 7.83405 20.8235 7.30763 19.6514 7.10896C19.4231 7.07027 19.1683 7.06581 16.8919 7.06074C14.849 7.05618 14.3624 7.06115 14.2682 7.08748ZM5.84436 11.8981C5.78083 11.9236 5.67283 11.9877 5.60436 12.0407C5.39779 12.2004 2.29795 15.3267 2.10297 15.5719C1.84229 15.8998 1.6445 16.2111 1.47021 16.5679C0.31711 18.9284 1.08456 21.7587 3.27067 23.2078C3.95721 23.6628 4.74936 23.9463 5.61173 24.0454C5.96131 24.0856 6.67243 24.0623 7.0279 23.999C7.68408 23.8822 8.28101 23.659 8.8483 23.3182C9.31565 23.0374 9.50078 22.8734 10.6671 21.7071C11.7387 20.6354 11.801 20.5684 11.8502 20.4339C11.9035 20.2885 11.9201 20.0432 11.8861 19.9027C11.817 19.6164 11.5374 19.3417 11.2519 19.2795C11.103 19.2471 10.8809 19.2638 10.7333 19.3183C10.6006 19.3674 10.526 19.436 9.5239 20.4308C8.32596 21.6198 8.1228 21.7905 7.63922 22.0137C7.12853 22.2494 6.70236 22.3428 6.13769 22.3427C4.38765 22.3426 2.95041 21.0854 2.68581 19.3233C2.63337 18.9741 2.66467 18.3917 2.7546 18.0439C2.88031 17.5577 3.0923 17.1109 3.37517 16.7359C3.43493 16.6567 4.24284 15.8305 5.17051 14.8999C7.09327 12.9711 6.99189 13.0933 6.99189 12.7039C6.99189 12.52 6.98239 12.4676 6.92781 12.3512C6.84595 12.1766 6.67879 12.0095 6.5046 11.9284C6.32129 11.8429 6.01692 11.829 5.84436 11.8981Z" fill="#FF4540"/>
</g>
<defs>
<clipPath id="clip0_11_69">
<rect width="24" height="24" fill="white" transform="translate(0.5 0.5)"/>
</clipPath>
</defs>
</svg>
