<svg width="18" height="18" viewBox="0 0 18 18" fill="none" xmlns="http://www.w3.org/2000/svg">
<g clip-path="url(#clip0_49_989)">
<path fill-rule="evenodd" clip-rule="evenodd" d="M5.23493 0.365675C5.07045 0.435047 4.9467 0.554135 4.8729 0.714029C4.83479 0.796613 4.83247 0.827447 4.82707 1.32443L4.82136 1.84785L4.65607 1.86981C3.69069 1.9981 2.67754 2.54717 2.02297 3.29681C1.48344 3.91472 1.14416 4.58037 0.972945 5.35702C0.889947 5.73344 0.776583 6.8706 0.679725 8.29801C0.648927 8.75202 0.649125 10.64 0.680031 11.106C0.758817 12.294 0.878319 13.5554 0.946665 13.9203C1.10899 14.7871 1.52119 15.5924 2.12764 16.2276C2.83587 16.9694 3.78449 17.4452 4.78025 17.5581C5.32095 17.6194 7.40789 17.6758 9.13476 17.6758C10.8616 17.6758 12.9486 17.6194 13.4893 17.5581C15.4782 17.3326 17.0864 15.7286 17.3596 13.698C17.3749 13.5842 17.4075 13.2926 17.4321 13.05C17.6868 10.5344 17.6888 8.9037 17.4402 6.45301C17.3693 5.75397 17.3445 5.56955 17.2873 5.31364C16.9162 3.65581 15.6195 2.32888 13.9948 1.94436C13.7285 1.88136 13.5767 1.85654 13.3558 1.83989L13.1848 1.827L13.1747 1.314C13.1692 1.03185 13.1577 0.780755 13.1492 0.756005C13.1296 0.698711 13.0566 0.579677 13.007 0.524057C12.9484 0.458249 12.7984 0.368735 12.7032 0.342689C12.58 0.309011 12.3744 0.325913 12.2649 0.378743C12.1518 0.433229 12.0073 0.577949 11.9509 0.693005C11.9081 0.780233 11.9065 0.798287 11.8978 1.278L11.8888 1.773L11.8168 1.77113C10.4382 1.73537 8.95753 1.72529 7.86576 1.74424C7.18761 1.75601 6.51732 1.77052 6.37626 1.7765L6.11976 1.78735L6.11961 1.38417C6.11941 0.792617 6.08995 0.670901 5.90496 0.497867C5.77588 0.377141 5.67674 0.336839 5.48976 0.329081C5.35989 0.323681 5.32137 0.329225 5.23493 0.365675ZM7.19076 3.04233C6.82446 3.05079 6.43427 3.06305 6.32368 3.06954L6.12262 3.08137L6.11598 3.6962C6.1084 4.39944 6.10359 4.42547 5.94838 4.60273C5.66347 4.92813 5.15308 4.88207 4.91759 4.50969C4.83315 4.37616 4.82421 4.29896 4.82397 3.70208L4.82376 3.14714L4.76526 3.15877C4.58455 3.1947 4.38058 3.2512 4.22976 3.30713C3.24125 3.67362 2.50104 4.52348 2.24817 5.5822C2.2182 5.70768 2.16186 6.10263 2.13744 6.3585L2.13099 6.42601H9.13872H16.1464L16.1381 6.3855C16.1336 6.36322 16.1252 6.29236 16.1194 6.228C16.1137 6.16365 16.0963 6.01786 16.0808 5.90401C15.9568 4.99342 15.4895 4.2122 14.7508 3.68034C14.3543 3.39491 13.7114 3.15495 13.2748 3.12943L13.1848 3.12417L13.1758 3.7356C13.1668 4.34659 13.1667 4.34708 13.1203 4.44604C13.0679 4.55777 12.934 4.70114 12.8361 4.75029C12.5125 4.91285 12.1288 4.78658 11.9574 4.46109L11.9068 4.365L11.8978 3.717L11.8888 3.069L11.5918 3.05757C11.0691 3.03743 7.88055 3.0264 7.19076 3.04233ZM2.00847 7.82551C1.96093 8.28028 1.91946 9.51072 1.93337 10.053C1.96244 11.1858 2.09204 12.8826 2.2049 13.608C2.37862 14.7246 3.15071 15.6908 4.18933 16.0914C4.43267 16.1852 4.60695 16.2296 4.90476 16.2736C5.04294 16.294 6.03186 16.337 6.95676 16.3628C8.94203 16.4182 12.803 16.3586 13.4368 16.2628C14.6903 16.0732 15.7063 15.1237 16.0174 13.851C16.0659 13.6526 16.085 13.5211 16.1362 13.032C16.3017 11.4539 16.3655 10.1486 16.329 9.08712C16.3077 8.46715 16.2802 7.94144 16.2615 7.7985L16.2515 7.722H9.13542H2.01928L2.00847 7.82551Z" fill="#5C5C5C"/>
</g>
<defs>
<clipPath id="clip0_49_989">
<rect width="18" height="18" fill="white"/>
</clipPath>
</defs>
</svg>
