<svg width="18" height="18" viewBox="0 0 18 18" fill="none" xmlns="http://www.w3.org/2000/svg">
<path fill-rule="evenodd" clip-rule="evenodd" d="M8.47797 0.349722C7.14356 0.51948 5.99397 1.25129 5.26666 2.394C5.149 2.57886 4.94997 2.99174 4.86319 3.231C4.78079 3.45821 4.69565 3.79424 4.65112 4.068C4.62608 4.22199 4.61897 4.42051 4.61272 5.13965L4.60507 6.02231L4.49403 6.0649C4.43294 6.08832 4.29212 6.15407 4.18108 6.21101C3.09422 6.76823 2.25897 7.77796 1.9282 8.93453C1.79655 9.39488 1.71537 10.0974 1.67073 11.1629C1.64233 11.8413 1.67359 12.6271 1.7641 13.509C1.83185 14.1693 1.95099 14.6073 2.20474 15.129C2.62322 15.9893 3.30666 16.6905 4.15797 17.133C4.7227 17.4265 5.28927 17.5813 5.94613 17.6217C7.10788 17.6931 10.8921 17.6931 12.0538 17.6217C12.4058 17.6 12.716 17.5494 13.005 17.4664C14.2307 17.1145 15.2376 16.2709 15.7948 15.129C16.0401 14.6263 16.1597 14.1995 16.226 13.59C16.363 12.3325 16.3731 11.3806 16.2625 10.143C16.2019 9.46465 16.1517 9.18241 16.0207 8.784C15.8059 8.13067 15.4735 7.58029 14.9949 7.08527C14.4037 6.47393 13.6678 6.0509 12.8447 5.84915C12.3824 5.73583 12.1056 5.71876 10.2093 5.68656C9.06617 5.66716 7.25998 5.68296 6.21445 5.72153L5.90392 5.733L5.90426 5.085C5.90464 4.40377 5.91567 4.26472 5.9935 3.96C6.13417 3.40942 6.39051 2.95182 6.78343 2.54992C7.12189 2.20376 7.48651 1.96814 7.94697 1.79804C8.60512 1.55489 9.39482 1.55489 10.053 1.79804C10.4863 1.95811 10.7404 2.11754 11.2027 2.51951C11.3706 2.66553 11.4796 2.70572 11.6822 2.69638C11.9346 2.68475 12.1159 2.56721 12.2258 2.34392C12.2794 2.23499 12.285 2.20856 12.285 2.06138C12.285 1.83161 12.2373 1.73479 12.0206 1.52483C11.4102 0.933264 10.5449 0.508428 9.66597 0.368748C9.41033 0.32814 8.73299 0.317286 8.47797 0.349722ZM7.14597 6.98566C5.89542 7.01141 5.62574 7.03886 5.19297 7.18452C4.39314 7.45369 3.73875 8.03005 3.36673 8.793C3.13476 9.26869 3.07817 9.547 2.98424 10.674C2.95328 11.0453 2.9539 12.3179 2.98522 12.699C3.02676 13.2046 3.07703 13.6427 3.11507 13.8305C3.34675 14.9748 4.22104 15.9064 5.36397 16.2268C5.75047 16.3351 6.0689 16.3545 7.85247 16.3785C9.69425 16.4033 11.9429 16.3628 12.3176 16.2982C12.8129 16.2128 13.2747 16.016 13.6782 15.7186C13.8564 15.5871 14.2062 15.2378 14.3333 15.0641C14.6083 14.6885 14.7961 14.2679 14.8854 13.8279C14.922 13.6473 14.9683 13.2359 15.0156 12.672C15.0462 12.3063 15.0462 11.0461 15.0155 10.674C14.9237 9.55926 14.8651 9.27135 14.6328 8.793C14.2632 8.03187 13.607 7.45375 12.807 7.18452C12.3626 7.03496 12.1437 7.01397 10.719 6.98427C9.75062 6.96407 8.16364 6.96469 7.14597 6.98566ZM8.85597 10.411C8.72367 10.4403 8.65135 10.4809 8.54887 10.5834C8.36288 10.7694 8.35197 10.8296 8.35197 11.6714C8.35197 12.361 8.36111 12.4791 8.42456 12.6102C8.47612 12.7167 8.61473 12.8503 8.72997 12.9045C8.81473 12.9443 8.85356 12.951 8.99997 12.951C9.14638 12.951 9.18521 12.9443 9.26997 12.9045C9.45254 12.8186 9.59208 12.6378 9.62995 12.4381C9.65528 12.3046 9.65344 11.0256 9.62776 10.9044C9.59962 10.7716 9.55093 10.6832 9.45083 10.5831C9.34651 10.4788 9.25777 10.4316 9.1176 10.4056C8.99192 10.3824 8.98404 10.3826 8.85597 10.411Z" fill="#0FBC5F"/>
</svg>
