<svg width="18" height="18" viewBox="0 0 18 18" fill="none" xmlns="http://www.w3.org/2000/svg">
<g clip-path="url(#clip0_46_258)">
<path fill-rule="evenodd" clip-rule="evenodd" d="M8.35201 0.40644C8.30746 0.41004 8.14951 0.42192 8.00101 0.432846C6.27969 0.559584 4.75909 1.08907 3.59101 1.96848C2.58199 2.72815 1.80333 3.78545 1.3422 5.022C0.901941 6.2026 0.718251 7.38722 0.743487 8.883C0.754089 9.51095 0.782889 9.89426 0.857085 10.395C1.0947 11.9983 1.67625 13.3588 2.5596 14.378L2.71992 14.5629L2.61363 14.684C2.1861 15.1708 1.81301 15.8254 1.62054 16.4262C1.47781 16.8718 1.45573 17.0942 1.53666 17.2709C1.63153 17.4781 1.76954 17.5965 1.97883 17.6501C2.18644 17.7033 2.39968 17.6465 2.56528 17.4938C2.67528 17.3924 2.71956 17.3007 2.79759 17.0128C2.941 16.4835 3.14814 16.0772 3.50118 15.633C3.57197 15.5439 3.64244 15.4607 3.65776 15.4481C3.68121 15.4289 3.71356 15.444 3.8633 15.5444C4.88433 16.2287 6.08074 16.6558 7.46101 16.8287C8.06272 16.9041 8.18636 16.9107 9.00001 16.9107C9.81367 16.9107 9.93731 16.9041 10.539 16.8287C11.9193 16.6558 13.1157 16.2287 14.1367 15.5444C14.2862 15.4442 14.3188 15.4289 14.342 15.4481C14.3572 15.4607 14.4294 15.5461 14.5025 15.638C14.8497 16.074 15.0632 16.4948 15.203 17.0184C15.2792 17.3036 15.3182 17.3845 15.4303 17.4892C15.6566 17.701 15.9709 17.7282 16.2268 17.5583C16.4734 17.3946 16.5601 17.1286 16.4789 16.785C16.3634 16.2965 16.1459 15.7821 15.8662 15.336C15.7375 15.1307 15.4933 14.8007 15.3622 14.6549L15.2799 14.5633L15.4395 14.3782C16.256 13.431 16.8292 12.1687 17.0845 10.755C17.1973 10.1303 17.2441 9.62075 17.2566 8.883C17.2818 7.38715 17.0987 6.2066 16.658 5.022C15.9538 3.12914 14.5317 1.7071 12.636 1.00019C11.8271 0.698544 11.1003 0.536904 10.1143 0.439326C9.85577 0.413748 8.56112 0.389592 8.35201 0.40644ZM8.55901 1.69268C6.96888 1.75266 5.64102 2.1343 4.60801 2.82821C3.96959 3.25708 3.41254 3.84323 3.02283 4.4962C2.30423 5.70019 1.97152 7.2421 2.03585 9.07016C2.07698 10.2389 2.26944 11.1888 2.64529 12.0779C2.93859 12.7718 3.2954 13.3049 3.81501 13.8257C4.4262 14.4382 5.06354 14.8376 5.93101 15.1517C7.19605 15.6097 8.91255 15.7531 10.494 15.533C12.5122 15.252 14.0135 14.3574 14.9383 12.8848C15.6734 11.7142 16.0296 10.1036 15.9642 8.24584C15.899 6.39461 15.4183 4.94032 14.5046 3.83018C14.3376 3.6272 13.9605 3.25613 13.752 3.08954C12.5097 2.09686 10.7061 1.6117 8.55901 1.69268ZM8.62201 4.09721C7.46566 4.16646 6.55722 4.50052 5.83387 5.12249C5.33154 5.55442 4.93198 6.15787 4.70856 6.822C4.33301 7.93834 4.33978 9.44035 4.72536 10.548C4.95173 11.1983 5.36365 11.8038 5.86603 12.2248C6.50667 12.7615 7.26431 13.0683 8.24401 13.1874C8.60734 13.2316 9.39268 13.2316 9.75601 13.1874C11.0362 13.0317 12.0035 12.5265 12.6683 11.6664C13.2109 10.9643 13.4913 10.1302 13.5572 9.0225C13.6164 8.02667 13.4493 7.06957 13.0866 6.327C12.4732 5.07121 11.3227 4.31285 9.75601 4.13167C9.51591 4.10389 8.84883 4.08362 8.62201 4.09721ZM8.50194 5.40167C7.70913 5.4724 7.0614 5.73457 6.60393 6.16991C6.13641 6.6148 5.87448 7.18605 5.75605 8.019C5.71996 8.2728 5.72616 9.10026 5.76615 9.369C5.83084 9.8037 5.92788 10.1289 6.08833 10.4486C6.22465 10.7202 6.33945 10.8789 6.55927 11.0993C6.99409 11.5353 7.50387 11.7702 8.28001 11.8922C8.57682 11.9389 9.42321 11.9389 9.72001 11.8922C10.4977 11.77 11.0051 11.5362 11.4408 11.0993C11.6606 10.8789 11.7754 10.7202 11.9117 10.4486C12.0697 10.1338 12.1717 9.792 12.2339 9.369C12.2736 9.09941 12.2798 8.27077 12.244 8.019C12.1759 7.53989 12.0686 7.17563 11.8969 6.84C11.461 5.98806 10.642 5.50262 9.46801 5.40034C9.22941 5.37955 8.7424 5.38022 8.50194 5.40167ZM8.80785 7.94486C8.64181 7.99909 8.48993 8.13744 8.41417 8.30344C8.32746 8.49344 8.33373 8.86036 8.42686 9.04682C8.48203 9.15732 8.61345 9.28433 8.73001 9.33986C8.81528 9.38047 8.85274 9.387 9.00001 9.387C9.14729 9.387 9.18475 9.38047 9.27001 9.33986C9.38658 9.28433 9.518 9.15732 9.57317 9.04682C9.66699 8.85897 9.67253 8.49623 9.58458 8.30025C9.52642 8.17069 9.38309 8.02631 9.25653 7.96982C9.14952 7.92205 8.91721 7.90913 8.80785 7.94486Z" fill="#FF692C"/>
</g>
<defs>
<clipPath id="clip0_46_258">
<rect width="18" height="18" fill="white"/>
</clipPath>
</defs>
</svg>
