<svg width="18" height="18" viewBox="0 0 18 18" fill="none" xmlns="http://www.w3.org/2000/svg">
<g clip-path="url(#clip0_42_1185)">
<path fill-rule="evenodd" clip-rule="evenodd" d="M5.54394 0.326233C4.93968 0.358543 3.65665 0.474607 3.37494 0.522469C2.79607 0.620785 2.28203 0.844129 1.80894 1.20283C1.64991 1.32341 1.36227 1.60835 1.23333 1.773C0.85247 2.25938 0.612818 2.81166 0.522566 3.411C0.474092 3.73282 0.379124 4.84425 0.342584 5.517C0.31895 5.95229 0.318698 7.03415 0.342134 7.479C0.37979 8.19383 0.477728 9.3179 0.531908 9.657C0.7055 10.7437 1.41738 11.6965 2.42094 12.1853C2.94463 12.4404 3.365 12.5195 4.76994 12.6271C5.35006 12.6716 5.32282 12.6671 5.33598 12.7196C5.36444 12.833 5.51143 12.9963 5.6476 13.0658C5.8153 13.1513 6.04686 13.1513 6.22371 13.0657C6.3256 13.0164 6.46197 12.8797 6.50539 12.7834L6.53941 12.708H6.749C7.35589 12.708 9.14127 12.5717 9.68451 12.4838C10.3736 12.3724 11.0317 12.0354 11.5367 11.5353C12.0731 11.0041 12.4118 10.3335 12.5183 9.59171C12.5993 9.02724 12.695 7.76988 12.7191 6.95354L12.7314 6.53611L12.7849 6.51393C12.8602 6.48274 13.0022 6.3357 13.0476 6.24177C13.0983 6.13708 13.1277 5.97089 13.1136 5.86912C13.0875 5.68085 12.9383 5.46882 12.7687 5.37882L12.693 5.33871L12.6825 5.20285C12.6768 5.12813 12.6596 4.905 12.6444 4.707C12.5578 3.58036 12.5058 3.20908 12.3806 2.826C12.0259 1.74069 11.0851 0.864685 9.97523 0.586297C9.68694 0.513991 9.03646 0.437509 8.13594 0.370045C7.26592 0.304885 6.26106 0.287893 5.54394 0.326233ZM5.87694 1.60196C4.92772 1.64394 3.6517 1.76706 3.34794 1.84597C3.11044 1.90766 2.78454 2.07281 2.58963 2.23022C2.16517 2.57305 1.89679 3.02314 1.81005 3.5377C1.7783 3.726 1.70441 4.4894 1.66549 5.031C1.57434 6.29971 1.5898 7.20772 1.7286 8.739C1.8015 9.54313 1.84017 9.73123 1.99871 10.053C2.19849 10.4584 2.55221 10.812 2.96094 11.0147C3.27358 11.1698 3.46465 11.2105 4.22994 11.2849C6.02749 11.4594 7.07331 11.4574 8.90094 11.2758C9.41995 11.2242 9.60026 11.1949 9.80094 11.1297C10.4625 10.9146 11.0091 10.3421 11.1848 9.6801C11.2355 9.48928 11.2543 9.35536 11.3036 8.838C11.4654 7.13655 11.4699 5.98912 11.3213 4.365C11.2348 3.42105 11.2049 3.27327 11.0292 2.92441C10.8505 2.56966 10.4522 2.17517 10.0889 1.99318C9.9476 1.92236 9.69871 1.83989 9.53589 1.8099C9.2749 1.76184 8.20736 1.66219 7.50594 1.62041C7.06116 1.59392 6.2632 1.58488 5.87694 1.60196ZM15.3539 5.83202C15.1038 5.87774 14.9119 6.05536 14.8399 6.30776C14.7821 6.51069 14.8489 6.76168 14.9998 6.90809C15.0411 6.94818 15.1519 7.03141 15.2459 7.09306C15.4601 7.23346 15.7239 7.49536 15.8746 7.71732C16.005 7.90918 16.1115 7.99711 16.2773 8.04975C16.5738 8.14387 16.909 7.99279 17.0445 7.70404C17.0843 7.61922 17.0909 7.58032 17.0909 7.43316C17.0909 7.27389 17.0865 7.25261 17.0306 7.14242C16.8798 6.84499 16.4937 6.40948 16.1622 6.16268C15.758 5.86181 15.5828 5.79017 15.3539 5.83202ZM16.8232 9.8744C16.599 9.94597 16.4231 10.1405 16.3804 10.3641C16.3706 10.4157 16.3717 10.651 16.3834 10.9648C16.3971 11.3328 16.3971 11.6324 16.3831 12.01C16.3627 12.5636 16.3694 12.6581 16.438 12.789C16.4897 12.8875 16.6088 13.0055 16.7065 13.0549C17.0406 13.2238 17.425 13.1007 17.5862 12.7732C17.6378 12.6683 17.6432 12.6389 17.6607 12.3646C17.6719 12.1902 17.6759 11.7333 17.6706 11.25C17.6608 10.369 17.6542 10.3028 17.5617 10.1565C17.5007 10.0601 17.3632 9.93899 17.2651 9.89534C17.1546 9.84618 16.943 9.83615 16.8232 9.8744ZM6.35394 14.92C6.2085 14.9671 6.05571 15.0797 5.9856 15.1912C5.86664 15.3805 5.85372 15.636 5.9532 15.831C6.087 16.0932 6.43688 16.5063 6.72358 16.7405C6.9119 16.8944 7.23174 17.0973 7.33371 17.1276C7.61523 17.2113 7.91439 17.0963 8.06755 16.8455C8.18875 16.647 8.19973 16.4331 8.09934 16.2258C8.03757 16.0982 7.98882 16.0511 7.7619 15.9002C7.50896 15.732 7.27386 15.5036 7.11615 15.273C6.97954 15.0732 6.9321 15.0276 6.79494 14.9639C6.70958 14.9243 6.65673 14.9129 6.54294 14.9096C6.46374 14.9073 6.37869 14.9119 6.35394 14.92ZM16.2539 14.9359C16.0712 15.0062 16.0141 15.0572 15.8562 15.2909C15.713 15.5029 15.4717 15.7355 15.224 15.9002C14.9971 16.0511 14.9483 16.0982 14.8865 16.2258C14.7861 16.4331 14.7971 16.647 14.9183 16.8455C15.0715 17.0963 15.3706 17.2113 15.6522 17.1276C15.7541 17.0973 16.074 16.8944 16.2623 16.7405C16.5472 16.5077 16.8941 16.0989 17.0339 15.831C17.0855 15.7323 17.0904 15.7084 17.0906 15.552C17.0909 15.4011 17.0848 15.3678 17.039 15.2686C16.9793 15.1394 16.8775 15.037 16.7371 14.9649C16.6126 14.9011 16.3806 14.8871 16.2539 14.9359ZM10.3271 16.3993C9.92735 16.4953 9.71783 16.9398 9.89895 17.3077C9.98873 17.4901 10.1514 17.6183 10.3444 17.6589C10.473 17.6859 11.9406 17.7011 12.3187 17.6793C12.624 17.6616 12.6464 17.6578 12.7543 17.6047C12.8732 17.5461 12.992 17.4299 13.0493 17.316C13.2126 16.9916 13.0685 16.596 12.7291 16.4369L12.6269 16.389L12.1769 16.398C11.6503 16.4085 11.1504 16.4068 10.7099 16.3929C10.5367 16.3875 10.3644 16.3903 10.3271 16.3993Z" fill="#6C6C6C"/>
</g>
<defs>
<clipPath id="clip0_42_1185">
<rect width="18" height="18" fill="white"/>
</clipPath>
</defs>
</svg>
