<svg width="66" height="50" viewBox="0 0 66 50" fill="none" xmlns="http://www.w3.org/2000/svg">
<path fill-rule="evenodd" clip-rule="evenodd" d="M66 35.7682V35.8051C65.9994 37.6888 65.9058 39.6066 65.7158 41.5599C65.7106 41.6198 65.6794 41.6745 65.6299 41.7109C59.9847 45.8313 54.5164 48.3328 49.1235 49.9909C49.0376 50.0169 48.944 49.9857 48.892 49.9128C47.6459 48.1896 46.5142 46.3727 45.5231 44.4648C45.4658 44.3529 45.5179 44.2175 45.6349 44.1733C47.4325 43.4991 49.1417 42.6922 50.7859 41.7369C50.9159 41.6614 50.9237 41.4766 50.8041 41.3881C50.4555 41.1304 50.1095 40.8597 49.7791 40.589C49.7167 40.5395 49.6334 40.5291 49.5631 40.5629C38.8892 45.4644 27.1955 45.4644 16.3942 40.5629C16.3239 40.5317 16.2406 40.5421 16.1809 40.5915C15.8505 40.8623 15.5044 41.1304 15.1584 41.3881C15.0388 41.4766 15.0492 41.6614 15.1793 41.7369C16.8234 42.674 18.5326 43.4991 20.3276 44.1759C20.4447 44.2201 20.4993 44.3529 20.4421 44.4648C19.4718 46.3754 18.3401 48.1923 17.0706 49.9154C17.0159 49.9857 16.9249 50.0169 16.839 49.9909C11.4722 48.3328 6.00382 45.8313 0.358595 41.7109C0.311767 41.6745 0.277948 41.6172 0.272745 41.5573C-0.877113 29.3181 1.46683 16.9253 10.0232 4.22021C10.0439 4.1864 10.0751 4.16034 10.1116 4.14473C14.3208 2.22373 18.8318 0.810323 23.5456 0.00339581C23.6315 -0.00962215 23.7173 0.0294215 23.7616 0.104905C24.3443 1.13046 25.0103 2.445 25.4604 3.51998C30.4293 2.76514 35.4761 2.76514 40.549 3.51998C40.999 2.46838 41.6416 1.13046 42.2218 0.104905C42.266 0.0268161 42.3518 -0.0122276 42.4377 0.00339581C47.1542 0.81291 51.6652 2.22631 55.8718 4.14473C55.9082 4.16034 55.9394 4.1864 55.9576 4.2228C62.3753 13.6049 65.9962 24.0214 66 35.7682ZM38.0542 27.4934C38.0542 31.1376 40.7337 34.1049 43.9856 34.1049C47.3155 34.1049 49.917 31.1376 49.917 27.4934C49.969 23.8753 47.3155 20.8819 43.9856 20.8819C40.6817 20.8819 38.0542 23.8492 38.0542 27.4934ZM22.0551 34.1049C18.8031 34.1049 16.1236 31.1376 16.1236 27.4934C16.1236 23.8492 18.7512 20.8819 22.0551 20.8819C25.3849 20.8819 28.0385 23.8753 27.9864 27.4934C27.9864 31.1376 25.3589 34.1049 22.0551 34.1049Z" fill="#5865F2"/>
<path d="M55.8718 4.14473C51.6652 2.22631 47.1542 0.81291 42.4377 0.00339581C42.3518 -0.0122276 42.266 0.0268161 42.2218 0.104905C41.6416 1.13046 40.999 2.46838 40.549 3.51998C35.4761 2.76514 30.4293 2.76514 25.4604 3.51998C25.0103 2.445 24.3443 1.13046 23.7616 0.104905C23.7173 0.0294215 23.6315 -0.00962215 23.5456 0.00339581C18.8318 0.810323 14.3208 2.22373 10.1116 4.14473C10.0751 4.16034 10.0439 4.1864 10.0232 4.22021C1.46683 16.9253 -0.877113 29.3181 0.272745 41.5573C0.277948 41.6172 0.311767 41.6745 0.358595 41.7109C6.00382 45.8313 11.4722 48.3328 16.839 49.9909C16.9249 50.0169 17.0159 49.9857 17.0706 49.9154C18.3401 48.1923 19.4718 46.3754 20.4421 44.4648C20.4993 44.3529 20.4447 44.2201 20.3276 44.1759C18.5326 43.4991 16.8234 42.674 15.1793 41.7369C15.0492 41.6614 15.0388 41.4766 15.1584 41.3881C15.5044 41.1304 15.8505 40.8623 16.1809 40.5915C16.2406 40.5421 16.3239 40.5317 16.3942 40.5629C27.1955 45.4644 38.8892 45.4644 49.5631 40.5629C49.6334 40.5291 49.7167 40.5395 49.7791 40.589C50.1095 40.8597 50.4555 41.1304 50.8041 41.3881C50.9237 41.4766 50.9159 41.6614 50.7859 41.7369C49.1417 42.6922 47.4325 43.4991 45.6349 44.1733C45.5179 44.2175 45.4658 44.3529 45.5231 44.4648C46.5142 46.3727 47.6459 48.1896 48.892 49.9128C48.944 49.9857 49.0376 50.0169 49.1235 49.9909C54.5164 48.3328 59.9847 45.8313 65.6299 41.7109C65.6794 41.6745 65.7106 41.6198 65.7158 41.5599C65.9058 39.6066 65.9994 37.6888 66 35.8051C66 35.7928 66 35.7805 66 35.7682C65.9962 24.0214 62.3753 13.6049 55.9576 4.2228C55.9394 4.1864 55.9082 4.16034 55.8718 4.14473ZM22.0551 34.1049C18.8031 34.1049 16.1236 31.1376 16.1236 27.4934C16.1236 23.8492 18.7512 20.8819 22.0551 20.8819C25.3849 20.8819 28.0385 23.8753 27.9864 27.4934C27.9864 31.1376 25.3589 34.1049 22.0551 34.1049ZM43.9856 34.1049C40.7337 34.1049 38.0542 31.1376 38.0542 27.4934C38.0542 23.8492 40.6817 20.8819 43.9856 20.8819C47.3155 20.8819 49.969 23.8753 49.917 27.4934C49.917 31.1376 47.3155 34.1049 43.9856 34.1049Z" fill="#5865F2"/>
</svg>
