<svg width="19" height="18" viewBox="0 0 19 18" fill="none" xmlns="http://www.w3.org/2000/svg">
<g clip-path="url(#clip0_11_110)">
<path fill-rule="evenodd" clip-rule="evenodd" d="M1.07607 0.155696C0.709841 0.288788 0.529751 0.693086 0.685721 1.03206C0.769763 1.21473 2.72953 3.66613 3.95445 5.1208C5.90426 7.4363 7.77194 9.4291 9.68063 11.2306C9.86347 11.4032 10.0738 11.602 10.1481 11.6724C10.7377 12.2315 12.1479 13.4801 13.1181 14.3021C14.6552 15.6043 17.2554 17.706 17.4506 17.8039C17.605 17.8813 17.75 17.8919 17.9253 17.8386C18.0393 17.804 18.0707 17.7844 18.1666 17.6878C18.3234 17.5299 18.3634 17.438 18.3637 17.2348C18.364 17.0598 18.332 16.9591 18.2364 16.8337C18.2108 16.8002 17.8324 16.4873 17.3955 16.1384C16.4983 15.422 15.8407 14.8887 15.1117 14.2863L14.6123 13.8736L14.7337 13.7822C15.9997 12.8294 17.2456 11.3818 17.8349 10.1788C18.2836 9.26263 18.2867 8.74026 17.8484 7.84287C17.1539 6.4207 15.7016 4.834 14.1351 3.78583C11.8738 2.27277 9.54062 1.87511 7.25223 2.61273C6.43341 2.87667 5.73883 3.21472 4.93946 3.73831C4.78236 3.8412 4.64768 3.92301 4.64018 3.92009C4.59689 3.90333 2.97781 1.90188 2.03502 0.69971C1.71914 0.296924 1.67338 0.25025 1.52958 0.184154C1.40448 0.126644 1.19262 0.11336 1.07607 0.155696ZM9.04107 3.55716C8.69885 3.5949 8.59031 3.61069 8.36371 3.65569C7.46425 3.83432 6.59465 4.20271 5.67883 4.79309C5.57198 4.86198 5.48693 4.92478 5.48983 4.93266C5.49698 4.95221 6.39745 5.97979 6.76155 6.38389L7.05626 6.71101L7.21852 6.56782C7.54381 6.28072 7.91625 6.0719 8.32282 5.94864C8.95217 5.75782 9.74739 5.7315 10.416 5.87937C11.7039 6.16419 12.5177 7.09162 12.6881 8.4688C12.7156 8.69067 12.7153 9.2941 12.6877 9.5128C12.5953 10.244 12.3641 10.7877 11.9388 11.2742C11.8041 11.4283 11.8007 11.4344 11.8334 11.4646C12.0648 11.6791 13.1205 12.6081 13.4479 12.8854L13.6044 13.018L13.8157 12.8597C15.021 11.9573 16.1134 10.725 16.6542 9.65791C16.808 9.35438 16.8835 9.13735 16.8836 8.99904C16.8837 8.82878 16.7422 8.47504 16.5193 8.08804C15.8219 6.87727 14.5295 5.55791 13.2422 4.74235C12.1702 4.06323 11.1015 3.67196 10.0247 3.56441C9.85597 3.54756 9.17364 3.54252 9.04107 3.55716ZM2.44173 6.11091C2.29982 6.15641 2.19166 6.24434 2.04332 6.4348C1.69811 6.87805 1.38459 7.37292 1.16524 7.8208C0.708635 8.75311 0.711191 9.26685 1.17714 10.2058C1.79333 11.4476 3.01773 12.8479 4.37907 13.8678C6.38827 15.3731 8.55916 15.998 10.6071 15.6607C11.2456 15.5555 11.3719 15.5059 11.5169 15.3034C11.8091 14.8952 11.544 14.3255 11.0481 14.2958C10.9483 14.2899 10.852 14.3 10.6791 14.3348C10.2717 14.4166 10.0781 14.438 9.64978 14.4484C9.19074 14.4596 8.92717 14.442 8.51907 14.3728C6.74485 14.0719 4.86932 12.9024 3.38086 11.1688C2.69427 10.3691 2.11559 9.37652 2.11679 9.00055C2.11724 8.85744 2.19191 8.64162 2.34309 8.34636C2.53812 7.96548 2.68284 7.74028 3.09092 7.18266C3.24538 6.97161 3.28058 6.87103 3.26741 6.67864C3.25123 6.44254 3.12202 6.25314 2.90458 6.14674C2.77678 6.08423 2.57392 6.06852 2.44173 6.11091ZM9.1252 7.09378C8.67689 7.14585 8.2902 7.31487 8.04353 7.56655L7.946 7.66607L8.16053 7.89616C8.76801 8.54769 10.7851 10.5298 10.8407 10.5298C10.8802 10.5298 11.0822 10.2968 11.165 10.1557C11.3399 9.85777 11.4153 9.50992 11.4155 8.9998C11.4158 8.5089 11.3567 8.22038 11.1905 7.90093C11.0046 7.54356 10.6688 7.284 10.2381 7.16473C9.94669 7.08406 9.47041 7.05369 9.1252 7.09378Z" fill="#424242"/>
</g>
<defs>
<clipPath id="clip0_11_110">
<rect width="18" height="18" fill="white" transform="translate(0.5)"/>
</clipPath>
</defs>
</svg>
