<svg width="125" height="48" viewBox="0 0 125 48" fill="none" xmlns="http://www.w3.org/2000/svg">
<path d="M59.2264 35.2V18.232H62.2188V32.464H71.0282V35.2H59.2264Z" fill="white"/>
<path d="M72.7976 35.2V22.552H75.7182V35.2H72.7976ZM74.2579 21.088C73.6993 21.088 73.2525 20.92 72.9173 20.584C72.5822 20.248 72.4146 19.808 72.4146 19.264C72.4146 18.736 72.5902 18.304 72.9413 17.968C73.2924 17.616 73.7312 17.44 74.2579 17.44C74.7686 17.44 75.2075 17.608 75.5745 17.944C75.9416 18.28 76.1251 18.72 76.1251 19.264C76.1251 19.808 75.9496 20.248 75.5985 20.584C75.2474 20.92 74.8005 21.088 74.2579 21.088Z" fill="white"/>
<path d="M87.5974 39.856V33.664C87.1505 34.288 86.568 34.728 85.8499 34.984C85.1477 35.24 84.4295 35.368 83.6954 35.368C82.7378 35.368 81.9 35.208 81.1818 34.888C80.4796 34.552 79.8971 34.096 79.4343 33.52C78.9874 32.928 78.6443 32.24 78.4049 31.456C78.1815 30.672 78.0698 29.832 78.0698 28.936C78.0698 27.672 78.2932 26.544 78.7401 25.552C79.1869 24.56 79.8412 23.784 80.703 23.224C81.5648 22.648 82.6181 22.36 83.863 22.36C84.5811 22.36 85.2833 22.488 85.9696 22.744C86.6558 22.984 87.2144 23.384 87.6453 23.944L87.7889 22.552H90.5179V39.856H87.5974ZM84.2699 32.728C84.9881 32.728 85.5945 32.56 86.0893 32.224C86.5999 31.872 86.983 31.4 87.2383 30.808C87.4937 30.216 87.6213 29.568 87.6213 28.864C87.6213 28.128 87.4937 27.472 87.2383 26.896C86.983 26.32 86.6079 25.864 86.1132 25.528C85.6185 25.176 84.9961 25 84.246 25C83.464 25 82.8336 25.184 82.3548 25.552C81.876 25.904 81.5249 26.376 81.3015 26.968C81.0781 27.544 80.9664 28.176 80.9664 28.864C80.9664 29.568 81.0781 30.216 81.3015 30.808C81.5249 31.4 81.884 31.872 82.3787 32.224C82.8735 32.56 83.5039 32.728 84.2699 32.728Z" fill="white"/>
<path d="M98.9243 35.368C97.105 35.368 95.7086 34.896 94.7351 33.952C93.7775 33.008 93.2987 31.568 93.2987 29.632V22.552H96.2193V29.44C96.2193 30.112 96.307 30.696 96.4826 31.192C96.6741 31.688 96.9694 32.072 97.3683 32.344C97.7833 32.6 98.3019 32.728 98.9243 32.728C99.5946 32.728 100.121 32.592 100.504 32.32C100.903 32.032 101.183 31.64 101.342 31.144C101.502 30.648 101.582 30.08 101.582 29.44V22.552H104.502V29.632C104.502 31.616 104.007 33.072 103.018 34C102.044 34.912 100.68 35.368 98.9243 35.368Z" fill="white"/>
<path d="M107.28 35.2V22.552H110.2V35.2H107.28ZM108.74 21.088C108.181 21.088 107.735 20.92 107.399 20.584C107.064 20.248 106.897 19.808 106.897 19.264C106.897 18.736 107.072 18.304 107.423 17.968C107.774 17.616 108.213 17.44 108.74 17.44C109.251 17.44 109.69 17.608 110.057 17.944C110.424 18.28 110.607 18.72 110.607 19.264C110.607 19.808 110.432 20.248 110.081 20.584C109.729 20.92 109.283 21.088 108.74 21.088Z" fill="white"/>
<path d="M118.177 35.368C116.901 35.368 115.847 35.08 115.018 34.504C114.188 33.912 113.565 33.128 113.15 32.152C112.751 31.176 112.552 30.088 112.552 28.888C112.552 27.64 112.767 26.528 113.198 25.552C113.629 24.56 114.275 23.784 115.137 23.224C115.999 22.648 117.076 22.36 118.369 22.36C118.848 22.36 119.311 22.416 119.757 22.528C120.22 22.624 120.651 22.784 121.05 23.008C121.465 23.216 121.808 23.496 122.079 23.848V18.232H125V35.2H122.175L122.127 33.616C121.824 34.016 121.465 34.344 121.05 34.6C120.651 34.856 120.204 35.048 119.71 35.176C119.215 35.304 118.704 35.368 118.177 35.368ZM118.728 32.728C119.494 32.728 120.124 32.552 120.619 32.2C121.114 31.832 121.481 31.352 121.72 30.76C121.976 30.152 122.103 29.512 122.103 28.84C122.103 28.136 121.976 27.496 121.72 26.92C121.481 26.344 121.114 25.88 120.619 25.528C120.124 25.176 119.494 25 118.728 25C117.914 25 117.268 25.184 116.789 25.552C116.326 25.92 115.983 26.408 115.76 27.016C115.552 27.608 115.448 28.248 115.448 28.936C115.448 29.448 115.504 29.936 115.616 30.4C115.744 30.848 115.935 31.248 116.191 31.6C116.446 31.952 116.781 32.232 117.196 32.44C117.611 32.632 118.122 32.728 118.728 32.728Z" fill="white"/>
<path fill-rule="evenodd" clip-rule="evenodd" d="M34.7813 36.7193C34.0252 35.9594 32.9998 35.5325 31.9305 35.5325H18.9178C16.6912 35.5325 14.8862 37.3466 14.8862 39.5844V43.948C14.8862 46.1859 16.6912 48 18.9178 48H36.2723C39.8641 48 41.6629 43.6355 39.1231 41.0829L34.7813 36.7193ZM12.4051 38.6678C12.4051 36.9362 11.0084 35.5325 9.28554 35.5325C6.50628 35.5325 5.11441 38.9096 7.07965 40.8847C9.04489 42.8599 12.4051 41.461 12.4051 38.6678ZM47.7598 19.013C47.7598 16.7752 45.9547 14.961 43.7281 14.961H39.3863C37.1597 14.961 35.3546 16.7752 35.3546 19.013V32.0911C35.3546 33.1658 35.7794 34.1964 36.5355 34.9563L40.8773 39.3199C43.4171 41.8725 47.7598 40.0646 47.7598 36.4547V19.013ZM12.4051 15.9089C12.4051 14.8342 11.9804 13.8036 11.2243 13.0437L6.88249 8.68009C4.34268 6.12751 0 7.93536 0 11.5453V28.987C0 31.2248 1.80504 33.039 4.03167 33.039H8.37347C10.6001 33.039 12.4051 31.2248 12.4051 28.987V15.9089ZM32.8736 19.013C32.8736 16.7752 31.0686 14.961 28.8419 14.961H18.9178C16.6912 14.961 14.8862 16.7752 14.8862 19.013V28.987C14.8862 31.2248 16.6912 33.039 18.9178 33.039H28.8419C31.0686 33.039 32.8736 31.2248 32.8736 28.987V19.013ZM32.8736 4.05195C32.8736 1.81412 31.0686 0 28.8419 0H11.4875C7.89564 0 6.09684 4.36452 8.63665 6.9171L12.9785 11.2807C13.7345 12.0406 14.76 12.4675 15.8293 12.4675H28.8419C31.0686 12.4675 32.8736 10.6534 32.8736 8.41558V4.05195ZM38.4742 12.4675C41.2535 12.4675 42.6454 9.09038 40.6801 7.11526C38.7149 5.14014 35.3546 6.539 35.3546 9.33224C35.3546 11.0638 36.7513 12.4675 38.4742 12.4675Z" fill="white"/>
</svg>
