<svg width="29" height="30" viewBox="0 0 29 30" fill="none" xmlns="http://www.w3.org/2000/svg">
<g clip-path="url(#clip0_1_603)">
<mask id="mask0_1_603" style="mask-type:luminance" maskUnits="userSpaceOnUse" x="0" y="0" width="29" height="30">
<path d="M28.7215 12.2171H14.8089V17.9842H22.8031C22.6746 18.8003 22.3861 19.6032 21.9635 20.3354C21.4793 21.1741 20.8808 21.8127 20.2673 22.299C18.4296 23.7558 16.2871 24.0537 14.7992 24.0537C11.0404 24.0537 7.82883 21.5406 6.58555 18.1257C6.53538 18.0018 6.50206 17.8738 6.4615 17.7473C6.18676 16.8781 6.03664 15.9577 6.03664 15.001C6.03664 14.0053 6.1992 13.0522 6.49559 12.152C7.66469 8.60176 10.9487 5.95008 14.8019 5.95008C15.5769 5.95008 16.3232 6.04551 17.031 6.23586C18.6485 6.67088 19.7927 7.52765 20.4937 8.20535L24.724 3.9197C22.1508 1.47896 18.7963 3.69022e-09 14.7948 3.69022e-09C11.596 -7.12241e-05 8.6426 1.03098 6.22243 2.77348C4.25975 4.18661 2.65007 6.0786 1.56373 8.27594C0.553285 10.3133 0 12.5711 0 14.9987C0 17.4264 0.55413 19.7076 1.56458 21.7262V21.7398C2.63187 23.8828 4.19261 25.7279 6.08952 27.1345C7.74668 28.3634 10.7181 30 14.7948 30C17.1392 30 19.2171 29.5627 21.0495 28.7433C22.3714 28.1522 23.5426 27.3811 24.603 26.3902C26.0041 25.0809 27.1014 23.4614 27.8504 21.5981C28.5994 19.7348 29 17.6277 29 15.3433C29 14.2794 28.8967 13.199 28.7215 12.217V12.2171Z" fill="white"/>
</mask>
<g mask="url(#mask0_1_603)">
<g filter="url(#filter0_f_1_603)">
<path d="M-0.213379 15.1005C-0.198001 17.4899 0.460146 19.9551 1.45636 21.9452V21.9589C2.17617 23.4042 3.15995 24.5458 4.28046 25.677L11.048 23.1225C9.76764 22.4497 9.57227 22.0374 8.65444 21.2851C7.71651 20.3067 7.01745 19.1835 6.58211 17.8665H6.56457L6.58211 17.8528C6.2957 16.9831 6.26745 16.0599 6.25689 15.1005H-0.213379Z" fill="url(#paint0_radial_1_603)"/>
</g>
<g filter="url(#filter1_f_1_603)">
<path d="M14.809 -0.109131C14.1401 2.32186 14.3958 4.68486 14.809 6.05976C15.5814 6.06036 16.3255 6.15561 17.0311 6.34537C18.6486 6.78038 19.7926 7.63718 20.4937 8.31488L24.8323 3.91974C22.2621 1.48191 19.169 -0.10529 14.809 -0.109131Z" fill="url(#paint1_radial_1_603)"/>
</g>
<g filter="url(#filter2_f_1_603)">
<path d="M14.7945 -0.128357C11.5135 -0.12843 8.48431 0.929087 6.00202 2.71633C5.08034 3.37994 4.23453 4.14651 3.48139 4.99895C3.28409 6.91378 4.95836 9.2673 8.27394 9.24782C9.88264 7.31201 12.2619 6.05955 14.91 6.05955C14.9124 6.05955 14.9147 6.05975 14.9171 6.05976L14.809 -0.127919C14.8041 -0.127922 14.7994 -0.128357 14.7945 -0.128357Z" fill="url(#paint2_radial_1_603)"/>
</g>
<g filter="url(#filter3_f_1_603)">
<path d="M25.6236 15.7934L22.6951 17.8746C22.5666 18.6908 22.2778 19.4937 21.8553 20.2258C21.3711 21.0646 20.7726 21.7032 20.1591 22.1895C18.3252 23.6433 16.1884 23.9426 14.7008 23.9438C13.1633 26.6528 12.8937 28.0097 14.809 30.1961C17.1789 30.1943 19.2799 29.7518 21.1331 28.923C22.4728 28.324 23.6596 27.5426 24.7343 26.5384C26.1542 25.2115 27.2664 23.5702 28.0254 21.6819C28.7844 19.7936 29.1903 17.6584 29.1903 15.3433L25.6236 15.7934Z" fill="url(#paint3_radial_1_603)"/>
</g>
<g filter="url(#filter4_f_1_603)">
<path d="M14.5927 11.998V18.2033H28.6825C28.8064 17.3535 29.2163 16.2538 29.2163 15.3434C29.2163 14.2795 29.1131 12.98 28.9379 11.998H14.5927Z" fill="#3086FF"/>
</g>
<g filter="url(#filter5_f_1_603)">
<path d="M3.54861 4.77991C2.67912 5.76405 1.93631 6.86559 1.34735 8.05688C0.336921 10.0943 -0.216339 12.5712 -0.216339 14.9987C-0.216339 15.0329 -0.213602 15.0664 -0.213382 15.1006C0.234108 15.9881 5.96788 15.8182 6.25688 15.1006C6.25652 15.0671 6.25288 15.0344 6.25288 15.0009C6.25288 14.0052 6.41548 13.2713 6.71187 12.3711C7.07751 11.2608 7.65001 10.2383 8.38209 9.35737C8.54804 9.13819 8.9907 8.66701 9.11985 8.38439C9.16905 8.27674 9.03054 8.21631 9.02279 8.17842C9.01413 8.13604 8.82842 8.17012 8.78681 8.13855C8.65472 8.03832 8.39314 7.98598 8.23429 7.93945C7.89478 7.84 7.33212 7.6207 7.0196 7.39336C6.03173 6.67476 4.49007 5.8164 3.54861 4.77991Z" fill="url(#paint4_radial_1_603)"/>
</g>
<g filter="url(#filter6_f_1_603)">
<path d="M7.0408 8.18263C9.33156 9.61811 9.99035 7.45806 11.5134 6.78213L8.86401 1.09857C7.88942 1.52231 6.96863 2.04878 6.11428 2.6639C4.83838 3.58254 3.71166 4.70355 2.78091 5.97927L7.0408 8.18263Z" fill="url(#paint5_radial_1_603)"/>
</g>
<g filter="url(#filter7_f_1_603)">
<path d="M7.97317 22.6834C4.89811 23.8318 4.41669 23.873 4.13364 25.8444C4.67455 26.3905 5.25572 26.8956 5.8733 27.3536C7.53046 28.5824 10.7181 30.219 14.7948 30.219C14.7996 30.219 14.8042 30.2186 14.809 30.2186V23.8343C14.8059 23.8343 14.8024 23.8345 14.7993 23.8345C13.2727 23.8345 12.0528 23.4197 10.802 22.6984C10.4936 22.5206 9.93412 22.9981 9.64971 22.7846C9.25744 22.4902 8.3134 23.0383 7.97317 22.6834Z" fill="url(#paint6_radial_1_603)"/>
</g>
<g opacity="0.5" filter="url(#filter8_f_1_603)">
<path d="M13.0081 23.6332V30.108C13.5785 30.1771 14.1721 30.2191 14.7948 30.2191C15.4191 30.2191 16.023 30.1859 16.6099 30.1249V23.6769C15.9522 23.7932 15.3328 23.8346 14.7993 23.8346C14.1848 23.8346 13.5871 23.7605 13.0081 23.6332Z" fill="url(#paint7_linear_1_603)"/>
</g>
</g>
</g>
<defs>
<filter id="filter0_f_1_603" x="-0.683458" y="14.6304" width="12.2016" height="11.5166" filterUnits="userSpaceOnUse" color-interpolation-filters="sRGB">
<feFlood flood-opacity="0" result="BackgroundImageFix"/>
<feBlend mode="normal" in="SourceGraphic" in2="BackgroundImageFix" result="shape"/>
<feGaussianBlur stdDeviation="0.23504" result="effect1_foregroundBlur_1_603"/>
</filter>
<filter id="filter1_f_1_603" x="13.9276" y="-0.57921" width="11.3747" height="9.36417" filterUnits="userSpaceOnUse" color-interpolation-filters="sRGB">
<feFlood flood-opacity="0" result="BackgroundImageFix"/>
<feBlend mode="normal" in="SourceGraphic" in2="BackgroundImageFix" result="shape"/>
<feGaussianBlur stdDeviation="0.23504" result="effect1_foregroundBlur_1_603"/>
</filter>
<filter id="filter2_f_1_603" x="2.99568" y="-0.598436" width="12.3915" height="10.3164" filterUnits="userSpaceOnUse" color-interpolation-filters="sRGB">
<feFlood flood-opacity="0" result="BackgroundImageFix"/>
<feBlend mode="normal" in="SourceGraphic" in2="BackgroundImageFix" result="shape"/>
<feGaussianBlur stdDeviation="0.23504" result="effect1_foregroundBlur_1_603"/>
</filter>
<filter id="filter3_f_1_603" x="12.9893" y="14.8732" width="16.6711" height="15.7929" filterUnits="userSpaceOnUse" color-interpolation-filters="sRGB">
<feFlood flood-opacity="0" result="BackgroundImageFix"/>
<feBlend mode="normal" in="SourceGraphic" in2="BackgroundImageFix" result="shape"/>
<feGaussianBlur stdDeviation="0.23504" result="effect1_foregroundBlur_1_603"/>
</filter>
<filter id="filter4_f_1_603" x="14.1226" y="11.528" width="15.5638" height="7.14542" filterUnits="userSpaceOnUse" color-interpolation-filters="sRGB">
<feFlood flood-opacity="0" result="BackgroundImageFix"/>
<feBlend mode="normal" in="SourceGraphic" in2="BackgroundImageFix" result="shape"/>
<feGaussianBlur stdDeviation="0.23504" result="effect1_foregroundBlur_1_603"/>
</filter>
<filter id="filter5_f_1_603" x="-0.686418" y="4.30983" width="10.2869" height="11.8644" filterUnits="userSpaceOnUse" color-interpolation-filters="sRGB">
<feFlood flood-opacity="0" result="BackgroundImageFix"/>
<feBlend mode="normal" in="SourceGraphic" in2="BackgroundImageFix" result="shape"/>
<feGaussianBlur stdDeviation="0.23504" result="effect1_foregroundBlur_1_603"/>
</filter>
<filter id="filter6_f_1_603" x="-0.523936" y="-2.20628" width="15.3422" height="14.1762" filterUnits="userSpaceOnUse" color-interpolation-filters="sRGB">
<feFlood flood-opacity="0" result="BackgroundImageFix"/>
<feBlend mode="normal" in="SourceGraphic" in2="BackgroundImageFix" result="shape"/>
<feGaussianBlur stdDeviation="1.65243" result="effect1_foregroundBlur_1_603"/>
</filter>
<filter id="filter7_f_1_603" x="3.66356" y="22.1878" width="11.6155" height="8.50138" filterUnits="userSpaceOnUse" color-interpolation-filters="sRGB">
<feFlood flood-opacity="0" result="BackgroundImageFix"/>
<feBlend mode="normal" in="SourceGraphic" in2="BackgroundImageFix" result="shape"/>
<feGaussianBlur stdDeviation="0.23504" result="effect1_foregroundBlur_1_603"/>
</filter>
<filter id="filter8_f_1_603" x="12.538" y="23.1632" width="4.54197" height="7.52597" filterUnits="userSpaceOnUse" color-interpolation-filters="sRGB">
<feFlood flood-opacity="0" result="BackgroundImageFix"/>
<feBlend mode="normal" in="SourceGraphic" in2="BackgroundImageFix" result="shape"/>
<feGaussianBlur stdDeviation="0.23504" result="effect1_foregroundBlur_1_603"/>
</filter>
<radialGradient id="paint0_radial_1_603" cx="0" cy="0" r="1" gradientUnits="userSpaceOnUse" gradientTransform="translate(10.9125 25.4519) rotate(-92.3099) scale(14.952 21.6853)">
<stop offset="0.141612" stop-color="#1ABD4D"/>
<stop offset="0.247515" stop-color="#6EC30D"/>
<stop offset="0.311547" stop-color="#8AC502"/>
<stop offset="0.366013" stop-color="#A2C600"/>
<stop offset="0.445673" stop-color="#C8C903"/>
<stop offset="0.540305" stop-color="#EBCB03"/>
<stop offset="0.615636" stop-color="#F7CD07"/>
<stop offset="0.699345" stop-color="#FDCD04"/>
<stop offset="0.771242" stop-color="#FDCE05"/>
<stop offset="0.860566" stop-color="#FFCE0A"/>
</radialGradient>
<radialGradient id="paint1_radial_1_603" cx="0" cy="0" r="1" gradientUnits="userSpaceOnUse" gradientTransform="translate(24.4264 7.99687) scale(10.2342 13.3866)">
<stop offset="0.408458" stop-color="#FB4E5A"/>
<stop offset="1" stop-color="#FF4540"/>
</radialGradient>
<radialGradient id="paint2_radial_1_603" cx="0" cy="0" r="1" gradientUnits="userSpaceOnUse" gradientTransform="translate(18.8375 -2.06611) rotate(150.709) scale(16.4409 22.4603)">
<stop offset="0.231273" stop-color="#FF4541"/>
<stop offset="0.311547" stop-color="#FF4540"/>
<stop offset="0.457516" stop-color="#FF4640"/>
<stop offset="0.540305" stop-color="#FF473F"/>
<stop offset="0.699346" stop-color="#FF5138"/>
<stop offset="0.771242" stop-color="#FF5B33"/>
<stop offset="0.860566" stop-color="#FF6C29"/>
<stop offset="1" stop-color="#FF8C18"/>
</radialGradient>
<radialGradient id="paint3_radial_1_603" cx="0" cy="0" r="1" gradientUnits="userSpaceOnUse" gradientTransform="translate(15.0222 28.2545) rotate(-127.102) scale(43.1074 15.858)">
<stop offset="0.131546" stop-color="#0CBA65"/>
<stop offset="0.209784" stop-color="#0BB86D"/>
<stop offset="0.297297" stop-color="#09B479"/>
<stop offset="0.396257" stop-color="#08AD93"/>
<stop offset="0.477124" stop-color="#0AA6A9"/>
<stop offset="0.568425" stop-color="#0D9CC6"/>
<stop offset="0.667385" stop-color="#1893DD"/>
<stop offset="0.768727" stop-color="#258BF1"/>
<stop offset="0.858506" stop-color="#3086FF"/>
</radialGradient>
<radialGradient id="paint4_radial_1_603" cx="0" cy="0" r="1" gradientUnits="userSpaceOnUse" gradientTransform="translate(13.5382 2.70507) rotate(96.5346) scale(16.1703 22.0822)">
<stop offset="0.366013" stop-color="#FF4E3A"/>
<stop offset="0.457516" stop-color="#FF8A1B"/>
<stop offset="0.540305" stop-color="#FFA312"/>
<stop offset="0.615636" stop-color="#FFB60C"/>
<stop offset="0.771242" stop-color="#FFCD0A"/>
<stop offset="0.860566" stop-color="#FECF0A"/>
<stop offset="0.915033" stop-color="#FECF08"/>
<stop offset="1" stop-color="#FDCD01"/>
</radialGradient>
<radialGradient id="paint5_radial_1_603" cx="0" cy="0" r="1" gradientUnits="userSpaceOnUse" gradientTransform="translate(10.9504 2.53839) rotate(131.756) scale(7.98734 22.498)">
<stop offset="0.315904" stop-color="#FF4C3C"/>
<stop offset="0.603818" stop-color="#FF692C"/>
<stop offset="0.726837" stop-color="#FF7825"/>
<stop offset="0.884534" stop-color="#FF8D1B"/>
<stop offset="1" stop-color="#FF9F13"/>
</radialGradient>
<radialGradient id="paint6_radial_1_603" cx="0" cy="0" r="1" gradientUnits="userSpaceOnUse" gradientTransform="translate(18.8375 32.0656) rotate(-150.709) scale(16.4409 22.4603)">
<stop offset="0.231273" stop-color="#0FBC5F"/>
<stop offset="0.311547" stop-color="#0FBC5F"/>
<stop offset="0.366013" stop-color="#0FBC5E"/>
<stop offset="0.457516" stop-color="#0FBC5D"/>
<stop offset="0.540305" stop-color="#12BC58"/>
<stop offset="0.699346" stop-color="#28BF3C"/>
<stop offset="0.771242" stop-color="#38C02B"/>
<stop offset="0.860566" stop-color="#52C218"/>
<stop offset="0.915033" stop-color="#67C30F"/>
<stop offset="1" stop-color="#86C504"/>
</radialGradient>
<linearGradient id="paint7_linear_1_603" x1="13.0081" y1="26.9262" x2="16.6099" y2="26.9262" gradientUnits="userSpaceOnUse">
<stop stop-color="#0FBC5C"/>
<stop offset="1" stop-color="#0CBA65"/>
</linearGradient>
<clipPath id="clip0_1_603">
<rect width="29" height="30" fill="white"/>
</clipPath>
</defs>
</svg>
