<svg width="24" height="25" viewBox="0 0 24 25" fill="none" xmlns="http://www.w3.org/2000/svg">
<g clip-path="url(#clip0_11_63)">
<path fill-rule="evenodd" clip-rule="evenodd" d="M11.7197 1.93652C11.4521 2.02902 11.2437 2.25577 11.1714 2.53316C11.1403 2.65268 11.1358 3.4491 11.1358 8.77314C11.1358 12.1298 11.1276 14.8761 11.1176 14.8761C11.0905 14.8761 10.6809 14.5628 10.3678 14.3025C10.216 14.1762 9.84773 13.8298 9.5495 13.5326C8.85333 12.8387 8.41545 12.3126 7.98331 11.6509C7.81238 11.3891 7.72713 11.2447 7.45545 10.7567C7.30644 10.489 7.20948 10.3886 7.00886 10.2945C6.89477 10.241 6.84321 10.2321 6.64776 10.2321C6.44323 10.2321 6.40548 10.2393 6.28101 10.3024C5.92569 10.4824 5.72558 10.8987 5.82002 11.2612C5.86034 11.416 5.93997 11.581 6.16308 11.9721C7.35336 14.0584 9.43329 16.0677 11.4951 17.1231L11.7705 17.2641H11.9999H12.2292L12.5045 17.1232C14.57 16.0658 16.6606 14.042 17.8505 11.9481C18.1584 11.4062 18.1799 11.3487 18.1787 11.0721C18.1778 10.8813 18.1673 10.8099 18.1276 10.7241C18.0481 10.5521 17.896 10.3991 17.7168 10.311C17.5712 10.2394 17.5366 10.2321 17.3401 10.2325C16.963 10.2331 16.762 10.3652 16.545 10.755C16.1629 11.4414 15.9718 11.7439 15.6474 12.1761C14.9912 13.0502 14.0057 14.0388 13.1279 14.7035C13.0026 14.7985 12.892 14.8761 12.8822 14.8761C12.8724 14.8761 12.8616 12.1032 12.8581 8.7141L12.8518 2.5521L12.7845 2.4081C12.5918 1.99552 12.1348 1.7931 11.7197 1.93652ZM1.09399 17.5263C1.01601 17.559 0.913414 17.6168 0.86599 17.6547C0.752494 17.7454 0.609262 17.9588 0.577294 18.0847C0.561142 18.1484 0.551758 18.5764 0.551758 19.2487C0.551758 20.1951 0.55699 20.3438 0.59923 20.6001C0.743974 21.4783 1.11518 22.2109 1.73462 22.8411C2.37979 23.4973 3.18413 23.9007 4.11045 24.0323C4.47864 24.0847 19.5201 24.0848 19.8882 24.0325C21.259 23.8376 22.4119 23.0077 23.0227 21.7762C23.2295 21.3591 23.3682 20.8901 23.4238 20.4201C23.441 20.2741 23.448 19.8169 23.4432 19.1481L23.4358 18.1041L23.3717 17.9674C23.2899 17.793 23.1229 17.6259 22.9485 17.5442C22.832 17.4896 22.7797 17.4801 22.5954 17.4801C22.3993 17.4801 22.364 17.4875 22.2187 17.559C22.0415 17.6461 21.9102 17.7776 21.8157 17.9627L21.7558 18.0801L21.7407 19.1481C21.7315 19.7969 21.7144 20.2773 21.6972 20.3721C21.5625 21.1129 21.0798 21.7571 20.4118 22.0879C20.0909 22.2468 19.871 22.3093 19.5238 22.3402C19.165 22.3721 4.83453 22.3721 4.47576 22.3402C4.13863 22.3101 3.91279 22.2476 3.60845 22.0999C2.93853 21.7749 2.48942 21.1965 2.3129 20.4316C2.28185 20.297 2.27126 20.0494 2.259 19.1721L2.24376 18.0801L2.18383 17.9627C2.08939 17.7778 1.95804 17.6461 1.78106 17.559C1.647 17.4929 1.58952 17.479 1.42833 17.4735C1.26785 17.468 1.21214 17.4768 1.09399 17.5263Z" fill="white"/>
</g>
<defs>
<clipPath id="clip0_11_63">
<rect width="24" height="24" fill="white" transform="translate(0 0.5)"/>
</clipPath>
</defs>
</svg>
