<svg width="18" height="18" viewBox="0 0 18 18" fill="none" xmlns="http://www.w3.org/2000/svg">
<g clip-path="url(#clip0_42_1172)">
<path fill-rule="evenodd" clip-rule="evenodd" d="M8.52309 0.253396C6.00947 0.35443 3.72185 1.31536 2.37728 2.83501C1.65923 3.64656 1.13019 4.58231 0.756562 5.70169C0.131512 7.5743 0.0661899 9.77743 0.578164 11.718C1.35395 14.6586 3.18374 16.5296 6.11109 17.3757C7.91172 17.8961 10.0885 17.8961 11.8891 17.3757C13.7692 16.8323 15.1962 15.8661 16.1776 14.472C17.5769 12.4841 18.0993 9.57511 17.5481 6.84001C17.2728 5.47397 16.7023 4.19075 15.9316 3.20401C15.5021 2.65397 15.0661 2.2413 14.4721 1.82251C13.3132 1.00542 11.7584 0.460954 10.1161 0.297154C9.85763 0.271378 9.07256 0.231796 8.92809 0.237268C8.89344 0.238564 8.71119 0.245836 8.52309 0.253396ZM8.51409 1.54045C7.5543 1.60309 6.85919 1.7328 6.06609 1.99729C5.28902 2.25644 4.66708 2.5752 4.08692 3.01172C3.79962 3.22786 3.33303 3.68225 3.1155 3.95771C2.3116 4.9757 1.7626 6.38488 1.59412 7.86284C1.49818 8.70443 1.51085 9.62879 1.62933 10.431C1.775 11.4173 2.11155 12.4346 2.54646 13.2033C3.31845 14.5677 4.46879 15.4759 6.12281 16.0269C6.91632 16.2912 7.73019 16.4352 8.60859 16.4668C9.79202 16.5092 10.8614 16.3653 11.8774 16.0269C13.5314 15.4759 14.6817 14.5677 15.4537 13.2033C15.8886 12.4346 16.2252 11.4173 16.3709 10.431C16.4895 9.62776 16.5021 8.70549 16.4061 7.86284C16.2375 6.38423 15.689 4.97625 14.885 3.95817C14.6672 3.68229 14.2007 3.228 13.9133 3.01172C13.256 2.51718 12.4937 2.14907 11.5723 1.88123C11.1048 1.74534 10.4999 1.63196 9.93609 1.57454C9.67511 1.54796 8.74192 1.52558 8.51409 1.54045ZM9.10323 4.18249C8.97059 4.23842 8.88758 4.30215 8.81045 4.40726C8.70263 4.55419 8.69129 4.61537 8.69753 5.01634C8.70286 5.35839 8.70504 5.37706 8.75034 5.47201C8.90086 5.78741 9.27751 5.92388 9.60165 5.78049C9.71556 5.73011 9.84822 5.59972 9.91037 5.47707L9.96309 5.37301V4.99501C9.96309 4.62299 9.96234 4.61539 9.91503 4.51448C9.8102 4.29085 9.60426 4.15589 9.35109 4.14492C9.23003 4.13969 9.19055 4.14566 9.10323 4.18249ZM7.18209 7.10148C7.01399 7.15661 6.83703 7.33305 6.77767 7.50471C6.73686 7.62265 6.74203 7.82506 6.78901 7.95083C6.84278 8.09468 7.00742 8.25933 7.15128 8.31309C7.24567 8.34836 7.29042 8.35203 7.62828 8.35215C8.04419 8.3523 8.19049 8.36936 8.31444 8.43216C8.42969 8.49057 8.54639 8.61126 8.6024 8.73001L8.64909 8.82901L8.6539 10.3545L8.65869 11.88H7.96607C7.30021 11.88 7.26941 11.8815 7.16928 11.9189C7.02384 11.9733 6.86097 12.1371 6.8053 12.285C6.74988 12.4322 6.75778 12.6568 6.82294 12.787C6.89184 12.9247 6.99081 13.0242 7.12417 13.0898L7.24434 13.149H9.32372H11.4031L11.5021 13.1026C11.629 13.043 11.7655 12.9064 11.8242 12.78C11.8627 12.6973 11.8703 12.6544 11.8707 12.519C11.871 12.3803 11.8641 12.3422 11.8227 12.2538C11.7638 12.1281 11.6323 11.9928 11.5111 11.9332L11.4211 11.889L10.6876 11.8839L9.95409 11.8789L9.95408 10.3539C9.95404 9.08286 9.94958 8.80363 9.9272 8.67651C9.79235 7.9102 9.23193 7.31442 8.46009 7.11683C8.29239 7.07388 7.30246 7.062 7.18209 7.10148Z" fill="#3086FF"/>
</g>
<defs>
<clipPath id="clip0_42_1172">
<rect width="18" height="18" fill="white"/>
</clipPath>
</defs>
</svg>
