<svg width="1009" height="231" viewBox="0 0 1009 231" fill="none" xmlns="http://www.w3.org/2000/svg">
<g opacity="0.75">
<path d="M0 272.548V12.1542H45.9041V230.561H181.046V272.548H0Z" fill="#1A1A1A"/>
<path d="M208.189 272.548V78.4497H252.992V272.548H208.189ZM230.59 55.9829C222.022 55.9829 215.167 53.4047 210.025 48.2484C204.884 43.0921 202.314 36.3397 202.314 27.9914C202.314 19.8886 205.007 13.2591 210.393 8.10278C215.779 2.70094 222.511 0 230.59 0C238.425 0 245.157 2.57813 250.788 7.73444C256.419 12.8908 259.235 19.6431 259.235 27.9914C259.235 36.3397 256.542 43.0921 251.155 48.2484C245.769 53.4047 238.914 55.9829 230.59 55.9829Z" fill="#1A1A1A"/>
<path d="M435.225 344V248.976C428.37 258.552 419.434 265.305 408.417 269.233C397.645 273.162 386.628 275.126 375.366 275.126C360.677 275.126 347.824 272.671 336.807 267.76C326.034 262.604 317.099 255.606 309.999 246.767C303.144 237.682 297.88 227.123 294.208 215.092C290.78 203.061 289.066 190.17 289.066 176.42C289.066 157.022 292.494 139.712 299.349 124.488C306.204 109.265 316.242 97.3562 329.462 88.7623C342.682 79.9229 358.841 75.5032 377.937 75.5032C388.954 75.5032 399.726 77.4675 410.253 81.3961C420.781 85.0792 429.349 91.2177 435.959 99.8116L438.163 78.4497H480.027V344H435.225ZM384.18 234.612C395.197 234.612 404.5 232.034 412.089 226.878C419.924 221.476 425.799 214.233 429.717 205.148C433.634 196.063 435.592 186.119 435.592 175.315C435.592 164.02 433.634 153.953 429.717 145.113C425.799 136.274 420.046 129.276 412.457 124.12C404.867 118.718 395.319 116.017 383.812 116.017C371.816 116.017 362.146 118.841 354.801 124.488C347.456 129.89 342.07 137.133 338.643 146.218C335.215 155.058 333.502 164.757 333.502 175.315C333.502 186.119 335.215 196.063 338.643 205.148C342.07 214.233 347.579 221.476 355.168 226.878C362.758 232.034 372.428 234.612 384.18 234.612Z" fill="#1A1A1A"/>
<path d="M608.986 275.126C581.077 275.126 559.655 267.883 544.721 253.396C530.031 238.909 522.687 216.811 522.687 187.101V78.4497H567.489V184.154C567.489 194.467 568.836 203.429 571.529 211.041C574.466 218.652 578.996 224.545 585.116 228.72C591.482 232.648 599.438 234.612 608.986 234.612C619.269 234.612 627.348 232.525 633.224 228.351C639.344 223.932 643.629 217.916 646.077 210.304C648.525 202.692 649.749 193.976 649.749 184.154V78.4497H694.551V187.101C694.551 217.548 686.962 239.892 671.783 254.133C656.849 268.129 635.917 275.126 608.986 275.126Z" fill="#1A1A1A"/>
<path d="M737.162 272.548V78.4497H781.964V272.548H737.162ZM759.563 55.9829C750.994 55.9829 744.139 53.4047 738.998 48.2484C733.857 43.0921 731.286 36.3397 731.286 27.9914C731.286 19.8886 733.979 13.2591 739.365 8.10278C744.751 2.70094 751.484 0 759.563 0C767.397 0 774.13 2.57813 779.761 7.73444C785.392 12.8908 788.207 19.6431 788.207 27.9914C788.207 36.3397 785.514 43.0921 780.128 48.2484C774.742 53.4047 767.887 55.9829 759.563 55.9829Z" fill="#1A1A1A"/>
<path d="M904.339 275.126C884.753 275.126 868.595 270.707 855.864 261.867C843.133 252.782 833.585 240.751 827.22 225.773C821.099 210.795 818.039 194.099 818.039 175.683C818.039 156.531 821.344 139.466 827.954 124.488C834.565 109.265 844.48 97.3562 857.7 88.7623C870.921 79.9229 887.446 75.5032 907.277 75.5032C914.621 75.5032 921.721 76.3626 928.576 78.0814C935.676 79.5546 942.286 82.01 948.407 85.4476C954.772 88.6396 960.036 92.9365 964.198 98.3383V12.1542H1009V272.548H965.667L964.932 248.24C960.281 254.378 954.772 259.412 948.407 263.341C942.286 267.269 935.431 270.216 927.842 272.18C920.252 274.144 912.418 275.126 904.339 275.126ZM912.785 234.612C924.537 234.612 934.207 231.912 941.796 226.51C949.386 220.862 955.017 213.496 958.689 204.411C962.606 195.081 964.565 185.259 964.565 174.946C964.565 164.143 962.606 154.321 958.689 145.482C955.017 136.642 949.386 129.522 941.796 124.12C934.207 118.718 924.537 116.017 912.785 116.017C900.299 116.017 890.384 118.841 883.039 124.488C875.939 130.136 870.676 137.625 867.248 146.955C864.066 156.04 862.474 165.862 862.474 176.42C862.474 184.277 863.331 191.766 865.045 198.887C867.003 205.762 869.941 211.9 873.858 217.302C877.776 222.704 882.917 227.001 889.282 230.193C895.648 233.139 903.482 234.612 912.785 234.612Z" fill="#1A1A1A"/>
</g>
</svg>
