<svg width="19" height="18" viewBox="0 0 19 18" fill="none" xmlns="http://www.w3.org/2000/svg">
<path fill-rule="evenodd" clip-rule="evenodd" d="M8.97803 0.349577C7.64362 0.519335 6.49403 1.25114 5.76672 2.39385C5.64905 2.57871 5.45003 2.9916 5.36325 3.23085C5.28085 3.45807 5.19571 3.79409 5.15118 4.06785C5.12614 4.22184 5.11903 4.42037 5.11278 5.1395L5.10513 6.02217L4.99409 6.06476C4.933 6.08817 4.79218 6.15393 4.68114 6.21086C3.46749 6.83309 2.58236 8.00737 2.33652 9.32139C2.22906 9.89577 2.14327 11.1954 2.163 11.9501C2.18483 12.7851 2.26498 13.6924 2.35635 14.1389C2.47942 14.7401 2.81976 15.4504 3.23605 15.9749C3.38898 16.1675 3.7097 16.4857 3.92003 16.6535C4.32289 16.9748 4.82062 17.2459 5.29703 17.4035C5.98366 17.6305 6.28431 17.6528 8.89703 17.6701C10.4688 17.6805 12.0127 17.6599 12.587 17.6209C13.647 17.5488 14.5932 17.1317 15.3834 16.3881C15.939 15.8652 16.4124 15.0581 16.5997 14.3139C16.7105 13.8736 16.7832 13.215 16.8275 12.2489C16.8617 11.5013 16.8146 10.4641 16.7079 9.62085C16.5438 8.32278 15.8479 7.19933 14.756 6.46994C14.5213 6.31312 14.197 6.13802 14.0045 6.0642L13.892 6.02103L13.8918 5.23794C13.8917 4.68335 13.8843 4.38921 13.8663 4.22985C13.7523 3.22007 13.3182 2.32106 12.5969 1.60149C11.9415 0.947555 11.0892 0.515321 10.166 0.368603C9.91039 0.327995 9.23305 0.317141 8.97803 0.349577ZM9.29303 1.62146C8.52547 1.67124 7.82695 1.99395 7.28349 2.54977C6.89057 2.95167 6.63423 3.40927 6.49356 3.95985C6.41573 4.26458 6.4047 4.40363 6.40434 5.08485L6.40398 5.73285L6.72351 5.72108C6.89925 5.71462 7.59586 5.69991 8.27153 5.68841C9.44691 5.66841 11.238 5.68303 12.2789 5.72108C12.5408 5.73066 12.6024 5.72832 12.61 5.70852C12.6311 5.6534 12.5973 4.4346 12.5699 4.26164C12.4873 3.74101 12.2766 3.23955 11.9718 2.83824C11.8484 2.67572 11.5826 2.40687 11.4163 2.27637C10.8117 1.8018 10.0647 1.5714 9.29303 1.62146ZM8.06003 6.97676C7.35882 6.99008 6.46327 7.02245 6.32672 7.03942C6.09083 7.06871 5.92422 7.10687 5.69303 7.18452C4.7517 7.50067 3.99759 8.26508 3.69793 9.20685C3.59805 9.52076 3.5565 9.80611 3.48436 10.6739C3.45327 11.0477 3.45374 12.3197 3.48511 12.6989C3.52727 13.2084 3.57722 13.6432 3.61513 13.8304C3.86637 15.0713 4.8849 16.0641 6.13821 16.2898C6.40633 16.3381 6.90862 16.3585 8.33455 16.379C10.1584 16.4053 12.4347 16.3641 12.8188 16.2978C13.9658 16.1 14.9127 15.2949 15.284 14.2019C15.3953 13.8742 15.4392 13.5843 15.5156 12.6719C15.5462 12.3062 15.5462 11.0459 15.5156 10.6739C15.4597 9.99538 15.4084 9.5826 15.3568 9.39585C15.2553 9.02889 15.12 8.72253 14.9353 8.44185C14.549 7.85466 13.9704 7.40792 13.307 7.18466C12.9202 7.05449 12.722 7.02738 11.966 7.00128C11.4444 6.98328 8.64271 6.96569 8.06003 6.97676ZM9.38971 10.2962C9.25897 10.3182 9.14815 10.376 9.05195 10.4722C8.94916 10.575 8.90056 10.6626 8.87224 10.7962C8.84636 10.9184 8.84474 12.1965 8.8703 12.3313C8.90887 12.5347 9.04366 12.709 9.22999 12.7964C9.3147 12.8361 9.35378 12.8429 9.50003 12.8429C9.64628 12.8429 9.68536 12.8361 9.77007 12.7964C9.9564 12.709 10.0912 12.5347 10.1298 12.3313C10.1553 12.1965 10.1537 10.9184 10.1278 10.7962C10.0988 10.6594 10.0488 10.5713 9.93955 10.4646C9.79689 10.3253 9.59082 10.2622 9.38971 10.2962Z" fill="#3086FF"/>
</svg>
