<svg width="352" height="352" viewBox="0 0 352 352" fill="none" xmlns="http://www.w3.org/2000/svg">
<rect width="352" height="352" rx="40" fill="white"/>
<path fill-rule="evenodd" clip-rule="evenodd" d="M219.825 226.877C216.786 223.837 212.663 222.13 208.364 222.13H156.052C147.101 222.13 139.844 229.386 139.844 238.338V255.792C139.844 264.744 147.101 272 156.052 272H225.819C240.259 272 247.49 254.542 237.28 244.332L219.825 226.877ZM129.87 234.671C129.87 227.745 124.255 222.13 117.329 222.13C106.156 222.13 100.561 235.638 108.461 243.539C116.362 251.439 129.87 245.844 129.87 234.671ZM272 156.052C272 147.101 264.744 139.844 255.792 139.844H238.338C229.386 139.844 222.13 147.101 222.13 156.052V208.364C222.13 212.663 223.837 216.786 226.877 219.825L244.332 237.28C254.542 247.49 272 240.259 272 225.819V156.052ZM129.87 143.636C129.87 139.337 128.163 135.214 125.123 132.175L107.668 114.72C97.4581 104.51 80 111.741 80 126.181V195.948C80 204.899 87.2565 212.156 96.2078 212.156H113.662C122.614 212.156 129.87 204.899 129.87 195.948V143.636ZM212.156 156.052C212.156 147.101 204.899 139.844 195.948 139.844H156.052C147.101 139.844 139.844 147.101 139.844 156.052V195.948C139.844 204.899 147.101 212.156 156.052 212.156H195.948C204.899 212.156 212.156 204.899 212.156 195.948V156.052ZM212.156 96.2078C212.156 87.2565 204.899 80 195.948 80H126.181C111.741 80 104.51 97.4581 114.72 107.668L132.175 125.123C135.214 128.163 139.337 129.87 143.636 129.87H195.948C204.899 129.87 212.156 122.614 212.156 113.662V96.2078ZM234.671 129.87C245.844 129.87 251.439 116.362 243.539 108.461C235.638 100.561 222.13 106.156 222.13 117.329C222.13 124.255 227.745 129.87 234.671 129.87Z" fill="black"/>
</svg>
