<svg width="79" height="30" viewBox="0 0 79 30" fill="none" xmlns="http://www.w3.org/2000/svg">
<path d="M37.1112 22V11.395H38.9862V20.29H44.5062V22H37.1112Z" fill="#424242"/>
<path d="M45.6149 22V14.095H47.445V22H45.6149ZM46.5299 13.18C46.1799 13.18 45.8999 13.075 45.6899 12.865C45.4799 12.655 45.375 12.38 45.375 12.04C45.375 11.71 45.4849 11.44 45.7049 11.23C45.9249 11.01 46.1999 10.9 46.5299 10.9C46.8499 10.9 47.1249 11.005 47.3549 11.215C47.5849 11.425 47.7 11.7 47.7 12.04C47.7 12.38 47.5899 12.655 47.3699 12.865C47.1499 13.075 46.8699 13.18 46.5299 13.18Z" fill="#424242"/>
<path d="M54.8885 24.91V21.04C54.6085 21.43 54.2435 21.705 53.7935 21.865C53.3535 22.025 52.9035 22.105 52.4435 22.105C51.8435 22.105 51.3185 22.005 50.8685 21.805C50.4285 21.595 50.0635 21.31 49.7735 20.95C49.4935 20.58 49.2785 20.15 49.1285 19.66C48.9885 19.17 48.9185 18.645 48.9185 18.085C48.9185 17.295 49.0585 16.59 49.3385 15.97C49.6185 15.35 50.0285 14.865 50.5685 14.515C51.1085 14.155 51.7685 13.975 52.5485 13.975C52.9985 13.975 53.4385 14.055 53.8685 14.215C54.2985 14.365 54.6485 14.615 54.9185 14.965L55.0085 14.095H56.7185V24.91H54.8885ZM52.8035 20.455C53.2535 20.455 53.6335 20.35 53.9435 20.14C54.2635 19.92 54.5035 19.625 54.6635 19.255C54.8235 18.885 54.9035 18.48 54.9035 18.04C54.9035 17.58 54.8235 17.17 54.6635 16.81C54.5035 16.45 54.2685 16.165 53.9585 15.955C53.6485 15.735 53.2585 15.625 52.7885 15.625C52.2985 15.625 51.9035 15.74 51.6035 15.97C51.3035 16.19 51.0835 16.485 50.9435 16.855C50.8035 17.215 50.7335 17.61 50.7335 18.04C50.7335 18.48 50.8035 18.885 50.9435 19.255C51.0835 19.625 51.3085 19.92 51.6185 20.14C51.9285 20.35 52.3235 20.455 52.8035 20.455Z" fill="#424242"/>
<path d="M61.9859 22.105C60.8459 22.105 59.9709 21.81 59.3609 21.22C58.7609 20.63 58.4609 19.73 58.4609 18.52V14.095H60.2909V18.4C60.2909 18.82 60.3459 19.185 60.4559 19.495C60.5759 19.805 60.7609 20.045 61.0109 20.215C61.2709 20.375 61.5959 20.455 61.9859 20.455C62.4059 20.455 62.7359 20.37 62.9759 20.2C63.2259 20.02 63.4009 19.775 63.5009 19.465C63.6009 19.155 63.6509 18.8 63.6509 18.4V14.095H65.4809V18.52C65.4809 19.76 65.1709 20.67 64.5509 21.25C63.9409 21.82 63.0859 22.105 61.9859 22.105Z" fill="#424242"/>
<path d="M67.2214 22V14.095H69.0514V22H67.2214ZM68.1364 13.18C67.7864 13.18 67.5064 13.075 67.2964 12.865C67.0864 12.655 66.9814 12.38 66.9814 12.04C66.9814 11.71 67.0914 11.44 67.3114 11.23C67.5314 11.01 67.8064 10.9 68.1364 10.9C68.4564 10.9 68.7314 11.005 68.9614 11.215C69.1914 11.425 69.3064 11.7 69.3064 12.04C69.3064 12.38 69.1964 12.655 68.9764 12.865C68.7564 13.075 68.4764 13.18 68.1364 13.18Z" fill="#424242"/>
<path d="M74.0499 22.105C73.2499 22.105 72.5899 21.925 72.0699 21.565C71.5499 21.195 71.1599 20.705 70.8999 20.095C70.6499 19.485 70.5249 18.805 70.5249 18.055C70.5249 17.275 70.6599 16.58 70.9299 15.97C71.1999 15.35 71.6049 14.865 72.1449 14.515C72.6849 14.155 73.3599 13.975 74.1699 13.975C74.4699 13.975 74.7599 14.01 75.0399 14.08C75.3299 14.14 75.5999 14.24 75.8499 14.38C76.1099 14.51 76.3249 14.685 76.4949 14.905V11.395H78.3249V22H76.5549L76.5249 21.01C76.3349 21.26 76.1099 21.465 75.8499 21.625C75.5999 21.785 75.3199 21.905 75.0099 21.985C74.6999 22.065 74.3799 22.105 74.0499 22.105ZM74.3949 20.455C74.8749 20.455 75.2699 20.345 75.5799 20.125C75.8899 19.895 76.1199 19.595 76.2699 19.225C76.4299 18.845 76.5099 18.445 76.5099 18.025C76.5099 17.585 76.4299 17.185 76.2699 16.825C76.1199 16.465 75.8899 16.175 75.5799 15.955C75.2699 15.735 74.8749 15.625 74.3949 15.625C73.8849 15.625 73.4799 15.74 73.1799 15.97C72.8899 16.2 72.6749 16.505 72.5349 16.885C72.4049 17.255 72.3399 17.655 72.3399 18.085C72.3399 18.405 72.3749 18.71 72.4449 19C72.5249 19.28 72.6449 19.53 72.8049 19.75C72.9649 19.97 73.1749 20.145 73.4349 20.275C73.6949 20.395 74.0149 20.455 74.3949 20.455Z" fill="#424242"/>
<path fill-rule="evenodd" clip-rule="evenodd" d="M21.794 22.9495C21.3202 22.4746 20.6776 22.2078 20.0076 22.2078H11.8539C10.4587 22.2078 9.32766 23.3416 9.32766 24.7403V27.4675C9.32766 28.8662 10.4587 30 11.8539 30H22.7282C24.9788 30 26.106 27.2722 24.5145 25.6768L21.794 22.9495ZM7.77305 24.1673C7.77305 23.0851 6.89788 22.2078 5.81831 22.2078C4.07683 22.2078 3.20469 24.3185 4.4361 25.553C5.66752 26.7874 7.77305 25.9131 7.77305 24.1673ZM29.9262 11.8831C29.9262 10.4845 28.7952 9.35065 27.4 9.35065H24.6794C23.2842 9.35065 22.1532 10.4845 22.1532 11.8831V20.0569C22.1532 20.7286 22.4193 21.3727 22.8931 21.8477L25.6137 24.5749C27.2051 26.1703 29.9262 25.0404 29.9262 22.7842V11.8831ZM7.77305 9.94306C7.77305 9.2714 7.50689 8.62726 7.03313 8.15233L4.31256 5.42506C2.72112 3.82969 0 4.9596 0 7.21579V18.1169C0 19.5155 1.13104 20.6493 2.52624 20.6493H5.24681C6.64201 20.6493 7.77305 19.5155 7.77305 18.1169V9.94306ZM20.5986 11.8831C20.5986 10.4845 19.4675 9.35065 18.0723 9.35065H11.8539C10.4587 9.35065 9.32766 10.4845 9.32766 11.8831V18.1169C9.32766 19.5155 10.4587 20.6493 11.8539 20.6493H18.0723C19.4675 20.6493 20.5986 19.5155 20.5986 18.1169V11.8831ZM20.5986 2.53247C20.5986 1.13382 19.4675 0 18.0723 0H7.19804C4.9474 0 3.82027 2.72782 5.41172 4.32319L8.13229 7.05047C8.60605 7.52539 9.24861 7.79221 9.91861 7.79221H18.0723C19.4675 7.79221 20.5986 6.65838 20.5986 5.25974V2.53247ZM24.1079 7.79221C25.8494 7.79221 26.7216 5.68149 25.4901 4.44704C24.2587 3.21259 22.1532 4.08687 22.1532 5.83265C22.1532 6.91488 23.0284 7.79221 24.1079 7.79221Z" fill="#424242"/>
</svg>
