<svg width="16" height="16" viewBox="0 0 16 16" fill="none" xmlns="http://www.w3.org/2000/svg">
<path fill-rule="evenodd" clip-rule="evenodd" d="M2.04799 1.88948C1.76038 1.91406 1.50862 2.00142 1.26735 2.16036C0.993098 2.34105 0.770874 2.58721 0.624682 2.87228C0.536922 3.0434 0.494106 3.18503 0.426426 3.52801C0.222442 4.56174 0.167978 5.1505 0.149642 6.52001C0.135514 7.57559 0.173066 8.52146 0.255738 9.19292C0.310922 9.64108 0.447674 10.388 0.513642 10.6016C0.593722 10.8609 0.734746 11.0994 0.927402 11.3015C1.23385 11.6229 1.59737 11.8082 2.01539 11.8561C2.2015 11.8774 11.6545 11.8774 11.8406 11.8561C12.0393 11.8333 12.2069 11.7862 12.3793 11.7045C12.8202 11.4956 13.1658 11.1112 13.3267 10.6506C13.4056 10.4248 13.5311 9.77838 13.5989 9.24801C13.7383 8.159 13.7499 5.94905 13.6228 4.70401C13.5735 4.22098 13.4176 3.35846 13.3371 3.12286C13.2035 2.73151 12.9459 2.39772 12.6003 2.16772C12.3478 1.99975 12.0968 1.91454 11.776 1.88783C11.5503 1.86905 2.26862 1.87062 2.04799 1.88948ZM2.07014 3.0466C1.95798 3.07382 1.86268 3.13292 1.76577 3.2354C1.63243 3.37638 1.61436 3.42449 1.52971 3.86401C1.35572 4.7673 1.31345 5.27074 1.30068 6.59201C1.28731 7.97406 1.33049 8.74511 1.46551 9.53601C1.54316 9.99084 1.6006 10.2468 1.64766 10.3479C1.7087 10.4789 1.82707 10.596 1.96414 10.6609L2.07199 10.712H6.92799H11.784L11.8919 10.6609C12.0304 10.5953 12.1471 10.4791 12.2104 10.3439C12.292 10.1695 12.4347 9.40665 12.4871 8.86401C12.542 8.29662 12.552 7.99012 12.552 6.87201C12.552 5.28207 12.5128 4.76121 12.3222 3.81458C12.2512 3.46214 12.2125 3.36465 12.0931 3.23842C11.991 3.13044 11.8991 3.07418 11.7783 3.04577C11.6496 3.01548 2.19505 3.01628 2.07014 3.0466ZM14.9332 4.32703C14.792 4.37118 14.6631 4.48623 14.5914 4.63201C14.5569 4.7021 14.5521 4.73282 14.5529 4.88001C14.5534 4.97241 14.5657 5.13081 14.5802 5.23201C14.6105 5.44284 14.6471 5.85874 14.6732 6.28801C14.6999 6.7294 14.7119 9.64764 14.6892 10.1894C14.6659 10.7451 14.6344 11.1298 14.5829 11.488C14.5351 11.8202 14.4273 12.3688 14.3832 12.5044C14.315 12.7139 14.1609 12.8705 13.9449 12.95C13.9092 12.9632 12.3998 12.9702 8.34399 12.976L2.79199 12.984L2.70086 13.0267C2.58459 13.0812 2.47321 13.1926 2.41871 13.3089C2.38182 13.3876 2.37599 13.4207 2.37599 13.552C2.37599 13.6887 2.38076 13.7134 2.42335 13.7975C2.48308 13.9154 2.61171 14.0343 2.73204 14.0829L2.82399 14.12L8.24799 14.1246C11.7811 14.1276 13.7445 14.1236 13.88 14.1131C14.2237 14.0866 14.4618 14.0085 14.7254 13.8359C14.8923 13.7266 15.1448 13.4826 15.2445 13.3342C15.4122 13.0846 15.4869 12.8806 15.5837 12.4077C15.8214 11.2462 15.867 10.511 15.8506 8.11201C15.8394 6.49183 15.821 6.00791 15.7431 5.28914C15.6779 4.68807 15.6491 4.59073 15.4952 4.4501C15.3821 4.34666 15.2694 4.30366 15.1154 4.30508C15.0519 4.30567 14.9699 4.31554 14.9332 4.32703ZM6.53625 4.76943C5.85671 4.86223 5.3139 5.23222 5.0299 5.79615C4.72732 6.397 4.72492 7.33908 5.02443 7.94017C5.39375 8.68135 6.15355 9.05876 7.13999 8.99102C7.69825 8.95268 8.13607 8.77017 8.47315 8.43527C8.75563 8.15462 8.93974 7.7887 9.01819 7.35201C9.05843 7.12798 9.05843 6.61604 9.01819 6.39201C8.98449 6.20447 8.90273 5.94838 8.83087 5.80527C8.61103 5.36745 8.21991 5.02809 7.75625 4.87282C7.50113 4.7874 7.34556 4.76449 6.98399 4.75914C6.79919 4.75641 6.59771 4.76103 6.53625 4.76943ZM6.70708 5.90406C6.31939 5.95868 6.1103 6.11927 6.00398 6.4441C5.94879 6.61266 5.93443 6.98302 5.97518 7.18585C6.02983 7.45783 6.15524 7.6366 6.36596 7.74298C6.52619 7.82386 6.64772 7.84618 6.92799 7.84618C7.20827 7.84618 7.3298 7.82386 7.49003 7.74298C7.68059 7.64679 7.78503 7.51558 7.85854 7.28001C7.89182 7.17342 7.89599 7.12874 7.89599 6.88001C7.89599 6.66142 7.88975 6.57719 7.86756 6.49601C7.78129 6.18036 7.58756 5.9959 7.27059 5.92759C7.13142 5.89759 6.83947 5.8854 6.70708 5.90406ZM2.69599 6.30202C2.46596 6.31121 2.43107 6.31646 2.35199 6.35369C1.99006 6.52409 1.90543 7.00142 2.18843 7.27633C2.23127 7.31794 2.3018 7.37001 2.34516 7.39201C2.42291 7.43146 2.43022 7.43207 2.87604 7.43692C3.2418 7.4409 3.34633 7.43716 3.42369 7.41734C3.59089 7.3745 3.72623 7.26319 3.80465 7.10401C3.84255 7.02705 3.84799 6.99695 3.84799 6.86401C3.84799 6.73518 3.84203 6.69982 3.80883 6.63201C3.74998 6.51183 3.63185 6.3955 3.51577 6.3434C3.42355 6.30201 3.39983 6.29857 3.18422 6.2953C3.05649 6.29337 2.83679 6.29639 2.69599 6.30202ZM10.68 6.30306C10.4463 6.31122 10.4161 6.31572 10.3329 6.35473C10.2166 6.40922 10.1052 6.5206 10.0507 6.63687C10.0143 6.71452 10.008 6.74935 10.008 6.87234C10.008 7.00324 10.0129 7.02665 10.0607 7.1237C10.1244 7.25319 10.2415 7.36217 10.3674 7.40935C10.4495 7.44012 10.4834 7.4418 10.9274 7.43705L11.4 7.43201L11.4978 7.38682C11.6005 7.33935 11.7154 7.2335 11.7711 7.13503C11.8894 6.92596 11.8417 6.62377 11.6642 6.45774C11.4842 6.28935 11.4094 6.27759 10.68 6.30306Z" fill="white"/>
</svg>
