<svg width="16" height="16" viewBox="0 0 16 16" fill="none" xmlns="http://www.w3.org/2000/svg">
<path d="M14.5714 7.99999C14.5714 5.81946 13.9599 4.19656 12.8816 3.11829C11.8034 2.04003 10.1805 1.42856 7.99993 1.42856C5.8194 1.42856 4.1965 2.04003 3.11823 3.11829C2.03996 4.19656 1.4285 5.81946 1.4285 7.99999C1.4285 10.1805 2.03996 11.8034 3.11823 12.8817C4.1965 13.96 5.8194 14.5714 7.99993 14.5714C10.1805 14.5714 11.8034 13.96 12.8816 12.8817C13.9599 11.8034 14.5714 10.1805 14.5714 7.99999ZM9.67069 6.19977C9.67063 5.92747 9.56446 5.6862 9.33364 5.50111C9.09268 5.30798 8.67132 5.14285 7.99993 5.14285C7.32077 5.14285 6.90001 5.30063 6.66176 5.48771C6.43874 5.66306 6.32811 5.89977 6.32806 6.19977C6.32806 6.46376 6.62962 7.05605 8.08029 7.26338C8.86736 7.37582 9.60908 7.56938 10.1673 7.92187C10.7563 8.29376 11.1561 8.85731 11.1562 9.63169C11.1562 10.3439 10.7655 10.9517 10.1952 11.3605C9.75591 11.6755 9.19792 11.8828 8.57136 11.962V12.2857C8.57136 12.6013 8.31552 12.8571 7.99993 12.8571C7.68434 12.8571 7.4285 12.6013 7.4285 12.2857V11.9676C6.81689 11.9001 6.26756 11.7237 5.83029 11.4453C5.25568 11.0794 4.84265 10.5107 4.84256 9.80021C4.84256 9.48462 5.0984 9.22879 5.41399 9.22879C5.72942 9.22897 5.98542 9.48474 5.98542 9.80021C5.9855 10.021 6.10577 10.2656 6.44413 10.481C6.78751 10.6996 7.32008 10.8571 7.99993 10.8571C8.66138 10.8571 9.18656 10.6782 9.53006 10.4319C9.87218 10.1865 10.0133 9.89544 10.0133 9.63169C10.0132 9.3218 9.88033 9.09266 9.55685 8.88838C9.20262 8.66478 8.65202 8.49863 7.91957 8.39396C6.33056 8.16696 5.1852 7.37576 5.1852 6.19977C5.18526 5.57538 5.43671 4.99699 5.95529 4.58928C6.33981 4.2871 6.83965 4.10377 7.4285 4.03347V3.71428C7.4285 3.39869 7.68434 3.14285 7.99993 3.14285C8.31552 3.14285 8.57136 3.39869 8.57136 3.71428V4.03459C9.16548 4.10884 9.66607 4.30228 10.049 4.60937C10.5592 5.01846 10.8135 5.59226 10.8135 6.19977C10.8135 6.51536 10.5577 6.7712 10.2421 6.7712C9.92657 6.77114 9.67069 6.51533 9.67069 6.19977ZM15.7142 7.99999C15.7142 10.3909 15.04 12.3394 13.6897 13.6897C12.3394 15.04 10.3908 15.7143 7.99993 15.7143C5.60903 15.7143 3.6605 15.04 2.3102 13.6897C0.959896 12.3394 0.285645 10.3909 0.285645 7.99999C0.285645 5.6091 0.959896 3.66056 2.3102 2.31026C3.6605 0.959957 5.60903 0.285706 7.99993 0.285706C10.3908 0.285706 12.3394 0.959957 13.6897 2.31026C15.04 3.66056 15.7142 5.6091 15.7142 7.99999Z" fill="white"/>
</svg>
