<svg width="16" height="16" viewBox="0 0 16 16" fill="none" xmlns="http://www.w3.org/2000/svg">
<path fill-rule="evenodd" clip-rule="evenodd" d="M7.53597 0.310843C6.34983 0.461739 5.32797 1.11224 4.68148 2.12798C4.57688 2.2923 4.39997 2.65931 4.32284 2.87198C4.24959 3.07395 4.17391 3.37264 4.13433 3.61598C4.11207 3.75286 4.10575 3.92932 4.1002 4.56855L4.0934 5.35315L3.99469 5.391C3.94039 5.41182 3.81522 5.47027 3.71652 5.52087C2.75042 6.01619 2.00797 6.91372 1.71396 7.94179C1.59693 8.35099 1.52477 8.97548 1.48509 9.92254C1.45985 10.5255 1.48764 11.2241 1.56809 12.008C1.62831 12.5949 1.73421 12.9843 1.95977 13.448C2.33175 14.2127 2.93925 14.836 3.69597 15.2293C4.19796 15.4902 4.70157 15.6278 5.28544 15.6637C6.31812 15.7271 9.68183 15.7271 10.7145 15.6637C11.0274 15.6445 11.3031 15.5995 11.56 15.5257C12.6495 15.2128 13.5445 14.463 14.0398 13.448C14.2578 13.0012 14.3641 12.6218 14.4231 12.08C14.5449 10.9622 14.5538 10.1161 14.4556 9.01598C14.4017 8.413 14.3571 8.16212 14.2406 7.80798C14.0497 7.22724 13.7543 6.73801 13.3288 6.298C12.8033 5.75459 12.1492 5.37856 11.4175 5.19923C11.0066 5.09849 10.7605 5.08332 9.07492 5.0547C8.05882 5.03745 6.45332 5.0515 5.52396 5.08579L5.24793 5.09598L5.24823 4.51998C5.24857 3.91444 5.25837 3.79084 5.32756 3.51998C5.4526 3.03057 5.68045 2.62382 6.02972 2.26657C6.33056 1.95888 6.65468 1.74944 7.06397 1.59824C7.649 1.38211 8.35095 1.38211 8.93597 1.59824C9.32116 1.74052 9.547 1.88224 9.95792 2.23955C10.1072 2.36934 10.2041 2.40507 10.3842 2.39676C10.6086 2.38643 10.7697 2.28195 10.8674 2.08347C10.9151 1.98664 10.92 1.96315 10.92 1.83232C10.92 1.62808 10.8776 1.54201 10.685 1.35539C10.1424 0.829547 9.37321 0.451915 8.59197 0.327755C8.36474 0.291659 7.76266 0.282011 7.53597 0.310843ZM6.35197 6.20945C5.24037 6.23235 5.00066 6.25675 4.61597 6.38622C3.90501 6.62548 3.32333 7.1378 2.99265 7.81598C2.78645 8.23881 2.73615 8.4862 2.65266 9.48798C2.62514 9.81806 2.62569 10.9493 2.65353 11.288C2.69045 11.7374 2.73514 12.1268 2.76895 12.2938C2.97489 13.3109 3.75204 14.139 4.76797 14.4238C5.11153 14.5201 5.39458 14.5374 6.97997 14.5587C8.61711 14.5807 10.6159 14.5447 10.949 14.4873C11.3892 14.4113 11.7998 14.2364 12.1584 13.972C12.3168 13.8552 12.6277 13.5447 12.7407 13.3903C12.9851 13.0564 13.1521 12.6825 13.2314 12.2914C13.264 12.1309 13.3052 11.7652 13.3472 11.264C13.3744 10.9389 13.3744 9.81872 13.3471 9.48798C13.2655 8.4971 13.2134 8.24118 13.0069 7.81598C12.6784 7.13942 12.0951 6.62553 11.384 6.38622C10.989 6.25327 10.7944 6.23462 9.52797 6.20822C8.66722 6.19027 7.25657 6.19081 6.35197 6.20945ZM7.87197 9.25417C7.75437 9.28025 7.69008 9.31635 7.599 9.40742C7.43367 9.57276 7.42397 9.6263 7.42397 10.3746C7.42397 10.9875 7.4321 11.0926 7.4885 11.2091C7.53433 11.3037 7.65754 11.4224 7.75997 11.4706C7.83532 11.506 7.86983 11.512 7.99997 11.512C8.13012 11.512 8.16463 11.506 8.23997 11.4706C8.40226 11.3943 8.52629 11.2336 8.55996 11.0561C8.58247 10.9374 8.58084 9.80049 8.558 9.69276C8.533 9.57478 8.48972 9.49619 8.40074 9.40721C8.308 9.31448 8.22912 9.27248 8.10453 9.24943C7.99282 9.22878 7.98581 9.22892 7.87197 9.25417Z" fill="white"/>
</svg>
