<svg width="68" height="48" viewBox="0 0 68 48" fill="none" xmlns="http://www.w3.org/2000/svg">
<path opacity="0.2" d="M27.0455 34.1298V13.8701L44.8182 24.0005L27.0455 34.1298ZM66.579 7.49536C65.797 4.5449 63.4927 2.22155 60.5671 1.43303C55.2643 7.15256e-07 34 0 34 0C34 0 12.7358 7.15256e-07 7.43282 1.43303C4.50716 2.22155 2.20288 4.5449 1.42094 7.49536C0 12.8428 0 24 0 24C0 24 0 35.157 1.42094 40.5047C2.20288 43.4551 4.50716 45.7784 7.43282 46.5673C12.7358 48 34 48 34 48C34 48 55.2643 48 60.5671 46.5673C63.4927 45.7784 65.797 43.4551 66.579 40.5047C68 35.157 68 24 68 24C68 24 68 12.8428 66.579 7.49536Z" fill="white"/>
</svg>
