<svg width="48" height="49" viewBox="0 0 48 49" fill="none" xmlns="http://www.w3.org/2000/svg">
<path fill-rule="evenodd" clip-rule="evenodd" d="M32.496 2.47398C30.6584 2.73861 29.3682 3.10696 28.056 3.74162C26.9977 4.25349 25.9337 4.99701 25.261 5.69488L25.0581 5.90541L24.517 5.84809C23.1386 5.70217 21.1773 5.71725 19.704 5.88501C15.24 6.39338 10.8429 8.3679 7.76047 11.2482L7.48096 11.5094L7.23991 11.2746C6.3785 10.4357 5.59788 9.27165 5.10727 8.09445C4.98069 7.79066 4.84749 7.56443 4.69634 7.39653C3.88029 6.48976 2.42253 6.69856 1.88181 7.79958C1.76666 8.03401 1.75207 8.11825 1.75293 8.54392C1.75389 9.00385 1.76268 9.04398 1.96279 9.50392C2.68442 11.1622 3.4444 12.293 4.71088 13.5926L5.18709 14.0812L4.7597 14.7206C3.17176 17.0959 2.24402 19.5384 1.84576 22.3919C1.72668 23.2454 1.69903 25.402 1.79551 26.3119C2.05884 28.7946 2.77912 31.0853 3.95018 33.1642C4.19013 33.5902 4.19114 33.5937 4.13215 33.8122C4.02501 34.2094 3.21204 37.7653 3.11623 38.2559C2.73948 40.1852 3.15885 42.2774 4.25325 43.9285C5.48498 45.7867 7.41036 47.0075 9.62397 47.3339C10.3238 47.4371 11.5302 47.4014 12.216 47.2572C14.5076 46.7754 16.5114 45.2699 17.5199 43.2721C17.6324 43.0492 17.6877 42.9848 17.75 43.0039C17.9418 43.063 19.3297 43.2758 20.016 43.3514C20.5505 43.4103 21.1722 43.4337 22.224 43.4344C23.5272 43.4354 23.9659 43.4134 25.0904 43.2911L25.3888 43.2586L25.4744 43.4144C25.6693 43.7694 26.0966 44.3774 26.4175 44.7564C27.2386 45.7262 28.5683 46.6121 29.8024 47.0117C30.7242 47.3102 31.1712 47.3762 32.256 47.3737C33.3383 47.3713 33.7627 47.3078 34.663 47.0136C37.0842 46.2224 39.0089 44.1935 39.6702 41.7355C39.8397 41.1053 39.8972 40.7457 39.9309 40.1039L39.96 39.5519L42.3402 38.3519C43.6493 37.6919 44.8601 37.0511 45.0311 36.928C45.2021 36.8047 45.5181 36.5178 45.7335 36.2903C46.3405 35.649 46.7517 34.9143 47.0061 34.0163C47.1096 33.651 47.1106 33.6084 47.1248 28.9022C47.1373 24.7628 47.1295 24.1007 47.0637 23.7197C46.8783 22.6451 46.3483 21.6457 45.5682 20.9C44.6933 20.0635 43.6665 19.596 42.4383 19.4748L42.0845 19.4399L41.8586 18.7919C41.0081 16.3521 39.5555 14.0098 37.7585 12.1804L37.3228 11.7368L37.6327 9.87635C37.9008 8.26792 37.9425 7.93466 37.9411 7.41592C37.9349 5.08206 36.3786 3.0688 34.176 2.54507C33.7844 2.45195 32.9067 2.41485 32.496 2.47398ZM32.472 5.95595C31.435 6.11613 30.3374 6.45256 29.5107 6.86373C28.5739 7.32952 27.94 7.83002 27.1384 8.73635C26.5357 9.4179 26.157 9.53728 25.0792 9.3856C24.71 9.33366 24.0948 9.26618 23.712 9.2357C22.831 9.16557 20.8248 9.2069 20.016 9.31182C16.5251 9.7648 13.4873 11.0218 10.896 13.0856C10.411 13.4719 9.4756 14.3815 8.74893 15.1736C7.25536 16.8016 5.96484 19.3306 5.47754 21.5845C5.08778 23.3872 5.05461 25.3144 5.38231 27.1199C5.69968 28.8686 6.2812 30.3689 7.30116 32.0703C7.87682 33.0305 7.93365 33.4018 7.62655 34.1967C7.5089 34.5011 6.67044 37.9987 6.47767 38.9889C6.40293 39.3729 6.4434 40.3612 6.54991 40.7519C6.89056 42.0018 7.72178 43.0056 8.85597 43.5368C9.38004 43.7823 9.735 43.8818 10.2856 43.9376C11.4302 44.0536 12.569 43.6962 13.4799 42.9351C14.0552 42.4543 14.5684 41.6575 14.7825 40.9126C15.0272 40.061 15.1823 39.8017 15.6133 39.5231C16.1205 39.1952 16.5476 39.1527 17.2928 39.3556C19.0842 39.8437 20.7432 40.0388 22.721 39.9942C23.9258 39.967 24.6587 39.8976 25.656 39.7162C26.5832 39.5476 27.0071 39.5994 27.4681 39.9376C27.7399 40.1371 27.9487 40.4127 28.0606 40.7196C28.3025 41.3834 28.4428 41.6975 28.6367 42.0092C29.1608 42.8521 30.1794 43.5774 31.224 43.8518C31.8003 44.0032 32.6502 43.9941 33.2818 43.8298C34.2225 43.585 34.9731 43.107 35.5511 42.3846C36.3251 41.4172 36.6352 40.2843 36.4651 39.0454C36.3843 38.4569 36.4202 38.1067 36.5971 37.7575C36.8467 37.2649 36.8999 37.2326 40.0479 35.656C42.5751 34.3903 43.0041 34.16 43.195 33.9672C43.4702 33.6892 43.6267 33.3746 43.6828 32.9871C43.7444 32.5608 43.7398 24.7495 43.6777 24.3665C43.5666 23.682 43.122 23.1684 42.4573 22.9569C42.3774 22.9314 41.8476 22.8955 41.28 22.8771C40.1185 22.8394 40.0399 22.8182 39.6158 22.4272C39.2971 22.1335 39.197 21.9224 38.9513 21.0261C38.5009 19.3836 37.9103 18.0809 36.9808 16.6799C36.3769 15.7696 35.8253 15.1087 34.8945 14.1804C33.983 13.2713 33.8679 13.1067 33.7812 12.5878C33.7348 12.3099 33.7601 12.114 34.1272 9.91221C34.5614 7.30758 34.5704 7.1775 34.35 6.72918C34.1678 6.35877 33.9646 6.14041 33.6739 6.00294C33.3749 5.86144 33.1426 5.85237 32.472 5.95595ZM16.2955 13.1752C15.7799 13.2511 15.2599 13.6454 15.0285 14.1359C14.9204 14.3652 14.904 14.4631 14.904 14.8799C14.904 15.2968 14.9197 15.391 15.024 15.5964C15.1922 15.9279 15.5489 16.2773 15.875 16.4301L16.152 16.5599H19.176H22.2L22.4724 16.4322C23.1983 16.0919 23.5979 15.3599 23.4733 14.5984C23.411 14.2176 23.2647 13.9332 22.9897 13.6582C22.7147 13.3832 22.4303 13.2369 22.0494 13.1746C21.724 13.1212 16.6585 13.1219 16.2955 13.1752ZM32.784 19.7621C32.4118 19.9048 31.9716 20.3515 31.8303 20.7297C31.7272 21.0057 31.7253 21.0528 31.7385 23.0337L31.752 25.0559L31.8759 25.32C31.944 25.4653 32.1002 25.6846 32.2229 25.8073C33.0597 26.644 34.4745 26.3945 34.9863 25.3199L35.112 25.0559V22.9679V20.8799L34.9699 20.5996C34.7885 20.2414 34.4026 19.8857 34.054 19.7553C33.6936 19.6204 33.1458 19.6234 32.784 19.7621Z" fill="#FB4E88"/>
</svg>
