<svg width="21" height="20" viewBox="0 0 21 20" fill="none" xmlns="http://www.w3.org/2000/svg">
<path d="M19.9193 2.09C19.7444 2.01124 19.5505 1.98444 19.3608 2.01281C19.171 2.04118 18.9935 2.12352 18.8493 2.25L17.4893 3.46C16.5681 2.37523 15.4219 1.50388 14.1302 0.90641C12.8386 0.308936 11.4324 -0.000352583 10.0093 4.2951e-06C8.17541 -0.0016951 6.37639 0.500923 4.80896 1.45289C3.24154 2.40486 1.96607 3.76951 1.12206 5.3976C0.278039 7.0257 -0.102025 8.85454 0.0234309 10.6841C0.148886 12.5137 0.77503 14.2735 1.83338 15.7712C2.89173 17.2688 4.34154 18.4466 6.02424 19.1757C7.70693 19.9048 9.55772 20.1571 11.3742 19.9051C13.1907 19.6531 14.9028 18.9065 16.3235 17.7468C17.7442 16.5872 18.8186 15.0592 19.4293 13.33C19.5168 13.0794 19.5012 12.8042 19.3858 12.5651C19.2705 12.326 19.0649 12.1425 18.8143 12.055C18.5636 11.9675 18.2885 11.9831 18.0494 12.0984C17.8103 12.2138 17.6268 12.4194 17.5393 12.67C17.0497 14.0529 16.1892 15.2745 15.0521 16.2013C13.9149 17.1281 12.5448 17.7243 11.0916 17.9249C9.63842 18.1254 8.15804 17.9225 6.81238 17.3384C5.46672 16.7542 4.30758 15.8113 3.46173 14.6127C2.61587 13.4142 2.11587 12.0061 2.01639 10.5425C1.91692 9.07887 2.2218 7.61609 2.89769 6.31409C3.57359 5.01208 4.59448 3.921 5.84873 3.16013C7.10298 2.39927 8.54229 1.99793 10.0093 2C11.1513 1.99968 12.2797 2.24822 13.3159 2.72832C14.352 3.20843 15.2712 3.90856 16.0093 4.78L14.3493 6.25C14.1963 6.38532 14.0884 6.56422 14.0402 6.76266C13.9919 6.96109 14.0055 7.16955 14.0793 7.36C14.1518 7.54794 14.2794 7.70959 14.4453 7.82379C14.6113 7.93799 14.8078 7.99941 15.0093 8H19.5093C19.7745 8 20.0288 7.89465 20.2164 7.70711C20.4039 7.51957 20.5093 7.26522 20.5093 7V3C20.5089 2.80764 20.453 2.61948 20.3483 2.45808C20.2437 2.29667 20.0947 2.16887 19.9193 2.09Z" fill="#585858"/>
</svg>
