<svg width="25" height="25" viewBox="0 0 25 25" fill="none" xmlns="http://www.w3.org/2000/svg">
<g clip-path="url(#clip0_11_67)">
<path fill-rule="evenodd" clip-rule="evenodd" d="M11.3802 0.967619C10.6468 1.10068 9.99086 1.5746 9.63562 2.22808C9.58898 2.31388 9.40368 2.75668 9.22382 3.21208C9.04399 3.66748 8.87868 4.05721 8.8565 4.07816C8.8343 4.09914 8.40986 4.35037 7.91325 4.6365L7.01035 5.1567L6.20925 5.03516C5.76866 4.96832 5.31096 4.90453 5.19216 4.89342C4.3433 4.81403 3.4553 5.21593 2.96791 5.90008C2.84381 6.07429 2.19828 7.18081 2.05783 7.46008C1.73854 8.09502 1.72997 8.9458 2.03638 9.59104C2.16977 9.87188 2.22921 9.95531 2.85053 10.7335L3.40416 11.427V12.5001V13.5732L2.85053 14.2666C2.22921 15.0448 2.16977 15.1283 2.03638 15.4091C1.72966 16.055 1.73808 16.9028 2.05757 17.5401C2.1833 17.7909 2.78767 18.8346 2.93244 19.0509C3.28404 19.5762 3.8922 19.9638 4.55616 20.0856C4.87627 20.1444 5.20469 20.122 6.13521 19.9782C6.83954 19.8693 7.0164 19.8489 7.05921 19.8714C7.11062 19.8985 8.85593 20.9026 8.87234 20.9145C8.87685 20.9178 9.02496 21.288 9.20148 21.7372C9.37797 22.1864 9.55666 22.6219 9.59856 22.705C9.95059 23.4032 10.6232 23.9 11.3974 24.0336C11.5793 24.065 11.7839 24.0699 12.6043 24.0623C13.5232 24.054 13.605 24.0497 13.7764 24.0021C14.3969 23.8297 14.92 23.4561 15.2547 22.9464C15.411 22.7084 15.3955 22.7435 15.8119 21.6843L16.1122 20.9206L17.0458 20.3818L17.9794 19.843L18.8698 19.9781C20.0345 20.1547 20.3039 20.1559 20.8096 19.9866C21.3035 19.8212 21.765 19.4778 22.0495 19.0641C22.1779 18.8774 22.8209 17.7775 22.9335 17.5521C23.1233 17.1721 23.1909 16.8379 23.1736 16.3654C23.1595 15.984 23.1169 15.777 22.989 15.4699C22.8833 15.2158 22.7481 15.0229 22.1376 14.255L21.5962 13.5739L21.5962 12.503L21.5962 11.4321L22.1511 10.7361C22.8727 9.83108 22.9716 9.67556 23.0936 9.25456C23.2474 8.72387 23.2256 8.17818 23.0297 7.65678C22.9559 7.46012 22.3126 6.31124 22.0931 5.98408C21.8423 5.61018 21.5383 5.34563 21.1282 5.14441C20.8222 4.99432 20.5754 4.92376 20.2442 4.89169C19.9554 4.86373 19.8121 4.87787 18.779 5.03632L17.9899 5.15735L17.063 4.62455C16.5533 4.33151 16.1335 4.09004 16.1302 4.08793C16.1269 4.08584 15.9791 3.71519 15.8018 3.26428C15.6245 2.81336 15.4451 2.3769 15.4032 2.29434C15.052 1.60331 14.3998 1.11587 13.6312 0.970091C13.3682 0.920195 11.6519 0.918323 11.3802 0.967619ZM11.7082 2.65907C11.6488 2.6697 11.5603 2.69504 11.5116 2.7154C11.3876 2.76724 11.2103 2.93764 11.1437 3.06892C11.1129 3.12985 10.9299 3.57848 10.7371 4.0659C10.5443 4.55329 10.3501 5.00716 10.3055 5.07445C10.1487 5.31128 9.99038 5.42144 8.88816 6.06061C7.79721 6.69323 7.51442 6.84272 7.35509 6.87092C7.15857 6.90572 6.90535 6.8816 5.96844 6.7388C5.1029 6.6069 4.98545 6.59392 4.86144 6.61633C4.68449 6.64835 4.53336 6.724 4.4274 6.83363C4.34777 6.91602 3.69108 8.02504 3.58747 8.25208C3.51878 8.40258 3.51871 8.70112 3.5873 8.85236C3.6143 8.91193 3.9181 9.31352 4.26235 9.7448C4.60663 10.1761 4.91743 10.5786 4.95302 10.6394C4.98861 10.7001 5.03808 10.8152 5.06294 10.8951C5.10516 11.0307 5.10814 11.1372 5.10787 12.4962C5.10756 14.0743 5.10722 14.079 4.97402 14.3237C4.93675 14.3922 4.6205 14.8064 4.27123 15.2441C3.92196 15.6819 3.61413 16.0886 3.58718 16.1481C3.51869 16.2991 3.51886 16.5977 3.5875 16.7481C3.69221 16.9774 4.34748 18.0845 4.42709 18.1665C4.53331 18.276 4.68425 18.3517 4.86144 18.3842C4.98626 18.4071 5.09755 18.3947 5.97216 18.2598C7.02977 18.0966 7.23163 18.083 7.47269 18.1584C7.60898 18.2011 9.66686 19.3688 9.98647 19.5848C10.1302 19.682 10.286 19.8589 10.3661 20.0159C10.3917 20.066 10.5702 20.5095 10.7629 21.0015C10.9556 21.4935 11.1275 21.9237 11.145 21.9575C11.1952 22.0548 11.3652 22.2124 11.4798 22.2679C11.6538 22.3521 11.8592 22.3688 12.6157 22.3602L13.3282 22.3521L13.4722 22.2848C13.6368 22.2079 13.7793 22.0806 13.8466 21.9503C13.872 21.901 14.0427 21.4798 14.2259 21.0143C14.4091 20.5489 14.5802 20.1195 14.6063 20.0601C14.6723 19.9095 14.8288 19.7191 14.978 19.6077C15.2025 19.4401 17.3268 18.2284 17.4989 18.1699C17.7503 18.0842 17.9316 18.095 19.0162 18.2597C20.052 18.417 20.119 18.4202 20.3362 18.3211C20.5517 18.2227 20.6144 18.1417 21.0296 17.4252C21.3573 16.8598 21.4277 16.7213 21.4507 16.5972C21.4836 16.4191 21.4559 16.2383 21.373 16.0902C21.3428 16.0362 21.0462 15.6491 20.714 15.2298C20.0629 14.4083 20.0062 14.3261 19.9374 14.1051C19.8952 13.9695 19.8922 13.8632 19.8924 12.5159C19.8928 10.9596 19.8933 10.9522 20.0221 10.6912C20.0555 10.6235 20.3711 10.2063 20.7233 9.76408C21.0756 9.32188 21.3858 8.91148 21.4128 8.85208C21.4486 8.77324 21.4621 8.69221 21.463 8.55208C21.4644 8.31512 21.4576 8.29979 20.9999 7.50808C20.6263 6.86204 20.517 6.72796 20.3068 6.65845C20.0807 6.58364 20.0091 6.58775 19.102 6.72762C18.6213 6.80178 18.1537 6.87174 18.063 6.88314C17.8422 6.91086 17.5888 6.87426 17.4014 6.7876C17.2134 6.70067 15.1676 5.52227 14.9934 5.40059C14.843 5.29552 14.7038 5.1242 14.6193 4.94008C14.586 4.86748 14.4044 4.41592 14.2157 3.93659C14.027 3.45728 13.8425 3.02164 13.8057 2.9685C13.7298 2.85896 13.581 2.74883 13.4304 2.6906C13.3445 2.65741 13.2071 2.65019 12.5722 2.64541C12.1564 2.64227 11.7676 2.64841 11.7082 2.65907ZM11.9242 8.2419C11.8912 8.24742 11.767 8.26384 11.6482 8.27838C11.3495 8.31496 10.8549 8.44504 10.5682 8.56247C9.49949 9.00006 8.72018 9.88914 8.40792 11.027C8.26344 11.5535 8.24006 11.7615 8.24102 12.5121C8.24196 13.2451 8.26135 13.4227 8.39556 13.9281C8.57748 14.6131 8.88343 15.1504 9.36662 15.6336C9.84979 16.1168 10.3872 16.4228 11.0722 16.6047C11.5823 16.7402 11.7536 16.7586 12.5002 16.7586C13.0464 16.7586 13.2325 16.7501 13.424 16.7164C14.3745 16.5489 15.0493 16.2183 15.6338 15.6338C16.2184 15.0492 16.549 14.3745 16.7165 13.4239C16.7502 13.2324 16.7587 13.0463 16.7587 12.5001C16.7587 11.9538 16.7502 11.7678 16.7165 11.5762C16.549 10.6256 16.2183 9.95065 15.6338 9.36654C15.1503 8.8832 14.6128 8.57725 13.9282 8.3955C13.4593 8.27106 13.2579 8.24744 12.5962 8.23933C12.2596 8.2352 11.9572 8.23636 11.9242 8.2419ZM12.1237 9.95564C11.5388 10.0073 11.0785 10.1692 10.7362 10.4437C10.1975 10.8757 9.95035 11.5216 9.94953 12.5001C9.94881 13.3789 10.1482 13.982 10.5832 14.417C11.018 14.8518 11.6204 15.051 12.5002 15.051C13.3719 15.051 13.9716 14.8521 14.4104 14.4174C14.7179 14.1128 14.9154 13.6981 15.0091 13.1601C15.0664 12.8316 15.0664 12.1686 15.0091 11.8401C14.8461 10.9045 14.3606 10.3211 13.5442 10.0797C13.1648 9.96755 12.5736 9.9159 12.1237 9.95564Z" fill="white"/>
</g>
<defs>
<clipPath id="clip0_11_67">
<rect width="24" height="24" fill="white" transform="translate(0.5 0.5)"/>
</clipPath>
</defs>
</svg>
