<svg width="16" height="16" viewBox="0 0 16 16" fill="none" xmlns="http://www.w3.org/2000/svg">
<g clip-path="url(#clip0_34_517)">
<path fill-rule="evenodd" clip-rule="evenodd" d="M7.42397 0.361301C7.38437 0.364501 7.24397 0.375061 7.11197 0.384773C5.58191 0.497429 4.23026 0.968085 3.19197 1.74978C2.29506 2.42504 1.60292 3.36487 1.19303 4.46402C0.801684 5.51344 0.638404 6.56644 0.660836 7.89602C0.67026 8.4542 0.69586 8.79492 0.761812 9.24002C0.973028 10.6652 1.48996 11.8745 2.27516 12.7804L2.41767 12.9448L2.32319 13.0524C1.94316 13.4852 1.61152 14.067 1.44044 14.6011C1.31357 14.9972 1.29394 15.1948 1.36588 15.3519C1.45021 15.5361 1.57288 15.6413 1.75892 15.689C1.94346 15.7363 2.13301 15.6858 2.28021 15.5501C2.37799 15.46 2.41735 15.3785 2.48671 15.1225C2.61418 14.652 2.79831 14.2909 3.11212 13.896C3.17504 13.8168 3.23768 13.7429 3.2513 13.7317C3.27215 13.7146 3.3009 13.728 3.434 13.8172C4.34159 14.4255 5.40506 14.8052 6.63197 14.9589C7.16682 15.0259 7.27672 15.0318 7.99997 15.0318C8.72322 15.0318 8.83312 15.0259 9.36797 14.9589C10.5949 14.8052 11.6584 14.4255 12.5659 13.8172C12.6988 13.7282 12.7278 13.7146 12.7484 13.7317C12.7619 13.7429 12.8261 13.8188 12.8911 13.9004C13.1997 14.288 13.3895 14.662 13.5138 15.1275C13.5815 15.381 13.6162 15.4529 13.7157 15.546C13.917 15.7342 14.1963 15.7585 14.4238 15.6074C14.643 15.4619 14.7201 15.2255 14.6479 14.92C14.5452 14.4858 14.3519 14.0286 14.1032 13.632C13.9888 13.4495 13.7717 13.1562 13.6552 13.0266L13.5821 12.9452L13.724 12.7806C14.4498 11.9387 14.9592 10.8167 15.1862 9.56002C15.2865 9.00474 15.3281 8.5518 15.3391 7.89602C15.3615 6.56637 15.1988 5.517 14.8071 4.46402C14.1811 2.78148 12.917 1.51744 11.232 0.889077C10.513 0.620949 9.86693 0.477269 8.99042 0.390533C8.76064 0.367797 7.60984 0.346325 7.42397 0.361301ZM7.60797 1.50463C6.19452 1.55794 5.0142 1.89717 4.09597 2.51399C3.52848 2.8952 3.03333 3.41623 2.68692 3.99664C2.04816 5.06685 1.75242 6.43745 1.8096 8.06239C1.84616 9.1013 2.01724 9.94559 2.35133 10.736C2.61204 11.3527 2.9292 11.8266 3.39108 12.2895C3.93436 12.834 4.50088 13.189 5.27197 13.4682C6.39645 13.8753 7.92223 14.0028 9.32797 13.8071C11.1219 13.5573 12.4564 12.7622 13.2785 11.4532C13.9319 10.4127 14.2485 8.981 14.1903 7.32965C14.1324 5.68412 13.7051 4.39141 12.893 3.40463C12.7445 3.2242 12.4093 2.89436 12.224 2.74628C11.1197 1.86389 9.5165 1.43264 7.60797 1.50463ZM7.66397 3.64199C6.6361 3.70354 5.8286 4.00048 5.18562 4.55335C4.73911 4.93728 4.38394 5.47369 4.18535 6.06402C3.85152 7.05633 3.85754 8.39145 4.20028 9.37602C4.40149 9.95405 4.76765 10.4923 5.21421 10.8665C5.78367 11.3436 6.45712 11.6162 7.32797 11.7222C7.65093 11.7615 8.34901 11.7615 8.67197 11.7222C9.80989 11.5838 10.6698 11.1346 11.2606 10.3701C11.7429 9.74604 11.9922 9.00466 12.0508 8.02002C12.1034 7.13484 11.9549 6.28408 11.6325 5.62402C11.0873 4.50776 10.0646 3.83367 8.67197 3.67261C8.45855 3.64792 7.86559 3.62991 7.66397 3.64199ZM7.55724 4.80151C6.85252 4.86437 6.27676 5.09741 5.87012 5.48439C5.45455 5.87984 5.22172 6.38762 5.11645 7.12802C5.08437 7.35362 5.08988 8.08914 5.12543 8.32802C5.18293 8.71442 5.26919 9.00345 5.41181 9.28769C5.53298 9.52913 5.63503 9.67012 5.83042 9.86605C6.21693 10.2536 6.67007 10.4624 7.35997 10.5709C7.6238 10.6124 8.37615 10.6124 8.63997 10.5709C9.33125 10.4622 9.78225 10.2544 10.1695 9.86605C10.3649 9.67012 10.467 9.52913 10.5881 9.28769C10.7285 9.00784 10.8192 8.70402 10.8746 8.32802C10.9098 8.08839 10.9153 7.35181 10.8835 7.12802C10.8229 6.70215 10.7276 6.37836 10.575 6.08002C10.1875 5.32274 9.45951 4.89124 8.41597 4.80032C8.20388 4.78184 7.77098 4.78244 7.55724 4.80151ZM7.82916 7.06212C7.68157 7.11033 7.54656 7.2333 7.47922 7.38085C7.40215 7.54975 7.40772 7.87589 7.4905 8.04164C7.53954 8.13986 7.65636 8.25276 7.75997 8.30212C7.83576 8.33821 7.86906 8.34402 7.99997 8.34402C8.13088 8.34402 8.16418 8.33821 8.23997 8.30212C8.34359 8.25276 8.4604 8.13986 8.50944 8.04164C8.59284 7.87466 8.59776 7.55223 8.51959 7.37802C8.46789 7.26285 8.34048 7.13452 8.22799 7.08431C8.13287 7.04184 7.92637 7.03036 7.82916 7.06212Z" fill="white"/>
</g>
<defs>
<clipPath id="clip0_34_517">
<rect width="16" height="16" fill="white"/>
</clipPath>
</defs>
</svg>
