<svg width="18" height="18" viewBox="0 0 18 18" fill="none" xmlns="http://www.w3.org/2000/svg">
<g clip-path="url(#clip0_11_71)">
<path fill-rule="evenodd" clip-rule="evenodd" d="M8.19006 0.343305C5.82743 0.491355 3.95811 1.24642 2.60086 2.60092C1.09237 4.10633 0.324219 6.26539 0.324219 8.99992C0.324219 11.7355 1.09008 13.8879 2.60108 15.3989C3.15558 15.9534 3.73769 16.3674 4.47306 16.7304C5.49425 17.2345 6.49444 17.5002 7.87506 17.6343C8.33901 17.6794 9.68013 17.6793 10.1431 17.6342C12.1374 17.4399 13.6676 16.864 14.9345 15.831C15.1952 15.6184 15.6613 15.145 15.8828 14.8679C16.1131 14.5797 16.4056 14.1475 16.5009 13.9546C16.5634 13.8279 16.569 13.8045 16.5678 13.6705C16.5667 13.547 16.5581 13.5065 16.512 13.4087C16.4018 13.1745 16.2103 13.0455 15.9571 13.0349C15.8436 13.0301 15.7915 13.0369 15.7114 13.0669C15.5368 13.1325 15.4774 13.1901 15.2891 13.4763C14.9871 13.9354 14.855 14.1037 14.5448 14.4244C13.4318 15.5746 11.8651 16.2149 9.80106 16.363C9.45976 16.3875 8.53279 16.3875 8.19006 16.363C6.39362 16.2345 4.95517 15.7215 3.87906 14.8255C3.71351 14.6877 3.35999 14.3366 3.21498 14.1659C2.33388 13.1291 1.81743 11.7694 1.65611 10.0619C1.60452 9.5158 1.60452 8.48404 1.65611 7.93792C1.81743 6.2304 2.33388 4.87072 3.21498 3.83392C3.35999 3.66328 3.71351 3.31213 3.87906 3.17431C4.90148 2.32303 6.26155 1.81443 7.93969 1.65581C8.71679 1.58237 9.9805 1.61742 10.6461 1.73087C11.0076 1.79248 11.1667 1.76154 11.3539 1.59328C11.4016 1.55035 11.4643 1.46832 11.4937 1.41022C11.5423 1.31437 11.5471 1.28875 11.5471 1.12492C11.5471 0.918981 11.518 0.837981 11.3932 0.696177C11.2572 0.541683 11.1352 0.495477 10.7011 0.433971C10.0158 0.336879 8.92246 0.297405 8.19006 0.343305ZM13.0729 1.25806C12.6271 1.42348 12.5028 1.9941 12.841 2.32244C12.8804 2.36067 13.0266 2.45406 13.1659 2.52994C13.7003 2.82118 14.0518 3.08485 14.4818 3.51681C14.7502 3.78642 14.8171 3.86306 15.0841 4.20724C15.1385 4.27742 15.2195 4.3597 15.2641 4.39006C15.6805 4.67391 16.2566 4.37345 16.2613 3.86997C16.2631 3.68216 16.2255 3.58933 16.0533 3.35692C15.4358 2.52314 14.6527 1.85458 13.7169 1.3623C13.478 1.23664 13.4718 1.23454 13.3206 1.22887C13.2022 1.22444 13.1455 1.23112 13.0729 1.25806ZM8.89841 5.47314C8.77245 5.48999 8.65044 5.55387 8.54657 5.65743C8.44157 5.76204 8.39812 5.84315 8.37081 5.98537C8.34057 6.1429 8.35296 9.43285 8.38413 9.52395C8.39637 9.55974 8.42863 9.62212 8.45583 9.66261C8.52729 9.769 11.1447 12.8159 11.2338 12.8964C11.3605 13.0108 11.4482 13.0409 11.6551 13.0409C11.8256 13.0409 11.841 13.0377 11.9479 12.9797C12.083 12.9065 12.1735 12.8109 12.2374 12.6741C12.2781 12.587 12.2846 12.5492 12.2844 12.4019C12.2841 12.258 12.2774 12.2181 12.2419 12.1499C12.1856 12.0418 12.2351 12.101 10.8586 10.496L9.64806 9.08459V7.58755C9.64806 6.07018 9.64325 5.94447 9.58059 5.82328C9.53158 5.72845 9.44608 5.63476 9.35212 5.5729C9.20994 5.47928 9.07479 5.44956 8.89841 5.47314ZM16.7131 6.44998C16.5189 6.51471 16.376 6.63882 16.2988 6.80977C16.2316 6.9585 16.229 7.03461 16.2788 7.40739C16.3461 7.91191 16.3621 8.09965 16.3775 8.57242C16.3924 9.02539 16.3765 9.7235 16.344 10.0529C16.3332 10.1618 16.3039 10.4046 16.2788 10.5925C16.2503 10.8055 16.2376 10.9646 16.2449 11.0154C16.2747 11.2218 16.4269 11.4244 16.6188 11.5131C16.717 11.5584 16.7514 11.5648 16.8931 11.564C17.024 11.5632 17.0714 11.5551 17.1399 11.5218C17.3059 11.4411 17.4512 11.2782 17.4973 11.1209C17.507 11.0879 17.5312 10.9516 17.5511 10.8179C17.7193 9.68811 17.7187 8.31649 17.5495 7.17292C17.5305 7.04422 17.507 6.91192 17.4973 6.87891C17.451 6.72099 17.3039 6.55649 17.1405 6.47963C17.0353 6.43022 16.8177 6.41512 16.7131 6.44998Z" fill="#585858"/>
</g>
<defs>
<clipPath id="clip0_11_71">
<rect width="18" height="18" fill="white"/>
</clipPath>
</defs>
</svg>
