<svg width="16" height="16" viewBox="0 0 16 16" fill="none" xmlns="http://www.w3.org/2000/svg">
<g clip-path="url(#clip0_130_5909)">
<path fill-rule="evenodd" clip-rule="evenodd" d="M10.832 0.624628C10.2195 0.712836 9.78944 0.83562 9.35203 1.04717C8.99926 1.2178 8.64461 1.46564 8.42038 1.69826L8.35274 1.76844L8.17238 1.74933C7.7129 1.70069 7.05914 1.70572 6.56803 1.76164C5.08005 1.93109 3.61435 2.58927 2.58686 3.54938L2.4937 3.63644L2.41334 3.55818C2.12621 3.27855 1.866 2.89052 1.70246 2.49812C1.66027 2.39685 1.61587 2.32144 1.56549 2.26548C1.29347 1.96322 0.807552 2.03282 0.627312 2.39983C0.588928 2.47797 0.584064 2.50605 0.584352 2.64794C0.584672 2.80125 0.5876 2.81463 0.654304 2.96794C0.894848 3.52069 1.14818 3.89762 1.57034 4.33082L1.72907 4.49372L1.58661 4.70682C1.0573 5.49861 0.748048 6.31276 0.615296 7.26394C0.5756 7.54842 0.566383 8.26728 0.598543 8.5706C0.686319 9.39818 0.926416 10.1617 1.31677 10.8547C1.39675 10.9967 1.39709 10.9979 1.37742 11.0707C1.34171 11.2031 1.07072 12.3884 1.03878 12.5519C0.9132 13.195 1.05299 13.8924 1.41779 14.4428C1.82837 15.0622 2.47016 15.4691 3.20803 15.5779C3.44131 15.6123 3.84344 15.6004 4.07203 15.5524C4.8359 15.3918 5.50384 14.8899 5.84 14.224C5.8775 14.1497 5.89594 14.1282 5.9167 14.1346C5.98064 14.1543 6.44326 14.2252 6.67203 14.2504C6.85019 14.2701 7.05746 14.2779 7.40803 14.2781C7.84243 14.2784 7.98867 14.2711 8.3635 14.2303L8.46296 14.2195L8.4915 14.2714C8.55648 14.3898 8.6989 14.5924 8.80587 14.7188C9.07957 15.042 9.52282 15.3373 9.93416 15.4705C10.2414 15.57 10.3904 15.592 10.752 15.5912C11.1128 15.5904 11.2543 15.5692 11.5544 15.4712C12.3614 15.2074 13.003 14.5311 13.2234 13.7118C13.28 13.5017 13.2991 13.3819 13.3104 13.1679L13.32 12.9839L14.1134 12.5839C14.5498 12.3639 14.9534 12.1503 15.0104 12.1093C15.0674 12.0682 15.1728 11.9726 15.2445 11.8967C15.4469 11.683 15.584 11.4381 15.6688 11.1387C15.7032 11.017 15.7036 11.0028 15.7083 9.43404C15.7125 8.05423 15.7099 7.83352 15.688 7.70655C15.6261 7.34832 15.4495 7.0152 15.1895 6.76663C14.8978 6.4878 14.5556 6.33196 14.1461 6.29157L14.0282 6.27994L13.9529 6.06394C13.6694 5.25068 13.1852 4.46991 12.5862 3.86008L12.441 3.71223L12.5443 3.09208C12.6336 2.55594 12.6476 2.44485 12.6471 2.27194C12.645 1.49399 12.1262 0.822901 11.392 0.648325C11.2615 0.617285 10.9689 0.604916 10.832 0.624628ZM10.824 1.78528C10.4784 1.83868 10.1125 1.95082 9.83693 2.08788C9.52469 2.24314 9.31336 2.40997 9.04618 2.71208C8.84526 2.93927 8.71906 2.97906 8.35978 2.9285C8.23672 2.91119 8.03163 2.88869 7.90403 2.87853C7.61038 2.85516 6.94165 2.86893 6.67203 2.90391C5.5084 3.0549 4.49582 3.47391 3.63203 4.16184C3.47038 4.2906 3.15858 4.59381 2.91635 4.85784C2.4185 5.40052 1.98832 6.24351 1.82589 6.99479C1.69597 7.5957 1.68491 8.2381 1.79414 8.83994C1.89994 9.42284 2.09378 9.92293 2.43376 10.4901C2.62565 10.8101 2.64459 10.9339 2.54222 11.1989C2.50301 11.3003 2.22352 12.4662 2.15926 12.7963C2.13435 12.9243 2.14784 13.2537 2.18334 13.3839C2.2969 13.8006 2.57397 14.1352 2.95203 14.3122C3.12672 14.3941 3.24504 14.4272 3.42856 14.4458C3.8101 14.4845 4.1897 14.3654 4.49333 14.1117C4.6851 13.9514 4.85618 13.6858 4.92754 13.4375C5.00912 13.1536 5.0608 13.0672 5.20446 12.9743C5.37355 12.865 5.51592 12.8509 5.76432 12.9185C6.36146 13.0812 6.91445 13.1462 7.57371 13.1314C7.97531 13.1223 8.2196 13.0992 8.55203 13.0387C8.8611 12.9825 9.0024 12.9998 9.15606 13.1125C9.24669 13.179 9.31629 13.2709 9.35357 13.3732C9.43419 13.5944 9.48098 13.6991 9.5456 13.803C9.72032 14.084 10.0599 14.3258 10.408 14.4172C10.6001 14.4677 10.8835 14.4647 11.094 14.4099C11.4076 14.3283 11.6577 14.169 11.8504 13.9282C12.1084 13.6057 12.2118 13.2281 12.1551 12.8151C12.1281 12.6189 12.1401 12.5022 12.1991 12.3858C12.2823 12.2216 12.3 12.2108 13.3493 11.6853C14.1917 11.2634 14.3348 11.1866 14.3984 11.1224C14.4901 11.0297 14.5423 10.9248 14.561 10.7957C14.5815 10.6536 14.58 8.04981 14.5593 7.92215C14.5222 7.69396 14.374 7.52276 14.1525 7.45226C14.1258 7.44377 13.9492 7.43181 13.76 7.42567C13.3729 7.41311 13.3467 7.40602 13.2053 7.27572C13.0991 7.17781 13.0657 7.10744 12.9838 6.80868C12.8337 6.26116 12.6368 5.82695 12.327 5.35994C12.1257 5.05648 11.9418 4.8362 11.6315 4.52677C11.3277 4.22375 11.2893 4.16885 11.2604 3.99591C11.245 3.90325 11.2534 3.83796 11.3758 3.10404C11.5205 2.23583 11.5235 2.19247 11.45 2.04303C11.3893 1.91956 11.3216 1.84677 11.2247 1.80095C11.125 1.75378 11.0476 1.75076 10.824 1.78528ZM5.43187 4.19172C5.26002 4.217 5.08667 4.34844 5.00954 4.51194C4.9735 4.58836 4.96803 4.621 4.96803 4.75994C4.96803 4.89892 4.97328 4.93029 5.00803 4.99877C5.0641 5.10925 5.18299 5.22573 5.29171 5.27668L5.38403 5.31994H6.39203H7.40003L7.49083 5.27738C7.73282 5.16394 7.866 4.91992 7.82446 4.66612C7.8037 4.53917 7.75493 4.44436 7.66326 4.35271C7.57162 4.26104 7.47682 4.21228 7.34986 4.19149C7.24136 4.17372 5.55288 4.17392 5.43187 4.19172ZM10.928 6.38735C10.804 6.43492 10.6572 6.5838 10.6101 6.70986C10.5758 6.80186 10.5751 6.81757 10.5795 7.47786L10.584 8.15194L10.6253 8.23997C10.648 8.2884 10.7001 8.36149 10.741 8.40241C11.0199 8.68132 11.4915 8.59813 11.6621 8.23994L11.704 8.15194V7.45594V6.75994L11.6567 6.66649C11.5962 6.54709 11.4676 6.42855 11.3514 6.38508C11.2312 6.34012 11.0487 6.34109 10.928 6.38735Z" fill="white"/>
</g>
<defs>
<clipPath id="clip0_130_5909">
<rect width="16" height="16" fill="white"/>
</clipPath>
</defs>
</svg>
