<svg width="30" height="30" viewBox="0 0 30 30" fill="none" xmlns="http://www.w3.org/2000/svg">
<path fill-rule="evenodd" clip-rule="evenodd" d="M10.665 1.11183C7.98753 1.19112 5.44197 1.47279 4.4751 1.79673C3.04059 2.27733 1.9452 3.51102 1.59189 5.04396C1.34112 6.13197 1.16925 7.6242 1.11036 9.22503C1.07175 10.2744 1.07175 15.4357 1.11036 16.485C1.18227 18.4396 1.4355 20.3227 1.74546 21.2077C2.22561 22.5786 3.39768 23.6546 4.8012 24.0129C5.0367 24.073 5.08401 24.0948 5.07912 24.1406C5.07585 24.171 4.89588 24.9044 4.67916 25.7704C4.31229 27.2363 4.28595 27.3606 4.29765 27.57C4.31883 27.9503 4.54053 28.2865 4.8813 28.455C5.12178 28.5739 5.48844 28.5946 5.73135 28.5031C5.95077 28.4203 6.21462 28.1835 6.31206 27.9817C6.35589 27.891 6.56703 27.105 6.81342 26.115C7.04754 25.1745 7.2417 24.4015 7.24491 24.3971C7.24812 24.3928 7.47624 24.4099 7.75182 24.4352C9.45396 24.5911 11.0593 24.6355 15 24.6355C18.9407 24.6355 20.546 24.5911 22.2482 24.4352C22.5238 24.4099 22.7519 24.3928 22.7551 24.3971C22.7583 24.4015 22.9525 25.1745 23.1866 26.115C23.433 27.105 23.6441 27.891 23.6879 27.9817C23.7854 28.1835 24.0492 28.4203 24.2687 28.5031C24.5116 28.5946 24.8782 28.5739 25.1187 28.455C25.4595 28.2865 25.6812 27.9503 25.7024 27.57C25.7141 27.3606 25.6877 27.2363 25.3208 25.7704C25.1041 24.9044 24.9242 24.171 24.9209 24.1406C24.916 24.0948 24.9633 24.073 25.1988 24.0129C26.6002 23.6551 27.776 22.5763 28.2536 21.21C28.5638 20.3224 28.8179 18.4349 28.8896 16.485C28.9282 15.4379 28.9283 10.2766 28.8898 9.22503C28.8335 7.68729 28.699 6.47055 28.4503 5.25003C28.2665 4.34805 27.9345 3.65598 27.398 3.0567C26.7115 2.28978 25.927 1.84251 24.9038 1.63464C23.5836 1.36641 21.5695 1.18116 19.2 1.11003C18.0929 1.07679 11.8033 1.07814 10.665 1.11183ZM11.745 3.24165C9.2844 3.28176 7.55175 3.40842 5.97 3.66387C5.23908 3.78192 4.90803 3.8982 4.56174 4.15848C4.17234 4.45122 3.87297 4.8819 3.74049 5.34003C3.57393 5.91594 3.3888 7.21365 3.29967 8.43003C3.18957 9.93231 3.18957 15.7777 3.29967 17.28C3.41574 18.8641 3.6303 20.174 3.85797 20.6888C4.12581 21.2945 4.72293 21.7837 5.385 21.9398C6.33714 22.1644 8.26176 22.3574 10.425 22.4452C11.6983 22.4969 18.3017 22.4969 19.575 22.4452C21.7382 22.3574 23.6629 22.1644 24.615 21.9398C25.0344 21.8409 25.4295 21.6121 25.7264 21.2962C26.1103 20.8877 26.2529 20.5482 26.4119 19.665C26.6592 18.2902 26.7199 17.4701 26.7655 14.8899C26.8059 12.601 26.7656 9.2295 26.6861 8.23503C26.5944 7.08933 26.4168 5.88396 26.2595 5.34003C26.0381 4.57422 25.4192 3.97938 24.6403 3.78357C23.8574 3.5868 22.1237 3.39423 20.2817 3.29946C18.7708 3.22173 14.6721 3.19398 11.745 3.24165ZM18.1603 6.45126C17.8547 6.51174 17.5489 6.75966 17.4119 7.05801C17.3291 7.23822 17.3256 7.26492 17.3152 7.79214L17.3043 8.33925L17.1797 8.37072C16.5059 8.54082 15.7818 8.94666 15.2034 9.47835L15.0018 9.66366L14.6107 9.43545C14.1293 9.1545 14.021 9.11367 13.755 9.11283C13.3821 9.11163 13.059 9.28206 12.8645 9.58245C12.7252 9.79764 12.6823 9.94353 12.6827 10.2C12.6835 10.6483 12.9048 10.9432 13.4886 11.2737C13.9801 11.552 13.9385 11.4926 13.8639 11.8104C13.7589 12.2577 13.7225 12.7799 13.7643 13.2398C13.7841 13.4572 13.8277 13.7491 13.8611 13.8884C13.8945 14.0278 13.9161 14.157 13.909 14.1755C13.9019 14.194 13.7278 14.3062 13.5221 14.4248C13.3164 14.5433 13.0885 14.6928 13.0156 14.757C12.7655 14.9771 12.6372 15.3479 12.6925 15.6908C12.7702 16.1734 13.1139 16.5151 13.605 16.5981C13.8912 16.6465 14.059 16.595 14.5676 16.303L15.0093 16.0495L15.1922 16.2246C15.6842 16.696 16.3244 17.0718 16.9997 17.2855L17.3045 17.382L17.315 17.9235C17.325 18.4423 17.329 18.4726 17.4092 18.645C17.5186 18.8802 17.7223 19.0845 17.9517 19.1894C18.1063 19.2601 18.175 19.2732 18.39 19.2735C18.6915 19.2738 18.9011 19.1932 19.1174 18.9939C19.394 18.7389 19.47 18.4816 19.47 17.8007V17.3723L19.5975 17.3396C20.2899 17.1619 20.9916 16.7695 21.5731 16.2349L21.7712 16.0527L22.1131 16.2511C22.6672 16.5727 22.7477 16.6037 23.0262 16.6026C23.2312 16.6018 23.2965 16.5879 23.4612 16.5104C23.6928 16.4014 23.8628 16.242 23.985 16.0191C24.0681 15.8676 24.075 15.832 24.075 15.5546C24.075 15.2755 24.068 15.2398 23.9762 15.0533C23.8531 14.803 23.7503 14.7144 23.2404 14.4187L22.8368 14.1847L22.8782 14.0299C23.0683 13.3192 23.0685 12.3914 22.8787 11.6819L22.8378 11.5288L23.1986 11.3219C23.7902 10.9828 23.9317 10.8459 24.0443 10.5038C24.1209 10.2708 24.0973 9.9318 23.9888 9.71016C23.8131 9.35097 23.432 9.11493 23.025 9.11322C22.7624 9.11211 22.6274 9.1629 22.1456 9.44433L21.7762 9.66009L21.5024 9.41814C20.9326 8.91468 20.2544 8.54184 19.5975 8.3709L19.47 8.33772V7.90938C19.47 7.23033 19.4095 7.0167 19.1414 6.74859C18.8711 6.47829 18.5364 6.37686 18.1603 6.45126ZM7.25916 10.0308C6.93567 10.1005 6.66531 10.3239 6.51405 10.6464L6.435 10.815V12.855V14.895L6.5148 15.0653C6.62655 15.3037 6.8109 15.4919 7.04568 15.6075C7.22226 15.6945 7.27152 15.705 7.5 15.705C7.72848 15.705 7.77774 15.6945 7.95432 15.6075C8.1891 15.4919 8.37345 15.3037 8.4852 15.0653L8.565 14.895L8.57433 12.975C8.58408 10.9687 8.57661 10.8186 8.45502 10.5803C8.30988 10.2958 8.0187 10.0815 7.69698 10.0226C7.48704 9.98418 7.47441 9.98442 7.25916 10.0308ZM18.0982 10.381C17.1158 10.4843 16.2347 11.2415 15.9698 12.21C15.8856 12.5177 15.8934 13.2289 15.9844 13.545C16.1849 14.2417 16.7384 14.8705 17.3982 15.1513C17.7258 15.2907 17.9732 15.3386 18.375 15.3403C18.8309 15.3423 19.0898 15.2841 19.485 15.0907C20.3956 14.645 20.9309 13.7226 20.8694 12.705C20.8315 12.0766 20.6221 11.595 20.1931 11.1492C19.625 10.5588 18.9077 10.2958 18.0982 10.381Z" fill="#6C6C6C"/>
</svg>
