<svg width="512" height="555" viewBox="0 0 512 555" fill="none" xmlns="http://www.w3.org/2000/svg">
<path d="M113.044 495.976C119.022 501.767 125.525 506.977 132.506 511.569C132.509 511.571 132.512 511.572 132.515 511.574L132.556 511.602C167.4 534.493 214.161 541.965 267.115 529.071C387.852 499.672 495.059 375.537 506.57 251.807C513.032 182.344 487.959 127.776 443.359 98.4742C436.396 93.8996 428.957 89.9408 421.088 86.6373C453.27 117.811 470.235 165.785 464.787 224.345C453.276 348.074 346.068 472.21 225.332 501.608C182.96 511.926 144.553 509.204 113.044 495.976Z" fill="#B2B2B2"/>
<path d="M90.7731 484.14C46.1726 454.838 21.0995 400.27 27.5618 330.807C39.0726 207.077 146.28 82.942 267.017 53.5432C319.971 40.6491 366.732 48.1204 401.575 71.0121M90.7731 484.14L132.506 511.569M90.7731 484.14C97.7361 488.714 105.175 492.673 113.044 495.976M132.515 511.574C132.528 511.583 132.542 511.593 132.556 511.602M132.515 511.574C132.512 511.572 132.509 511.571 132.506 511.569M132.515 511.574L132.556 511.602M132.515 511.574L132.506 511.569M132.556 511.602C167.4 534.493 214.161 541.965 267.115 529.071C387.852 499.672 495.059 375.537 506.57 251.807C513.032 182.344 487.959 127.776 443.359 98.4742M132.556 511.602L132.506 511.569M401.575 71.0121L443.359 98.4742M401.575 71.0121C401.589 71.0212 401.603 71.0304 401.617 71.0395M443.359 98.4742L401.617 71.0395M443.359 98.4742C436.396 93.8996 428.957 89.9408 421.088 86.6373M401.617 71.0395C408.602 75.6321 415.107 80.8447 421.088 86.6373M113.044 495.976C119.022 501.767 125.525 506.977 132.506 511.569M113.044 495.976C144.553 509.204 182.96 511.926 225.332 501.608C346.068 472.21 453.276 348.074 464.787 224.345C470.235 165.785 453.27 117.811 421.088 86.6373M113.044 495.976C80.8617 464.803 63.897 416.829 69.345 358.269C80.8558 234.539 188.063 110.404 308.8 81.0053C351.172 70.688 389.579 73.4097 421.088 86.6373" stroke="black" stroke-width="3" stroke-linejoin="round"/>
<mask id="mask0_13_139" style="mask-type:alpha" maskUnits="userSpaceOnUse" x="26" y="47" width="482" height="489">
<path d="M267.017 53.5432C146.28 82.942 39.0727 207.077 27.5618 330.807L69.345 358.269C80.8558 234.539 188.063 110.404 308.8 81.0053L267.017 53.5432Z" fill="#C4C1C1"/>
<path d="M27.5618 330.807C21.0995 400.27 46.1727 454.838 90.7731 484.14L132.515 511.574C87.9402 482.266 62.8847 427.71 69.345 358.269L27.5618 330.807Z" fill="#C4C1C1"/>
<path d="M401.575 71.0121C366.732 48.1204 319.971 40.6491 267.017 53.5432L308.8 81.0053C361.754 68.1113 408.515 75.5825 443.359 98.4742L401.575 71.0121Z" fill="#C4C1C1"/>
<path d="M90.7731 484.14C125.617 507.031 172.378 514.502 225.332 501.608L267.115 529.071C214.161 541.965 167.4 534.493 132.556 511.602L90.7731 484.14Z" fill="#C4C1C1"/>
<path d="M464.787 224.345C471.247 154.903 446.192 100.348 401.617 71.0395L443.359 98.4742C487.959 127.776 513.032 182.344 506.57 251.807L464.787 224.345Z" fill="#C4C1C1"/>
<path d="M225.332 501.608C346.068 472.21 453.276 348.074 464.787 224.345L506.57 251.807C495.059 375.537 387.852 499.672 267.115 529.071L225.332 501.608Z" fill="#C4C1C1"/>
</mask>
<g mask="url(#mask0_13_139)">
<path d="M47.4147 436.125L446.205 688.268M54.4885 406.97L453.279 659.114M61.5624 377.816L460.589 628.988M68.8722 347.691L467.427 600.806M75.946 318.536L474.501 571.652M82.7842 290.354L481.575 542.497M89.8581 261.2L488.648 513.343M96.932 232.046L495.722 484.189M104.006 202.892L503.032 454.063M111.316 172.766L510.106 424.909M118.39 143.612L516.944 396.727M125.463 114.458L524.018 367.573M132.537 85.3038L531.092 338.419M139.375 57.1216L538.166 309.265M146.449 27.9675L545.476 279.139M153.759 -2.15838L552.549 249.985M160.833 -31.3125L559.623 220.831M167.907 -60.4665L566.697 191.677" stroke="black" stroke-width="3"/>
</g>
<circle cx="225" cy="225" r="225" transform="matrix(0.0926321 -0.9957 0.971611 -0.236583 6.71959 554.84)" fill="#D9D9D9"/>
<path d="M264.169 84.15C278.53 80.6532 292.364 78.8911 305.517 78.7317L323.516 78.5165C310.363 78.676 296.529 80.438 282.168 83.9349L264.169 84.15Z" fill="#BBB8B8"/>
<path d="M57.428 323.535C48.8589 415.644 104.513 477.418 186.832 476.42L204.776 476.206C122.488 477.176 66.8595 415.408 75.4267 323.32C85.365 216.493 177.926 109.317 282.168 83.9349L264.169 84.15C159.927 109.532 67.3662 216.709 57.428 323.535Z" fill="#BBB8B8"/>
<path d="M204.776 476.206L186.832 476.42C104.513 477.418 48.8589 415.644 57.428 323.535C67.3662 216.709 159.927 109.532 264.169 84.15M204.776 476.206L204.83 476.205M204.776 476.206C122.488 477.176 66.8595 415.408 75.4267 323.32C85.365 216.493 177.926 109.317 282.168 83.9349M264.169 84.15L282.168 83.9349M264.169 84.15C278.53 80.6532 292.364 78.8911 305.517 78.7317L323.516 78.5165C310.363 78.676 296.529 80.438 282.168 83.9349" stroke="black" stroke-width="3" stroke-linejoin="round"/>
<path d="M267.017 53.5432C387.753 24.1445 476.298 100.615 464.787 224.345C453.276 348.074 346.068 472.21 225.332 501.608C104.596 531.007 16.051 454.537 27.5618 330.807C39.0726 207.077 146.28 82.942 267.017 53.5432ZM228.18 471.002C332.421 445.619 424.982 338.443 434.921 231.617C444.859 124.791 368.411 58.7676 264.169 84.15C159.927 109.532 67.3663 216.709 57.4281 323.535C47.4898 430.361 123.938 496.384 228.18 471.002Z" fill="#D9D9D9" stroke="black" stroke-width="3"/>
<path fill-rule="evenodd" clip-rule="evenodd" d="M317.478 135.319L331.473 141.958C337.534 144.833 339.828 152.666 336.805 160.974C340.8 159.788 344.652 159.982 347.716 161.436L361.711 168.075C366.038 170.129 368.795 174.694 368.17 181.431L360.799 260.918C359.853 271.117 351.022 281.353 341.075 283.782L321.677 288.518C317.965 289.424 314.621 289.115 311.938 287.841L297.943 281.202C296.466 280.501 295.189 279.508 294.16 278.265C292.706 288.086 284.157 297.679 274.569 300.02L230.232 310.845C226.52 311.751 223.177 311.442 220.493 310.169L206.498 303.529C205.034 302.835 203.767 301.853 202.743 300.625L201.537 313.629C201.365 315.488 200.922 317.383 200.237 319.255C200.619 319.138 201.002 319.032 201.385 318.938L259.52 304.744C263.233 303.838 266.576 304.147 269.26 305.42L283.255 312.06C284.903 312.842 286.301 313.987 287.384 315.438C287.211 314.371 287.174 313.199 287.292 311.928C288.023 304.037 294.856 296.116 302.554 294.237C305.54 293.508 308.085 293.757 310.095 294.71L310.447 294.887L310.497 294.914L324.09 301.349C330.437 304.359 331.444 314.397 324.142 322.862C318.465 329.443 311.112 331.193 306.284 328.902L292.289 322.263C291.229 321.76 290.291 321.062 289.519 320.177C289.881 321.778 289.992 323.547 289.815 325.451L287.971 345.338C287.025 355.536 278.194 365.772 268.247 368.201L190.714 387.132C186.855 388.074 183.564 387.752 180.967 386.52L166.973 379.881C160.912 377.007 158.619 369.173 161.642 360.865C157.646 362.052 153.795 361.857 150.731 360.403L136.736 353.764C132.409 351.711 129.652 347.145 130.277 340.408L137.648 260.921C138.593 250.723 147.424 240.486 157.372 238.058L176.769 233.322C180.482 232.415 183.825 232.724 186.509 233.998L200.504 240.637C201.981 241.338 203.258 242.331 204.286 243.575C205.74 233.753 214.29 224.161 223.877 221.82L268.214 210.994C271.927 210.088 275.27 210.397 277.953 211.671L291.939 218.305C293.402 219 294.68 219.986 295.704 221.214L296.91 208.21C297.082 206.352 297.525 204.456 298.21 202.584C297.828 202.702 297.445 202.808 297.061 202.901L238.926 217.095C235.214 218.002 231.87 217.693 229.187 216.419L215.192 209.78C213.544 208.998 212.145 207.852 211.062 206.401C211.235 207.469 211.273 208.64 211.155 209.911C210.423 217.802 203.59 225.723 195.893 227.602C192.907 228.332 190.361 228.082 188.351 227.129L174.357 220.49C168.01 217.48 167.002 207.442 174.305 198.978C179.982 192.397 187.335 190.647 192.162 192.937L206.148 199.572C207.208 200.075 208.156 200.778 208.928 201.662C208.566 200.061 208.455 198.293 208.632 196.388L210.476 176.502C211.421 166.303 220.252 156.067 230.2 153.638L307.733 134.708C311.592 133.766 314.881 134.087 317.478 135.319Z" fill="#BBB8B8"/>
<path d="M317.478 135.319L331.473 141.958C337.534 144.833 339.828 152.666 336.805 160.974C340.8 159.788 344.652 159.982 347.716 161.436L361.711 168.075C366.038 170.129 368.795 174.694 368.17 181.431L360.799 260.918C359.853 271.117 351.022 281.353 341.075 283.782L321.677 288.518C317.965 289.424 314.621 289.115 311.938 287.841L297.943 281.202M317.478 135.319C314.881 134.087 311.592 133.766 307.733 134.708L230.2 153.638C220.252 156.067 211.421 166.303 210.476 176.502L208.632 196.388C208.455 198.293 208.566 200.061 208.928 201.662C208.156 200.778 207.208 200.075 206.148 199.572L192.162 192.937C187.335 190.647 179.982 192.397 174.305 198.978C167.002 207.442 168.01 217.48 174.357 220.49L188.351 227.129C190.361 228.082 192.907 228.332 195.893 227.602C203.59 225.723 210.423 217.802 211.155 209.911C211.273 208.64 211.235 207.469 211.062 206.401C212.145 207.852 213.544 208.998 215.192 209.78M317.478 135.319L317.48 135.32M297.943 281.202C296.466 280.501 295.189 279.508 294.16 278.265C292.706 288.086 284.157 297.679 274.569 300.02L230.232 310.845C226.52 311.751 223.177 311.442 220.493 310.169L206.498 303.529M297.943 281.202L297.947 281.204M206.498 303.529C205.034 302.835 203.767 301.853 202.743 300.625L201.537 313.629C201.365 315.488 200.922 317.383 200.237 319.255C200.619 319.138 201.002 319.032 201.385 318.938L259.52 304.744C263.233 303.838 266.576 304.147 269.26 305.42L283.255 312.06C284.903 312.842 286.301 313.987 287.384 315.438C287.211 314.371 287.174 313.199 287.292 311.928C288.023 304.037 294.856 296.116 302.554 294.237C305.54 293.508 308.085 293.757 310.095 294.71M206.498 303.529L206.502 303.531M310.095 294.71L310.447 294.887M310.095 294.71C310.214 294.766 310.332 294.826 310.447 294.887M310.095 294.71L310.096 294.71M310.447 294.887L310.497 294.914M310.447 294.887C310.464 294.896 310.48 294.905 310.497 294.914M310.497 294.914L324.09 301.349C330.437 304.359 331.444 314.397 324.142 322.862C318.465 329.443 311.112 331.193 306.284 328.902L292.289 322.263M310.497 294.914C310.645 294.994 310.789 295.078 310.931 295.166C310.937 295.17 310.944 295.174 310.95 295.178M292.289 322.263C291.229 321.76 290.291 321.062 289.519 320.177C289.881 321.778 289.992 323.547 289.815 325.451L287.971 345.338C287.025 355.536 278.194 365.772 268.247 368.201L190.714 387.132C186.855 388.074 183.564 387.752 180.967 386.52L166.973 379.881C160.912 377.007 158.619 369.173 161.642 360.865C157.646 362.052 153.795 361.857 150.731 360.403L136.736 353.764M292.289 322.263L292.291 322.264M136.736 353.764C132.409 351.711 129.652 347.145 130.277 340.408L137.648 260.921C138.593 250.723 147.424 240.486 157.372 238.058L176.769 233.322C180.482 232.415 183.825 232.724 186.509 233.998L200.504 240.637C201.981 241.338 203.258 242.331 204.286 243.575C205.74 233.753 214.29 224.161 223.877 221.82L268.214 210.994C271.927 210.088 275.27 210.397 277.953 211.671L291.939 218.305M136.736 353.764L136.738 353.765M291.939 218.305C293.402 219 294.68 219.986 295.704 221.214L296.91 208.21C297.082 206.352 297.525 204.456 298.21 202.584C297.828 202.702 297.445 202.808 297.061 202.901L238.926 217.095C235.214 218.002 231.87 217.693 229.187 216.419L215.192 209.78M291.939 218.305L291.945 218.308M215.192 209.78L215.196 209.782" stroke="#2D2D2D" stroke-width="2.5" stroke-linejoin="round"/>
<path fill-rule="evenodd" clip-rule="evenodd" d="M303.29 193.766C299.585 198.049 297.248 203.203 296.793 208.094L291.255 267.62C290.308 277.806 297.617 284.096 307.58 281.67L327.009 276.939C336.973 274.513 345.818 264.289 346.766 254.103L354.151 174.716C355.68 158.285 337.013 154.788 324.567 169.174L303.29 193.766ZM302.443 294.013C294.733 295.89 287.889 303.801 287.156 311.683C285.973 324.397 300.417 327.102 310.048 315.971C319.678 304.84 314.88 290.985 302.443 294.013ZM229.978 153.593C220.014 156.019 211.169 166.243 210.221 176.428L208.373 196.29C207.426 206.475 214.735 212.766 224.699 210.34L282.928 196.161C287.713 194.996 292.482 191.936 296.187 187.653L317.464 163.061C329.91 148.675 323.709 130.77 307.636 134.683L229.978 153.593ZM201.111 318.687C196.326 319.852 191.557 322.913 187.852 327.195L166.575 351.787C154.129 366.173 160.33 384.079 176.403 380.165L254.061 361.256C264.025 358.829 272.87 348.606 273.818 338.42L275.666 318.558C276.613 308.373 269.304 302.082 259.34 304.508L201.111 318.687ZM223.643 221.689C213.679 224.115 204.834 234.339 203.886 244.525L199.663 289.922C198.715 300.108 206.024 306.398 215.988 303.972L260.396 293.159C270.36 290.733 279.205 280.509 280.153 270.323L284.376 224.926C285.324 214.74 278.015 208.45 268.051 210.876L223.643 221.689ZM157.03 237.909C147.066 240.335 138.221 250.559 137.273 260.745L129.888 340.132C128.359 356.563 147.026 360.06 159.472 345.674L180.749 321.082C184.454 316.799 186.791 311.646 187.246 306.754L192.784 247.228C193.731 237.042 186.422 230.752 176.459 233.178L157.03 237.909ZM196.883 203.165C198.066 190.452 183.622 187.746 173.991 198.877C164.361 210.008 169.159 223.863 181.596 220.835C189.306 218.958 196.15 211.047 196.883 203.165Z" fill="#D9D9D9" stroke="#2D2D2D" stroke-width="2.5"/>
</svg>
