<svg width="16" height="16" viewBox="0 0 16 16" fill="none" xmlns="http://www.w3.org/2000/svg">
<path fill-rule="evenodd" clip-rule="evenodd" d="M7.53604 0.310843C6.3499 0.461739 5.32804 1.11224 4.68154 2.12798C4.57695 2.2923 4.40004 2.65931 4.3229 2.87198C4.24966 3.07395 4.17398 3.37264 4.13439 3.61598C4.11214 3.75286 4.10582 3.92932 4.10026 4.56855L4.09346 5.35315L3.99476 5.391C3.94046 5.41182 3.81529 5.47027 3.71658 5.52087C2.63778 6.07396 1.851 7.11777 1.63247 8.28579C1.53695 8.79635 1.4607 9.9516 1.47823 10.6224C1.49764 11.3646 1.56889 12.1711 1.6501 12.568C1.7595 13.1024 2.06202 13.7338 2.43206 14.2C2.56799 14.3712 2.85308 14.6541 3.04004 14.8032C3.39814 15.0888 3.84057 15.3298 4.26404 15.4698C4.87438 15.6717 5.14162 15.6915 7.46404 15.7069C8.86114 15.7161 10.2335 15.6978 10.744 15.6631C11.6863 15.5991 12.5273 15.2283 13.2297 14.5673C13.7236 14.1025 14.1443 13.3851 14.3109 12.7235C14.4094 12.3322 14.474 11.7468 14.5133 10.888C14.5438 10.2235 14.5018 9.30153 14.4071 8.55198C14.2612 7.39814 13.6426 6.39952 12.672 5.75116C12.4634 5.61177 12.1751 5.45612 12.004 5.39051L11.904 5.35214L11.9039 4.65606C11.9038 4.16308 11.8971 3.90163 11.8811 3.75998C11.7799 2.8624 11.3939 2.06328 10.7528 1.42366C10.1702 0.842379 9.41266 0.458171 8.59204 0.327755C8.36481 0.291659 7.76273 0.282011 7.53604 0.310843ZM7.81604 1.4414C7.13377 1.48566 6.51286 1.77251 6.02978 2.26657C5.68052 2.62382 5.45266 3.03057 5.32762 3.51998C5.25844 3.79084 5.24863 3.91444 5.24831 4.51998L5.24799 5.09598L5.53202 5.08552C5.68823 5.07977 6.30745 5.0667 6.90804 5.05648C7.95282 5.0387 9.54492 5.05169 10.4701 5.08552C10.7029 5.09403 10.7577 5.09195 10.7644 5.07435C10.7832 5.02535 10.7532 3.94198 10.7288 3.78823C10.6554 3.32545 10.4681 2.87971 10.1972 2.52299C10.0875 2.37852 9.85121 2.13955 9.70341 2.02355C9.16596 1.60171 8.50199 1.39691 7.81604 1.4414ZM6.72004 6.20167C6.09674 6.21352 5.3007 6.24228 5.17932 6.25737C4.96964 6.2834 4.82154 6.31732 4.61604 6.38635C3.7793 6.66737 3.10898 7.34684 2.84262 8.18398C2.75383 8.463 2.7169 8.71665 2.65278 9.48798C2.62514 9.82027 2.62556 10.951 2.65345 11.288C2.69092 11.7409 2.73532 12.1274 2.76902 12.2938C2.99234 13.3968 3.8977 14.2793 5.01175 14.4799C5.25009 14.5229 5.69657 14.541 6.96406 14.5593C8.58524 14.5826 10.6086 14.546 10.9501 14.4871C11.9696 14.3112 12.8113 13.5956 13.1414 12.624C13.2403 12.3327 13.2793 12.0751 13.3472 11.264C13.3745 10.9389 13.3744 9.81872 13.3472 9.48798C13.2975 8.88489 13.2519 8.51798 13.206 8.35198C13.1158 8.02579 12.9955 7.75347 12.8314 7.50398C12.488 6.98203 11.9737 6.58492 11.384 6.38647C11.0402 6.27076 10.864 6.24667 10.192 6.22347C9.72839 6.20747 7.23798 6.19183 6.72004 6.20167ZM7.90198 9.15227C7.78577 9.17188 7.68726 9.22324 7.60175 9.30875C7.51038 9.40011 7.46718 9.47801 7.44201 9.59676C7.419 9.70532 7.41756 10.8415 7.44028 10.9612C7.47457 11.1421 7.59438 11.297 7.76001 11.3747C7.8353 11.41 7.87004 11.416 8.00004 11.416C8.13004 11.416 8.16478 11.41 8.24007 11.3747C8.4057 11.297 8.52551 11.1421 8.5598 10.9612C8.58252 10.8415 8.58108 9.70532 8.55807 9.59676C8.53228 9.47511 8.48783 9.39681 8.39073 9.30201C8.26391 9.17819 8.08074 9.12208 7.90198 9.15227Z" fill="white"/>
</svg>
