<svg width="66" height="46" viewBox="0 0 66 46" fill="none" xmlns="http://www.w3.org/2000/svg">
<path d="M26.25 32.7077V13.2922L43.5 23.0004L26.25 32.7077ZM64.6208 7.18305C63.8618 4.35553 61.6253 2.12898 58.7858 1.37332C53.6389 7.15256e-07 33 0 33 0C33 0 12.3612 7.15256e-07 7.21421 1.37332C4.3746 2.12898 2.13809 4.35553 1.37915 7.18305C0 12.3077 0 23 0 23C0 23 0 33.6921 1.37915 38.817C2.13809 41.6445 4.3746 43.871 7.21421 44.627C12.3612 46 33 46 33 46C33 46 53.6389 46 58.7858 44.627C61.6253 43.871 63.8618 41.6445 64.6208 38.817C66 33.6921 66 23 66 23C66 23 66 12.3077 64.6208 7.18305Z" fill="#FF4540"/>
</svg>
